  0
SECTION
  2
HEADER
  9
$ACADVER
  1
AC1032
  9
$ACADMAINTVER
 90
4
  9
$DWGCODEPAGE
  3
ANSI_1252
  9
$LASTSAVEDBY
  1
ezdxf
  9
$REQUIREDVERSIONS
160
0
  9
$INSBASE
 10
0.0
 20
0.0
 30
0.0
  9
$EXTMIN
 10
1e+20
 20
1e+20
 30
1e+20
  9
$EXTMAX
 10
-1e+20
 20
-1e+20
 30
-1e+20
  9
$LIMMIN
 10
0.0
 20
0.0
  9
$LIMMAX
 10
420.0
 20
297.0
  9
$ORTHOMODE
 70
0
  9
$REGENMODE
 70
1
  9
$FILLMODE
 70
1
  9
$QTEXTMODE
 70
0
  9
$MIRRTEXT
 70
1
  9
$LTSCALE
 40
1.0
  9
$ATTMODE
 70
1
  9
$TEXTSIZE
 40
2.5
  9
$TRACEWID
 40
1.0
  9
$TEXTSTYLE
  7
Standard
  9
$CLAYER
  8
0
  9
$CELTYPE
  6
ByLayer
  9
$CECOLOR
 62
256
  9
$CELTSCALE
 40
1.0
  9
$DISPSILH
 70
0
  9
$DIMSCALE
 40
1.0
  9
$DIMASZ
 40
2.5
  9
$DIMEXO
 40
0.625
  9
$DIMDLI
 40
3.75
  9
$DIMRND
 40
0.0
  9
$DIMDLE
 40
0.0
  9
$DIMEXE
 40
1.25
  9
$DIMTP
 40
0.0
  9
$DIMTM
 40
0.0
  9
$DIMTXT
 40
2.5
  9
$DIMCEN
 40
2.5
  9
$DIMTSZ
 40
0.0
  9
$DIMTOL
 70
0
  9
$DIMLIM
 70
0
  9
$DIMTIH
 70
0
  9
$DIMTOH
 70
0
  9
$DIMSE1
 70
0
  9
$DIMSE2
 70
0
  9
$DIMTAD
 70
1
  9
$DIMZIN
 70
8
  9
$DIMBLK
  1

  9
$DIMASO
 70
1
  9
$DIMSHO
 70
1
  9
$DIMPOST
  1

  9
$DIMAPOST
  1

  9
$DIMALT
 70
0
  9
$DIMALTD
 70
3
  9
$DIMALTF
 40
0.03937007874
  9
$DIMLFAC
 40
1.0
  9
$DIMTOFL
 70
1
  9
$DIMTVP
 40
0.0
  9
$DIMTIX
 70
0
  9
$DIMSOXD
 70
0
  9
$DIMSAH
 70
0
  9
$DIMBLK1
  1

  9
$DIMBLK2
  1

  9
$DIMSTYLE
  2
ISO-25
  9
$DIMCLRD
 70
0
  9
$DIMCLRE
 70
0
  9
$DIMCLRT
 70
0
  9
$DIMTFAC
 40
1.0
  9
$DIMGAP
 40
0.625
  9
$DIMJUST
 70
0
  9
$DIMSD1
 70
0
  9
$DIMSD2
 70
0
  9
$DIMTOLJ
 70
0
  9
$DIMTZIN
 70
8
  9
$DIMALTZ
 70
0
  9
$DIMALTTZ
 70
0
  9
$DIMUPT
 70
0
  9
$DIMDEC
 70
2
  9
$DIMTDEC
 70
2
  9
$DIMALTU
 70
2
  9
$DIMALTTD
 70
3
  9
$DIMTXSTY
  7
Standard
  9
$DIMAUNIT
 70
0
  9
$DIMADEC
 70
0
  9
$DIMALTRND
 40
0.0
  9
$DIMAZIN
 70
0
  9
$DIMDSEP
 70
44
  9
$DIMATFIT
 70
3
  9
$DIMFRAC
 70
0
  9
$DIMLDRBLK
  1

  9
$DIMLUNIT
 70
2
  9
$DIMLWD
 70
-2
  9
$DIMLWE
 70
-2
  9
$DIMTMOVE
 70
0
  9
$DIMFXL
 40
1.0
  9
$DIMFXLON
 70
0
  9
$DIMJOGANG
 40
0.785398163397
  9
$DIMTFILL
 70
0
  9
$DIMTFILLCLR
 70
0
  9
$DIMARCSYM
 70
0
  9
$DIMLTYPE
  6

  9
$DIMLTEX1
  6

  9
$DIMLTEX2
  6

  9
$DIMTXTDIRECTION
 70
0
  9
$LUNITS
 70
2
  9
$LUPREC
 70
4
  9
$SKETCHINC
 40
1.0
  9
$FILLETRAD
 40
10.0
  9
$AUNITS
 70
0
  9
$AUPREC
 70
2
  9
$MENU
  1
.
  9
$ELEVATION
 40
0.0
  9
$PELEVATION
 40
0.0
  9
$THICKNESS
 40
0.0
  9
$LIMCHECK
 70
0
  9
$CHAMFERA
 40
0.0
  9
$CHAMFERB
 40
0.0
  9
$CHAMFERC
 40
0.0
  9
$CHAMFERD
 40
0.0
  9
$SKPOLY
 70
0
  9
$TDCREATE
 40
2461024.6230671294
  9
$TDUCREATE
 40
2458532.153996898
  9
$TDUPDATE
 40
2461024.6230671294
  9
$TDUUPDATE
 40
2458532.1544311
  9
$TDINDWG
 40
0.0
  9
$TDUSRTIMER
 40
0.0
  9
$USRTIMER
 70
1
  9
$ANGBASE
 50
0.0
  9
$ANGDIR
 70
0
  9
$PDMODE
 70
0
  9
$PDSIZE
 40
0.0
  9
$PLINEWID
 40
0.0
  9
$SPLFRAME
 70
0
  9
$SPLINETYPE
 70
6
  9
$SPLINESEGS
 70
8
  9
$HANDSEED
  5
37D
  9
$SURFTAB1
 70
6
  9
$SURFTAB2
 70
6
  9
$SURFTYPE
 70
6
  9
$SURFU
 70
6
  9
$SURFV
 70
6
  9
$UCSBASE
  2

  9
$UCSNAME
  2

  9
$UCSORG
 10
0.0
 20
0.0
 30
0.0
  9
$UCSXDIR
 10
1.0
 20
0.0
 30
0.0
  9
$UCSYDIR
 10
0.0
 20
1.0
 30
0.0
  9
$UCSORTHOREF
  2

  9
$UCSORTHOVIEW
 70
0
  9
$UCSORGTOP
 10
0.0
 20
0.0
 30
0.0
  9
$UCSORGBOTTOM
 10
0.0
 20
0.0
 30
0.0
  9
$UCSORGLEFT
 10
0.0
 20
0.0
 30
0.0
  9
$UCSORGRIGHT
 10
0.0
 20
0.0
 30
0.0
  9
$UCSORGFRONT
 10
0.0
 20
0.0
 30
0.0
  9
$UCSORGBACK
 10
0.0
 20
0.0
 30
0.0
  9
$PUCSBASE
  2

  9
$PUCSNAME
  2

  9
$PUCSORG
 10
0.0
 20
0.0
 30
0.0
  9
$PUCSXDIR
 10
1.0
 20
0.0
 30
0.0
  9
$PUCSYDIR
 10
0.0
 20
1.0
 30
0.0
  9
$PUCSORTHOREF
  2

  9
$PUCSORTHOVIEW
 70
0
  9
$PUCSORGTOP
 10
0.0
 20
0.0
 30
0.0
  9
$PUCSORGBOTTOM
 10
0.0
 20
0.0
 30
0.0
  9
$PUCSORGLEFT
 10
0.0
 20
0.0
 30
0.0
  9
$PUCSORGRIGHT
 10
0.0
 20
0.0
 30
0.0
  9
$PUCSORGFRONT
 10
0.0
 20
0.0
 30
0.0
  9
$PUCSORGBACK
 10
0.0
 20
0.0
 30
0.0
  9
$USERI1
 70
0
  9
$USERI2
 70
0
  9
$USERI3
 70
0
  9
$USERI4
 70
0
  9
$USERI5
 70
0
  9
$USERR1
 40
0.0
  9
$USERR2
 40
0.0
  9
$USERR3
 40
0.0
  9
$USERR4
 40
0.0
  9
$USERR5
 40
0.0
  9
$WORLDVIEW
 70
1
  9
$SHADEDGE
 70
3
  9
$SHADEDIF
 70
70
  9
$TILEMODE
 70
1
  9
$MAXACTVP
 70
64
  9
$PINSBASE
 10
0.0
 20
0.0
 30
0.0
  9
$PLIMCHECK
 70
0
  9
$PEXTMIN
 10
1e+20
 20
1e+20
 30
1e+20
  9
$PEXTMAX
 10
-1e+20
 20
-1e+20
 30
-1e+20
  9
$PLIMMIN
 10
0.0
 20
0.0
  9
$PLIMMAX
 10
420.0
 20
297.0
  9
$UNITMODE
 70
0
  9
$VISRETAIN
 70
1
  9
$PLINEGEN
 70
0
  9
$PSLTSCALE
 70
1
  9
$TREEDEPTH
 70
3020
  9
$CMLSTYLE
  2
Standard
  9
$CMLJUST
 70
0
  9
$CMLSCALE
 40
20.0
  9
$PROXYGRAPHICS
 70
1
  9
$MEASUREMENT
 70
1
  9
$CELWEIGHT
370
-1
  9
$ENDCAPS
280
0
  9
$JOINSTYLE
280
0
  9
$LWDISPLAY
290
0
  9
$INSUNITS
 70
6
  9
$HYPERLINKBASE
  1

  9
$STYLESHEET
  1

  9
$XEDIT
290
1
  9
$CEPSNTYPE
380
0
  9
$PSTYLEMODE
290
1
  9
$FINGERPRINTGUID
  2
{2F063AA2-2086-4701-894C-AF789A8F70A4}
  9
$VERSIONGUID
  2
{F8DD5712-BA10-4DA1-8F70-3243C75C9980}
  9
$EXTNAMES
290
1
  9
$PSVPSCALE
 40
0.0
  9
$OLESTARTUP
290
0
  9
$SORTENTS
280
127
  9
$INDEXCTL
280
0
  9
$HIDETEXT
280
1
  9
$XCLIPFRAME
280
1
  9
$HALOGAP
280
0
  9
$OBSCOLOR
 70
257
  9
$OBSLTYPE
280
0
  9
$INTERSECTIONDISPLAY
280
0
  9
$INTERSECTIONCOLOR
 70
257
  9
$DIMASSOC
280
2
  9
$PROJECTNAME
  1

  9
$CAMERADISPLAY
290
0
  9
$LENSLENGTH
 40
50.0
  9
$CAMERAHEIGHT
 40
0.0
  9
$STEPSPERSEC
 40
24.0
  9
$STEPSIZE
 40
100.0
  9
$3DDWFPREC
 40
2.0
  9
$PSOLWIDTH
 40
0.005
  9
$PSOLHEIGHT
 40
0.08
  9
$LOFTANG1
 40
1.570796326795
  9
$LOFTANG2
 40
1.570796326795
  9
$LOFTMAG1
 40
0.0
  9
$LOFTMAG2
 40
0.0
  9
$LOFTPARAM
 70
7
  9
$LOFTNORMALS
280
1
  9
$LATITUDE
 40
37.795
  9
$LONGITUDE
 40
-122.394
  9
$NORTHDIRECTION
 40
0.0
  9
$TIMEZONE
 70
-8000
  9
$LIGHTGLYPHDISPLAY
280
1
  9
$TILEMODELIGHTSYNCH
280
1
  9
$CMATERIAL
347
20
  9
$SOLIDHIST
280
0
  9
$SHOWHIST
280
1
  9
$DWFFRAME
280
2
  9
$DGNFRAME
280
2
  9
$REALWORLDSCALE
290
1
  9
$INTERFERECOLOR
 62
256
  9
$CSHADOW
280
0
  9
$SHADOWPLANELOCATION
 40
0.0
  0
ENDSEC
  0
SECTION
  2
CLASSES
  0
CLASS
  1
ACDBDICTIONARYWDFLT
  2
AcDbDictionaryWithDefault
  3
ObjectDBX Classes
 90
0
 91
0
280
0
281
0
  0
CLASS
  1
SUN
  2
AcDbSun
  3
SCENEOE
 90
1153
 91
0
280
0
281
0
  0
CLASS
  1
VISUALSTYLE
  2
AcDbVisualStyle
  3
ObjectDBX Classes
 90
4095
 91
0
280
0
281
0
  0
CLASS
  1
MATERIAL
  2
AcDbMaterial
  3
ObjectDBX Classes
 90
1153
 91
0
280
0
281
0
  0
CLASS
  1
SCALE
  2
AcDbScale
  3
ObjectDBX Classes
 90
1153
 91
0
280
0
281
0
  0
CLASS
  1
TABLESTYLE
  2
AcDbTableStyle
  3
ObjectDBX Classes
 90
4095
 91
0
280
0
281
0
  0
CLASS
  1
MLEADERSTYLE
  2
AcDbMLeaderStyle
  3
ACDB_MLEADERSTYLE_CLASS
 90
4095
 91
0
280
0
281
0
  0
CLASS
  1
DICTIONARYVAR
  2
AcDbDictionaryVar
  3
ObjectDBX Classes
 90
0
 91
0
280
0
281
0
  0
CLASS
  1
CELLSTYLEMAP
  2
AcDbCellStyleMap
  3
ObjectDBX Classes
 90
1152
 91
0
280
0
281
0
  0
CLASS
  1
MENTALRAYRENDERSETTINGS
  2
AcDbMentalRayRenderSettings
  3
SCENEOE
 90
1024
 91
0
280
0
281
0
  0
CLASS
  1
ACDBDETAILVIEWSTYLE
  2
AcDbDetailViewStyle
  3
ObjectDBX Classes
 90
1025
 91
0
280
0
281
0
  0
CLASS
  1
ACDBSECTIONVIEWSTYLE
  2
AcDbSectionViewStyle
  3
ObjectDBX Classes
 90
1025
 91
0
280
0
281
0
  0
CLASS
  1
RASTERVARIABLES
  2
AcDbRasterVariables
  3
ISM
 90
0
 91
0
280
0
281
0
  0
CLASS
  1
ACDBPLACEHOLDER
  2
AcDbPlaceHolder
  3
ObjectDBX Classes
 90
0
 91
0
280
0
281
0
  0
CLASS
  1
LAYOUT
  2
AcDbLayout
  3
ObjectDBX Classes
 90
0
 91
0
280
0
281
0
  0
ENDSEC
  0
SECTION
  2
TABLES
  0
TABLE
  2
VPORT
  5
8
330
0
100
AcDbSymbolTable
 70
1
  0
VPORT
  5
23
330
8
100
AcDbSymbolTableRecord
100
AcDbViewportTableRecord
  2
*Active
 70
0
 10
0.0
 20
0.0
 11
1.0
 21
1.0
 12
0.0
 22
0.0
 13
0.0
 23
0.0
 14
0.5
 24
0.5
 15
0.5
 25
0.5
 16
0.0
 26
0.0
 36
1.0
 17
0.0
 27
0.0
 37
0.0
 40
1000.0
 41
1.34
 42
50.0
 43
0.0
 44
0.0
 50
0.0
 51
0.0
 71
0
 72
1000
 73
1
 74
3
 75
0
 76
0
 77
0
 78
0
281
0
 65
0
146
0.0
  0
ENDTAB
  0
TABLE
  2
LTYPE
  5
2
330
0
100
AcDbSymbolTable
 70
5
  0
LTYPE
  5
24
330
2
100
AcDbSymbolTableRecord
100
AcDbLinetypeTableRecord
  2
ByBlock
 70
0
  3

 72
65
 73
0
 40
0.0
  0
LTYPE
  5
25
330
2
100
AcDbSymbolTableRecord
100
AcDbLinetypeTableRecord
  2
ByLayer
 70
0
  3

 72
65
 73
0
 40
0.0
  0
LTYPE
  5
26
330
2
100
AcDbSymbolTableRecord
100
AcDbLinetypeTableRecord
  2
Continuous
 70
0
  3

 72
65
 73
0
 40
0.0
  0
LTYPE
  5
1A6
330
2
100
AcDbSymbolTableRecord
100
AcDbLinetypeTableRecord
  2
DASHEDX2
 70
0
  3
Dashed (2x) ____  ____  ____  ____  ____  ___
 72
65
 73
2
 40
38.1
 49
25.4
 74
0
 49
-12.7
 74
0
  0
LTYPE
  5
1AA
330
2
100
AcDbSymbolTableRecord
100
AcDbLinetypeTableRecord
  2
DASHED
 70
0
  3
Dashed
 72
65
 73
2
 40
0.6
 49
0.3
 74
0
 49
-0.3
 74
0
  0
ENDTAB
  0
TABLE
  2
LAYER
  5
1
330
0
100
AcDbSymbolTable
 70
8
  0
LAYER
  5
27
330
1
100
AcDbSymbolTableRecord
100
AcDbLayerTableRecord
  2
0
 70
0
 62
7
  6
Continuous
370
-3
390
13
347
21
  0
LAYER
  5
28
330
1
100
AcDbSymbolTableRecord
100
AcDbLayerTableRecord
  2
Defpoints
 70
0
 62
7
  6
Continuous
290
0
370
-3
390
13
347
21
  0
LAYER
  5
1A2
330
1
100
AcDbSymbolTableRecord
100
AcDbLayerTableRecord
  2
通风设备
 70
0
 62
3
  6
Continuous
370
-3
390
0
347
FE8
  0
LAYER
  5
1A3
330
1
100
AcDbSymbolTableRecord
100
AcDbLayerTableRecord
  2
V-10_fire damper
 70
2
 62
3
  6
Continuous
370
-3
390
0
347
FE8
  0
LAYER
  5
1A4
330
1
100
AcDbSymbolTableRecord
100
AcDbLayerTableRecord
  2
1
 70
0
 62
7
  6
Continuous
370
-3
390
0
347
FE8
  0
LAYER
  5
1A5
330
1
100
AcDbSymbolTableRecord
100
AcDbLayerTableRecord
  2
05Basic
 70
0
 62
3
  6
Continuous
370
-3
390
0
347
FE8
  0
LAYER
  5
1AB
330
1
100
AcDbSymbolTableRecord
100
AcDbLayerTableRecord
  2
AI_SEG_BBOX
 70
0
 62
4
  6
DASHED
370
-3
390
13
347
21
  0
LAYER
  5
355
330
1
100
AcDbSymbolTableRecord
100
AcDbLayerTableRecord
  2
AI_BBOX
 70
0
 62
1
  6
DASHED
370
-3
390
13
347
21
  0
ENDTAB
  0
TABLE
  2
STYLE
  5
5
330
0
100
AcDbSymbolTable
 70
4
  0
STYLE
  5
29
330
5
100
AcDbSymbolTableRecord
100
AcDbTextStyleTableRecord
  2
Standard
 70
0
 40
0.0
 41
1.0
 50
0.0
 71
0
 42
2.5
  3
txt
  4

  0
STYLE
  5
1A7
330
5
100
AcDbSymbolTableRecord
100
AcDbTextStyleTableRecord
  2
ISOCP
 70
0
 40
0.0
 41
1.0
 50
0.0
 71
0
 42
4.0
  3
isocpeur.ttf
  4

  0
STYLE
  5
1A8
330
5
100
AcDbSymbolTableRecord
100
AcDbTextStyleTableRecord
  2
ROMAND
 70
0
 40
0.0
 41
0.7
 50
0.0
 71
0
 42
30.0
  3
romand__.ttf
  4
OCHINESE.shx
  0
STYLE
  5
1A9
330
5
100
AcDbSymbolTableRecord
100
AcDbTextStyleTableRecord
  2
HZ
 70
0
 40
0.0
 41
0.7
 50
0.0
 71
0
 42
150.0
  3
txt_____.ttf
  4
HZTXT
  0
ENDTAB
  0
TABLE
  2
VIEW
  5
7
330
0
100
AcDbSymbolTable
 70
0
  0
ENDTAB
  0
TABLE
  2
UCS
  5
6
330
0
100
AcDbSymbolTable
 70
0
  0
ENDTAB
  0
TABLE
  2
APPID
  5
3
330
0
100
AcDbSymbolTable
 70
3
  0
APPID
  5
2A
330
3
100
AcDbSymbolTableRecord
100
AcDbRegAppTableRecord
  2
ACAD
 70
0
  0
APPID
  5
37A
330
3
100
AcDbSymbolTableRecord
100
AcDbRegAppTableRecord
  2
HATCHBACKGROUNDCOLOR
 70
0
  0
APPID
  5
37B
330
3
100
AcDbSymbolTableRecord
100
AcDbRegAppTableRecord
  2
EZDXF
 70
0
  0
ENDTAB
  0
TABLE
  2
DIMSTYLE
  5
4
330
0
100
AcDbSymbolTable
 70
1
100
AcDbDimStyleTable
  0
DIMSTYLE
105
2B
330
4
100
AcDbSymbolTableRecord
100
AcDbDimStyleTableRecord
  2
Standard
 70
0
 40
1.0
 41
2.5
 42
0.625
 43
3.75
 44
1.25
 45
0.0
 46
0.0
 47
0.0
 48
0.0
 49
2.5
140
2.5
141
2.5
142
0.0
143
0.03937007874
144
1.0
145
0.0
146
1.0
147
0.625
148
0.0
 69
0
 70
0
 71
0
 72
0
 73
0
 74
0
 75
0
 76
0
 77
1
 78
8
 79
3
170
0
171
3
172
1
173
0
174
0
175
0
176
0
177
0
178
0
179
2
271
2
272
2
273
2
274
3
275
0
276
0
277
2
278
44
279
0
280
0
281
0
282
0
283
0
284
8
285
0
286
0
288
0
289
3
290
0
371
-2
372
-2
  0
ENDTAB
  0
TABLE
  2
BLOCK_RECORD
  5
9
330
0
100
AcDbSymbolTable
 70
6
  0
BLOCK_RECORD
  5
17
330
9
100
AcDbSymbolTableRecord
100
AcDbBlockTableRecord
  2
*Model_Space
340
1A
 70
0
280
1
281
0
  0
BLOCK_RECORD
  5
1B
330
9
100
AcDbSymbolTableRecord
100
AcDbBlockTableRecord
  2
*Paper_Space
340
1E
 70
0
280
1
281
0
  0
BLOCK_RECORD
  5
146
330
9
100
AcDbSymbolTableRecord
100
AcDbBlockTableRecord
  2
ms1008_k01
340
0
 70
0
280
1
281
0
  0
BLOCK_RECORD
  5
155
330
9
100
AcDbSymbolTableRecord
100
AcDbBlockTableRecord
  2
ms0221
340
0
 70
0
280
1
281
0
  0
BLOCK_RECORD
  5
16C
330
9
100
AcDbSymbolTableRecord
100
AcDbBlockTableRecord
  2
ms1821
340
0
 70
0
280
1
281
0
  0
BLOCK_RECORD
  5
17E
330
9
100
AcDbSymbolTableRecord
100
AcDbBlockTableRecord
  2
防火阀vaf
340
0
 70
0
280
1
281
0
  0
ENDTAB
  0
ENDSEC
  0
SECTION
  2
BLOCKS
  0
BLOCK
  5
18
330
17
100
AcDbEntity
  8
0
100
AcDbBlockBegin
  2
*Model_Space
 70
0
 10
0.0
 20
0.0
 30
0.0
  3
*Model_Space
  1

  0
ENDBLK
  5
19
330
17
100
AcDbEntity
  8
0
100
AcDbBlockEnd
  0
BLOCK
  5
1C
330
1B
100
AcDbEntity
  8
0
100
AcDbBlockBegin
  2
*Paper_Space
 70
0
 10
0.0
 20
0.0
 30
0.0
  3
*Paper_Space
  1

  0
ENDBLK
  5
1D
330
1B
100
AcDbEntity
  8
0
100
AcDbBlockEnd
  0
BLOCK
  5
147
330
146
100
AcDbEntity
  8
0
100
AcDbBlockBegin
  2
ms1008_k01
 70
0
 10
0.0
 20
0.0
 30
0.0
  3
ms1008_k01
  1

  0
ARC
  5
149
330
146
100
AcDbEntity
  8
0
  6
ByLayer
 62
0
440
33554687
100
AcDbCircle
 10
-6.48592908576448
 20
3.76599573744841
 30
0.0
 40
7.5
100
AcDbArc
 50
329.858796805021
 51
9.470158947347
  0
ARC
  5
14A
330
146
100
AcDbEntity
  8
0
  6
ByLayer
 62
0
440
33554687
100
AcDbCircle
 10
6.50441252205123
 20
3.73398148669537
 30
0.0
 40
7.5
100
AcDbArc
 50
170.281800653975
 51
209.858796805022
  0
LINE
  5
14B
330
146
100
AcDbEntity
  8
0
  6
ByLayer
 62
0
440
33554687
100
AcDbLine
 10
3.21757568275666
 20
6.77474772414178
 30
0.0
 11
6.41545184017571
 21
-3.88483946725478
 31
0.0
  0
LINE
  5
14C
330
146
100
AcDbEntity
  8
0
  6
ByLayer
 62
0
440
33554687
100
AcDbLine
 10
-3.21757568276006
 20
6.77474772414178
 30
0.0
 11
-6.41545184017911
 21
-3.88483946725478
 31
0.0
  0
CIRCLE
  5
14D
330
146
100
AcDbEntity
  8
0
  6
ByLayer
 62
0
440
33554687
100
AcDbCircle
 10
3.0695e-12
 20
1.7053e-12
 30
0.0
 40
7.5
  0
ARC
  5
14E
330
146
100
AcDbEntity
  8
0
  6
ByLayer
 62
0
440
33554687
100
AcDbCircle
 10
-6.51920886896345
 20
3.70808787960493
 30
0.0
 40
7.5
100
AcDbArc
 50
290.79203806009
 51
330.369034211139
  0
ARC
  5
14F
330
146
100
AcDbEntity
  8
0
  6
ByLayer
 62
0
440
33554687
100
AcDbCircle
 10
0.0483061312788919
 20
-7.49984443289543
 30
0.0
 40
7.5
100
AcDbArc
 50
90.3690342111386
 51
129.980396353462
  0
ARC
  5
150
330
146
100
AcDbEntity
  8
0
  6
ByLayer
 62
0
440
33554687
100
AcDbCircle
 10
-0.0483061312822741
 20
-7.49984443289543
 30
0.0
 40
7.5
100
AcDbArc
 50
50.019603646537
 51
89.6309657888614
  0
LINE
  5
151
330
146
100
AcDbEntity
  8
0
  6
ByLayer
 62
0
440
33554687
100
AcDbLine
 10
3.85688096641775
 20
-3.30347472364861
 30
0.0
 11
4.77063490389889
 21
-1.75286198125639
 31
0.0
  0
ARC
  5
152
330
146
100
AcDbEntity
  8
0
  6
ByLayer
 62
0
440
33554687
100
AcDbCircle
 10
6.51920886896006
 20
3.70808787960493
 30
0.0
 40
7.5
100
AcDbArc
 50
209.630965788861
 51
249.20796193991
  0
LINE
  5
153
330
146
100
AcDbEntity
  8
0
  6
ByLayer
 62
0
440
33554687
100
AcDbLine
 10
-3.85688096642115
 20
-3.30347472364861
 30
0.0
 11
-4.7706349039023
 21
-1.75286198125639
 31
0.0
  0
LINE
  5
154
330
146
100
AcDbEntity
  8
0
  6
ByLayer
 62
0
440
33554687
100
AcDbLine
 10
-0.887961732811846
 20
5.00000000000307
 30
0.0
 11
0.911856628893588
 21
5.00000000000307
 31
0.0
  0
ENDBLK
  5
148
330
146
100
AcDbEntity
  8
0
100
AcDbBlockEnd
  0
BLOCK
  5
156
330
155
100
AcDbEntity
  8
0
100
AcDbBlockBegin
  2
ms0221
 70
0
 10
0.0
 20
0.0
 30
0.0
  3
ms0221
  1

  0
LINE
  5
158
330
155
100
AcDbEntity
  8
0
  6
ByLayer
 62
0
440
33554687
100
AcDbLine
 10
2.5
 20
2.5
 30
0.0
 11
2.5
 21
-2.5
 31
0.0
  0
LINE
  5
159
330
155
100
AcDbEntity
  8
0
  6
ByLayer
 62
0
440
33554687
100
AcDbLine
 10
-2.5
 20
2.5
 30
0.0
 11
-2.5
 21
-2.5
 31
0.0
  0
LINE
  5
15A
330
155
100
AcDbEntity
  8
0
  6
ByLayer
 62
0
440
33554687
100
AcDbLine
 10
-2.532579125908
 20
-0.0305060840221358
 30
0.0
 11
-1.53257912590811
 21
-0.0305060840221927
 31
0.0
  0
LINE
  5
15B
330
155
100
AcDbEntity
  8
0
  6
ByLayer
 62
0
440
33554687
100
AcDbLine
 10
1.46742087409211
 20
-0.0305060840221358
 30
0.0
 11
2.46742087409211
 21
-0.0305060840221358
 31
0.0
  0
ARC
  5
15C
330
155
100
AcDbEntity
  8
0
  6
ByLayer
 62
0
440
33554687
100
AcDbCircle
 10
-7.92879621014495
 20
-0.0305060840223301
 30
0.0
 40
9.39621708423707
100
AcDbArc
 50
1.1847e-12
 51
9.38714689066085
  0
ARC
  5
15D
330
155
100
AcDbEntity
  8
0
  6
ByLayer
 62
0
440
33554687
100
AcDbCircle
 10
-4.00537249765074
 20
0.618108273766402
 30
0.0
 40
5.41954080713183
100
AcDbArc
 50
9.38714689066228
 51
21.7576371201565
  0
ARC
  5
15E
330
155
100
AcDbEntity
  8
0
  6
ByLayer
 62
0
440
33554687
100
AcDbCircle
 10
-1.54606283076883
 20
1.59965334744165
 30
0.0
 40
2.77159164423709
100
AcDbArc
 50
21.7576371201564
 51
43.9364209715972
  0
ARC
  5
15F
330
155
100
AcDbEntity
  8
0
  6
ByLayer
 62
0
440
33554687
100
AcDbCircle
 10
-0.0325791259079417
 20
3.05796540146172
 30
0.0
 40
0.669852609109349
100
AcDbArc
 50
43.9364209715898
 51
89.9999999999953
  0
ARC
  5
160
330
155
100
AcDbEntity
  8
0
  6
ByLayer
 62
0
440
33554687
100
AcDbCircle
 10
-0.0325791259078819
 20
3.05796540146157
 30
0.0
 40
0.669852609109499
100
AcDbArc
 50
90.0000000000004
 51
136.063579028405
  0
ARC
  5
161
330
155
100
AcDbEntity
  8
0
  6
ByLayer
 62
0
440
33554687
100
AcDbCircle
 10
1.48090457895307
 20
1.59965334744157
 30
0.0
 40
2.77159164423724
100
AcDbArc
 50
136.063579028403
 51
158.242362879843
  0
ARC
  5
162
330
155
100
AcDbEntity
  8
0
  6
ByLayer
 62
0
440
33554687
100
AcDbCircle
 10
3.94021424583459
 20
0.618108273766518
 30
0.0
 40
5.41954080713154
100
AcDbArc
 50
158.242362879844
 51
170.612853109339
  0
ARC
  5
163
330
155
100
AcDbEntity
  8
0
  6
ByLayer
 62
0
440
33554687
100
AcDbCircle
 10
7.86363795832923
 20
-0.0305060840217031
 30
0.0
 40
9.39621708423711
100
AcDbArc
 50
170.612853109343
 51
180.000000000003
  0
ARC
  5
164
330
155
100
AcDbEntity
  8
0
  6
ByLayer
 62
0
440
33554687
100
AcDbCircle
 10
7.86363795832938
 20
-0.0305060840226693
 30
0.0
 40
9.39621708423727
100
AcDbArc
 50
179.999999999997
 51
189.387146890656
  0
ARC
  5
165
330
155
100
AcDbEntity
  8
0
  6
ByLayer
 62
0
440
33554687
100
AcDbCircle
 10
3.94021424583469
 20
-0.679120441810776
 30
0.0
 40
5.41954080713166
100
AcDbArc
 50
189.387146890662
 51
201.757637120157
  0
ARC
  5
166
330
155
100
AcDbEntity
  8
0
  6
ByLayer
 62
0
440
33554687
100
AcDbCircle
 10
1.48090457895299
 20
-1.66066551548607
 30
0.0
 40
2.7715916442371
100
AcDbArc
 50
201.757637120154
 51
223.936420971596
  0
ARC
  5
167
330
155
100
AcDbEntity
  8
0
  6
ByLayer
 62
0
440
33554687
100
AcDbCircle
 10
-0.0325791259079367
 20
-3.1189775695059
 30
0.0
 40
0.669852609109499
100
AcDbArc
 50
223.936420971602
 51
270.000000000004
  0
ARC
  5
168
330
155
100
AcDbEntity
  8
0
  6
ByLayer
 62
0
440
33554687
100
AcDbCircle
 10
-0.0325791259079417
 20
-3.11897756950605
 30
0.0
 40
0.669852609109349
100
AcDbArc
 50
270.000000000005
 51
316.06357902841
  0
ARC
  5
169
330
155
100
AcDbEntity
  8
0
  6
ByLayer
 62
0
440
33554687
100
AcDbCircle
 10
-1.54606283076882
 20
-1.66066551548598
 30
0.0
 40
2.77159164423708
100
AcDbArc
 50
316.063579028403
 51
338.242362879844
  0
ARC
  5
16A
330
155
100
AcDbEntity
  8
0
  6
ByLayer
 62
0
440
33554687
100
AcDbCircle
 10
-4.00537249765001
 20
-0.679120441811385
 30
0.0
 40
5.4195408071309
100
AcDbArc
 50
338.242362879847
 51
350.612853109342
  0
ARC
  5
16B
330
155
100
AcDbEntity
  8
0
  6
ByLayer
 62
0
440
33554687
100
AcDbCircle
 10
-7.92879621014367
 20
-0.0305060840215301
 30
0.0
 40
9.39621708423578
100
AcDbArc
 50
350.612853109334
 51
359.999999999996
  0
ENDBLK
  5
157
330
155
100
AcDbEntity
  8
0
100
AcDbBlockEnd
  0
BLOCK
  5
16D
330
16C
100
AcDbEntity
  8
0
100
AcDbBlockBegin
  2
ms1821
 70
0
 10
0.0
 20
0.0
 30
0.0
  3
ms1821
  1

  0
LINE
  5
16F
330
16C
100
AcDbEntity
  8
0
  6
ByLayer
 62
0
440
33554687
100
AcDbLine
 10
-5.0
 20
5.0
 30
0.0
 11
5.0
 21
-5.0
 31
0.0
  0
LINE
  5
170
330
16C
100
AcDbEntity
  8
0
  6
ByLayer
 62
0
440
33554687
100
AcDbLine
 10
5.0
 20
-5.0
 30
0.0
 11
-5.0
 21
-5.0
 31
0.0
  0
LINE
  5
171
330
16C
100
AcDbEntity
  8
0
  6
ByLayer
 62
0
440
33554687
100
AcDbLine
 10
-5.0
 20
5.0
 30
0.0
 11
5.0
 21
5.0
 31
0.0
  0
LINE
  5
172
330
16C
100
AcDbEntity
  8
0
  6
ByLayer
 62
0
440
33554687
100
AcDbLine
 10
-5.0
 20
-5.0
 30
0.0
 11
-5.0
 21
5.0
 31
0.0
  0
LINE
  5
173
330
16C
100
AcDbEntity
  8
0
  6
ByLayer
 62
0
440
33554687
100
AcDbLine
 10
5.0
 20
5.0
 30
0.0
 11
5.0
 21
-5.0
 31
0.0
  0
CIRCLE
  5
174
330
16C
100
AcDbEntity
  8
0
  6
ByLayer
 62
0
440
33554687
100
AcDbCircle
 10
-5.0
 20
5.0
 30
0.0
 40
1.25
  0
CIRCLE
  5
175
330
16C
100
AcDbEntity
  8
0
  6
ByLayer
 62
0
440
33554687
100
AcDbCircle
 10
-5.0
 20
5.0
 30
0.0
 40
1.125
  0
CIRCLE
  5
176
330
16C
100
AcDbEntity
  8
0
  6
ByLayer
 62
0
440
33554687
100
AcDbCircle
 10
-5.0
 20
5.0
 30
0.0
 40
0.875
  0
CIRCLE
  5
177
330
16C
100
AcDbEntity
  8
0
  6
ByLayer
 62
0
440
33554687
100
AcDbCircle
 10
-5.0
 20
5.0
 30
0.0
 40
0.625
  0
CIRCLE
  5
178
330
16C
100
AcDbEntity
  8
0
  6
ByLayer
 62
0
440
33554687
100
AcDbCircle
 10
-5.0
 20
5.0
 30
0.0
 40
0.375
  0
CIRCLE
  5
179
330
16C
100
AcDbEntity
  8
0
  6
ByLayer
 62
0
440
33554687
100
AcDbCircle
 10
-5.0
 20
5.0
 30
0.0
 40
0.125
  0
CIRCLE
  5
17A
330
16C
100
AcDbEntity
  8
0
  6
ByLayer
 62
0
440
33554687
100
AcDbCircle
 10
-5.0
 20
5.0
 30
0.0
 40
0.75
  0
CIRCLE
  5
17B
330
16C
100
AcDbEntity
  8
0
  6
ByLayer
 62
0
440
33554687
100
AcDbCircle
 10
-5.0
 20
5.0
 30
0.0
 40
0.5
  0
CIRCLE
  5
17C
330
16C
100
AcDbEntity
  8
0
  6
ByLayer
 62
0
440
33554687
100
AcDbCircle
 10
-5.0
 20
5.0
 30
0.0
 40
0.25
  0
CIRCLE
  5
17D
330
16C
100
AcDbEntity
  8
0
  6
ByLayer
 62
0
440
33554687
100
AcDbCircle
 10
-5.0
 20
5.0
 30
0.0
 40
1.0
  0
ENDBLK
  5
16E
330
16C
100
AcDbEntity
  8
0
100
AcDbBlockEnd
  0
BLOCK
  5
17F
330
17E
100
AcDbEntity
  8
0
100
AcDbBlockBegin
  2
防火阀vaf
 70
0
 10
0.0
 20
0.0
 30
0.0
  3
防火阀vaf
  1

  0
LINE
  5
181
330
17E
100
AcDbEntity
  8
0
  6
ByLayer
 62
3
100
AcDbLine
 10
1660.47740321393
 20
1010.38542173579
 30
0.0
 11
1663.9774038796
 21
1012.13542040444
 31
0.0
  0
LINE
  5
182
330
17E
100
AcDbEntity
  8
0
  6
ByLayer
 62
3
100
AcDbLine
 10
1653.57055495321
 20
1000.866922432
 30
0.0
 11
1663.57055495321
 21
1000.86691862816
 31
0.0
  0
LINE
  5
183
330
17E
100
AcDbEntity
  8
0
  6
ByLayer
 62
3
100
AcDbLine
 10
1663.57055114936
 20
990.866918628157
 30
0.0
 11
1653.57055114936
 21
990.866922432004
 31
0.0
  0
LINE
  5
184
330
17E
100
AcDbEntity
  8
0
  6
ByLayer
 62
3
100
AcDbLine
 10
1653.57055114936
 20
990.866922432004
 30
0.0
 11
1663.57055495321
 21
1000.86691862816
 31
0.0
  0
LINE
  5
185
330
17E
100
AcDbEntity
  8
0
  6
ByLayer
 62
3
100
AcDbLine
 10
1654.82055495321
 20
1000.86692195652
 30
0.0
 11
1654.82055685514
 21
1005.86692195652
 31
0.0
  0
LINE
  5
186
330
17E
100
AcDbEntity
  8
0
  6
ByLayer
 62
3
100
AcDbLine
 10
1653.57055114936
 20
990.866922432004
 30
0.0
 11
1653.57055495321
 21
1000.866922432
 31
0.0
  0
LINE
  5
187
330
17E
100
AcDbEntity
  8
0
  6
ByLayer
 62
3
100
AcDbLine
 10
1652.32055685514
 20
1005.86692290748
 30
0.0
 11
1657.32055685514
 21
1005.86692100556
 31
0.0
  0
LINE
  5
188
330
17E
100
AcDbEntity
  8
0
  6
ByLayer
 62
3
100
AcDbLine
 10
1662.32055495321
 20
1000.86691910364
 30
0.0
 11
1662.38411245007
 21
1003.66003654045
 31
0.0
  0
LINE
  5
189
330
17E
100
AcDbEntity
  8
0
  6
ByLayer
 62
3
100
AcDbLine
 10
1663.57055495321
 20
1000.86691862816
 30
0.0
 11
1663.57055114936
 21
990.866918628157
 31
0.0
  0
CIRCLE
  5
18A
330
17E
100
AcDbEntity
  8
0
  6
ByLayer
 62
3
100
AcDbCircle
 10
1662.22740121691
 20
1005.40300572819
 30
0.0
 40
1.75
  0
TEXT
  5
18B
330
17E
100
AcDbEntity
  8
0
  6
ByLayer
 62
3
100
AcDbText
 10
1661.32740083652
 20
1004.40300607053
 30
0.0
 40
2.0
  1
M
 50
359.999978205557
  7
ISOCP
 72
4
 11
1662.22740121691
 21
1005.40300572819
 31
0.0
100
AcDbText
  0
LINE
  5
18C
330
17E
100
AcDbEntity
  8
0
  6
ByLayer
 62
3
100
AcDbLine
 10
1663.97740288109
 20
1009.51042040444
 30
0.0
 11
1660.47740321393
 21
1010.38542173579
 31
0.0
  0
LINE
  5
18D
330
17E
100
AcDbEntity
  8
0
  6
ByLayer
 62
3
100
AcDbLine
 10
1662.22740121691
 20
1007.15300572819
 30
0.0
 11
1662.2274017808
 21
1008.63542068639
 31
0.0
  0
LINE
  5
18E
330
17E
100
AcDbEntity
  8
0
  6
ByLayer
 62
3
100
AcDbLine
 10
1662.2274017808
 20
1008.63542068639
 30
0.0
 11
1663.97740288109
 21
1009.51042040444
 31
0.0
  0
LINE
  5
18F
330
17E
100
AcDbEntity
  8
0
  6
ByLayer
 62
3
100
AcDbLine
 10
1660.47740421244
 20
1013.01042173579
 30
0.0
 11
1662.22740454527
 21
1013.88542107012
 31
0.0
  0
LINE
  5
190
330
17E
100
AcDbEntity
  8
0
  6
ByLayer
 62
3
100
AcDbLine
 10
1663.9774038796
 20
1012.13542040444
 30
0.0
 11
1660.47740421244
 21
1013.01042173579
 31
0.0
  0
CIRCLE
  5
191
330
17E
100
AcDbEntity
  8
0
  6
ByLayer
 62
3
100
AcDbCircle
 10
1658.57055305129
 20
995.86692053008
 30
0.0
 40
1.25
  0
CIRCLE
  5
192
330
17E
100
AcDbEntity
  8
0
  6
ByLayer
 62
3
100
AcDbCircle
 10
1658.57055305129
 20
995.86692053008
 30
0.0
 40
1.125
  0
CIRCLE
  5
193
330
17E
100
AcDbEntity
  8
0
  6
ByLayer
 62
3
100
AcDbCircle
 10
1658.57055305129
 20
995.86692053008
 30
0.0
 40
0.875
  0
CIRCLE
  5
194
330
17E
100
AcDbEntity
  8
0
  6
ByLayer
 62
3
100
AcDbCircle
 10
1658.57055305129
 20
995.86692053008
 30
0.0
 40
0.625
  0
CIRCLE
  5
195
330
17E
100
AcDbEntity
  8
0
  6
ByLayer
 62
3
100
AcDbCircle
 10
1658.57055305129
 20
995.86692053008
 30
0.0
 40
0.375
  0
CIRCLE
  5
196
330
17E
100
AcDbEntity
  8
0
  6
ByLayer
 62
3
100
AcDbCircle
 10
1658.57055305129
 20
995.86692053008
 30
0.0
 40
0.125
  0
CIRCLE
  5
197
330
17E
100
AcDbEntity
  8
0
  6
ByLayer
 62
3
100
AcDbCircle
 10
1658.57055305129
 20
995.86692053008
 30
0.0
 40
0.75
  0
CIRCLE
  5
198
330
17E
100
AcDbEntity
  8
0
  6
ByLayer
 62
3
100
AcDbCircle
 10
1658.57055305129
 20
995.86692053008
 30
0.0
 40
0.5
  0
CIRCLE
  5
199
330
17E
100
AcDbEntity
  8
0
  6
ByLayer
 62
3
100
AcDbCircle
 10
1658.57055305129
 20
995.86692053008
 30
0.0
 40
0.25
  0
CIRCLE
  5
19A
330
17E
100
AcDbEntity
  8
0
  6
ByLayer
 62
3
100
AcDbCircle
 10
1658.57055305129
 20
995.86692053008
 30
0.0
 40
1.0
  0
TEXT
  5
19B
330
17E
100
AcDbEntity
  8
0
  6
ByLayer
 62
3
100
AcDbText
 10
1660.35601756278
 20
992.040374908685
 30
0.0
 40
2.46
  1
F
  7
HZ
 41
0.8
 11
0.0
 21
0.0
 31
0.0
100
AcDbText
  0
LINE
  5
19C
330
17E
100
AcDbEntity
  8
0
  6
Continuous
 62
3
100
AcDbLine
 10
1662.32055545653
 20
1002.1901037964
 30
0.0
 11
1667.02602768677
 21
1002.1901037964
 31
0.0
  0
LINE
  5
19D
330
17E
100
AcDbEntity
  8
0
  6
Continuous
 62
3
100
AcDbLine
 10
1667.02602768677
 20
1002.1901037964
 30
0.0
 11
1667.02602768677
 21
1006.0206033626
 31
0.0
  0
TEXT
  5
19E
330
17E
100
AcDbEntity
  8
0
  6
ByLayer
 62
3
100
AcDbText
 10
1664.83903807318
 20
1007.62662354985
 30
0.0
 40
2.0
  1
3
  7
ROMAND
 72
4
 11
1665.7792201278
 21
1008.62662354985
 31
0.0
100
AcDbText
  0
LINE
  5
19F
330
17E
100
AcDbEntity
  8
0
  6
ByLayer
 62
3
100
AcDbLine
 10
1667.76870800367
 20
1010.50629322357
 30
0.0
 11
1666.30933445507
 21
1006.80752870182
 31
0.0
  0
TEXT
  5
1A0
330
17E
100
AcDbEntity
  8
0
  6
ByLayer
 62
3
100
AcDbText
 10
1667.18788026205
 20
1007.60423215118
 30
0.0
 40
2.0
  1
5
  7
ROMAND
 72
4
 11
1668.12806231666
 21
1008.60423215118
 31
0.0
100
AcDbText
  0
CIRCLE
  5
1A1
330
17E
100
AcDbEntity
  8
0
  6
Continuous
 62
3
100
AcDbCircle
 10
1667.02602768677
 20
1008.52611579725
 30
0.0
 40
2.50551243464705
  0
ENDBLK
  5
180
330
17E
100
AcDbEntity
  8
0
100
AcDbBlockEnd
  0
ENDSEC
  0
SECTION
  2
ENTITIES
  0
LINE
  5
2F
330
17
100
AcDbEntity
  8
通风设备
  6
ByLayer
 62
3
100
AcDbLine
 10
220.605084328242
 20
255.043528367485
 30
0.0
 11
223.331750994912
 21
255.043528367485
 31
0.0
  0
LINE
  5
30
330
17
100
AcDbEntity
  8
通风设备
  6
ByLayer
 62
3
100
AcDbLine
 10
220.605084328242
 20
256.710195034152
 30
0.0
 11
223.331750994912
 21
256.710195034152
 31
0.0
  0
LINE
  5
31
330
17
100
AcDbEntity
  8
通风设备
  6
ByLayer
 62
3
100
AcDbLine
 10
220.605084328242
 20
258.376861700819
 30
0.0
 11
223.331750994912
 21
258.376861700819
 31
0.0
  0
LINE
  5
32
330
17
100
AcDbEntity
  8
通风设备
  6
ByLayer
 62
3
100
AcDbLine
 10
223.842742238583
 20
250.116861700819
 30
0.0
 11
226.722742238584
 21
250.116861700819
 31
0.0
  0
LINE
  5
33
330
17
100
AcDbEntity
  8
通风设备
  6
ByLayer
 62
3
100
AcDbLine
 10
226.722742238584
 20
261.636861700819
 30
0.0
 11
223.842742238583
 21
261.636861700819
 31
0.0
  0
LINE
  5
34
330
17
100
AcDbEntity
  8
通风设备
  6
ByLayer
 62
3
100
AcDbLine
 10
224.449408905249
 20
254.210195034152
 30
0.0
 11
226.116075571917
 21
252.543528367485
 31
0.0
  0
LINE
  5
35
330
17
100
AcDbEntity
  8
通风设备
  6
ByLayer
 62
3
100
AcDbLine
 10
226.722742238584
 20
250.116861700819
 30
0.0
 11
226.722742238584
 21
261.636861700819
 31
0.0
  0
LINE
  5
36
330
17
100
AcDbEntity
  8
通风设备
  6
ByLayer
 62
3
100
AcDbLine
 10
224.449408905249
 20
255.876861700819
 30
0.0
 11
226.116075571917
 21
254.210195034152
 31
0.0
  0
LINE
  5
37
330
17
100
AcDbEntity
  8
通风设备
  6
ByLayer
 62
3
100
AcDbLine
 10
224.449408905249
 20
257.543528367485
 30
0.0
 11
226.116075571917
 21
255.876861700819
 31
0.0
  0
LINE
  5
38
330
17
100
AcDbEntity
  8
通风设备
  6
ByLayer
 62
3
100
AcDbLine
 10
224.449408905249
 20
259.210195034152
 30
0.0
 11
226.116075571917
 21
257.543528367485
 31
0.0
  0
LINE
  5
39
330
17
100
AcDbEntity
  8
通风设备
  6
ByLayer
 62
3
100
AcDbLine
 10
222.498417661576
 20
258.710195034152
 30
0.0
 11
223.331750994912
 21
258.376861700819
 31
0.0
  0
LINE
  5
3A
330
17
100
AcDbEntity
  8
通风设备
  6
ByLayer
 62
3
100
AcDbLine
 10
222.498417661576
 20
258.376861700819
 30
0.0
 11
222.498417661576
 21
258.710195034152
 31
0.0
  0
LINE
  5
3B
330
17
100
AcDbEntity
  8
通风设备
  6
ByLayer
 62
3
100
AcDbLine
 10
222.498417661576
 20
254.710195034152
 30
0.0
 11
223.331750994912
 21
255.043528367485
 31
0.0
  0
LINE
  5
3C
330
17
100
AcDbEntity
  8
通风设备
  6
ByLayer
 62
3
100
AcDbLine
 10
222.498417661576
 20
255.043528367485
 30
0.0
 11
222.498417661576
 21
254.710195034152
 31
0.0
  0
LINE
  5
3D
330
17
100
AcDbEntity
  8
通风设备
  6
ByLayer
 62
3
100
AcDbLine
 10
222.498417661576
 20
256.710195034152
 30
0.0
 11
222.498417661576
 21
257.043528367485
 31
0.0
  0
LINE
  5
3E
330
17
100
AcDbEntity
  8
通风设备
  6
ByLayer
 62
3
100
AcDbLine
 10
222.498417661576
 20
257.043528367485
 30
0.0
 11
223.331750994912
 21
256.710195034152
 31
0.0
  0
LINE
  5
3F
330
17
100
AcDbEntity
  8
通风设备
  6
ByLayer
 62
3
100
AcDbLine
 10
222.498417661576
 20
258.043528367485
 30
0.0
 11
223.331750994912
 21
258.376861700819
 31
0.0
  0
LINE
  5
40
330
17
100
AcDbEntity
  8
通风设备
  6
ByLayer
 62
3
100
AcDbLine
 10
222.498417661576
 20
258.376861700819
 30
0.0
 11
222.498417661576
 21
258.043528367485
 31
0.0
  0
POINT
  5
41
330
17
100
AcDbEntity
  8
通风设备
  6
ByLayer
 62
3
100
AcDbPoint
 10
223.331750994912
 20
258.376861700819
 30
0.0
  0
LINE
  5
42
330
17
100
AcDbEntity
  8
通风设备
  6
ByLayer
 62
3
100
AcDbLine
 10
222.498417661576
 20
256.376861700819
 30
0.0
 11
223.331750994912
 21
256.710195034152
 31
0.0
  0
LINE
  5
43
330
17
100
AcDbEntity
  8
通风设备
  6
ByLayer
 62
3
100
AcDbLine
 10
222.498417661576
 20
255.376861700819
 30
0.0
 11
223.331750994912
 21
255.043528367485
 31
0.0
  0
LINE
  5
44
330
17
100
AcDbEntity
  8
通风设备
  6
ByLayer
 62
3
100
AcDbLine
 10
222.498417661576
 20
256.710195034152
 30
0.0
 11
222.498417661576
 21
256.376861700819
 31
0.0
  0
LINE
  5
45
330
17
100
AcDbEntity
  8
通风设备
  6
ByLayer
 62
3
100
AcDbLine
 10
222.498417661576
 20
255.043528367485
 30
0.0
 11
222.498417661576
 21
255.376861700819
 31
0.0
  0
POINT
  5
46
330
17
100
AcDbEntity
  8
通风设备
  6
ByLayer
 62
3
100
AcDbPoint
 10
223.331750994912
 20
256.710195034152
 30
0.0
  0
POINT
  5
47
330
17
100
AcDbEntity
  8
通风设备
  6
ByLayer
 62
3
100
AcDbPoint
 10
223.331750994912
 20
255.043528367485
 30
0.0
  0
LINE
  5
48
330
17
100
AcDbEntity
  8
通风设备
  6
ByLayer
 62
3
100
AcDbLine
 10
223.842742238583
 20
261.636861700819
 30
0.0
 11
223.842742238583
 21
250.116861700819
 31
0.0
  0
LINE
  5
49
330
17
100
AcDbEntity
  8
通风设备
  6
ByLayer
 62
3
100
AcDbLine
 10
224.449408905249
 20
260.876861700819
 30
0.0
 11
226.116075571917
 21
259.210195034152
 31
0.0
  0
LINE
  5
4A
330
17
100
AcDbEntity
  8
通风设备
  6
ByLayer
 62
3
100
AcDbLine
 10
224.449408905249
 20
252.543528367485
 30
0.0
 11
226.116075571917
 21
250.876861700819
 31
0.0
  0
LINE
  5
4B
330
17
100
AcDbEntity
  8
通风设备
  6
ByLayer
 62
3
100
AcDbLine
 10
220.605084328242
 20
260.043528367485
 30
0.0
 11
223.331750994912
 21
260.043528367485
 31
0.0
  0
LINE
  5
4C
330
17
100
AcDbEntity
  8
通风设备
  6
ByLayer
 62
3
100
AcDbLine
 10
222.498417661576
 20
260.043528367485
 30
0.0
 11
222.498417661576
 21
260.376861700819
 31
0.0
  0
LINE
  5
4D
330
17
100
AcDbEntity
  8
通风设备
  6
ByLayer
 62
3
100
AcDbLine
 10
222.498417661576
 20
260.376861700819
 30
0.0
 11
223.331750994912
 21
260.043528367485
 31
0.0
  0
LINE
  5
4E
330
17
100
AcDbEntity
  8
通风设备
  6
ByLayer
 62
3
100
AcDbLine
 10
222.498417661576
 20
259.710195034152
 30
0.0
 11
223.331750994912
 21
260.043528367485
 31
0.0
  0
LINE
  5
4F
330
17
100
AcDbEntity
  8
通风设备
  6
ByLayer
 62
3
100
AcDbLine
 10
222.498417661576
 20
260.043528367485
 30
0.0
 11
222.498417661576
 21
259.710195034152
 31
0.0
  0
POINT
  5
50
330
17
100
AcDbEntity
  8
通风设备
  6
ByLayer
 62
3
100
AcDbPoint
 10
223.331750994912
 20
260.043528367485
 30
0.0
  0
LINE
  5
51
330
17
100
AcDbEntity
  8
通风设备
  6
ByLayer
 62
3
100
AcDbLine
 10
220.605084328242
 20
253.376861700819
 30
0.0
 11
223.331750994912
 21
253.376861700819
 31
0.0
  0
LINE
  5
52
330
17
100
AcDbEntity
  8
通风设备
  6
ByLayer
 62
3
100
AcDbLine
 10
222.498417661576
 20
253.376861700819
 30
0.0
 11
222.498417661576
 21
253.710195034152
 31
0.0
  0
LINE
  5
53
330
17
100
AcDbEntity
  8
通风设备
  6
ByLayer
 62
3
100
AcDbLine
 10
222.498417661576
 20
253.710195034152
 30
0.0
 11
223.331750994912
 21
253.376861700819
 31
0.0
  0
LINE
  5
54
330
17
100
AcDbEntity
  8
通风设备
  6
ByLayer
 62
3
100
AcDbLine
 10
222.498417661576
 20
253.043528367485
 30
0.0
 11
223.331750994912
 21
253.376861700819
 31
0.0
  0
LINE
  5
55
330
17
100
AcDbEntity
  8
通风设备
  6
ByLayer
 62
3
100
AcDbLine
 10
222.498417661576
 20
253.376861700819
 30
0.0
 11
222.498417661576
 21
253.043528367485
 31
0.0
  0
POINT
  5
56
330
17
100
AcDbEntity
  8
通风设备
  6
ByLayer
 62
3
100
AcDbPoint
 10
223.331750994912
 20
253.376861700819
 30
0.0
  0
LINE
  5
57
330
17
100
AcDbEntity
  8
通风设备
  6
ByLayer
 62
3
100
AcDbLine
 10
220.605084328242
 20
251.710195034152
 30
0.0
 11
223.331750994912
 21
251.710195034152
 31
0.0
  0
LINE
  5
58
330
17
100
AcDbEntity
  8
通风设备
  6
ByLayer
 62
3
100
AcDbLine
 10
222.498417661576
 20
251.710195034152
 30
0.0
 11
222.498417661576
 21
252.043528367485
 31
0.0
  0
LINE
  5
59
330
17
100
AcDbEntity
  8
通风设备
  6
ByLayer
 62
3
100
AcDbLine
 10
222.498417661576
 20
252.043528367485
 30
0.0
 11
223.331750994912
 21
251.710195034152
 31
0.0
  0
LINE
  5
5A
330
17
100
AcDbEntity
  8
通风设备
  6
ByLayer
 62
3
100
AcDbLine
 10
222.498417661576
 20
251.376861700819
 30
0.0
 11
223.331750994912
 21
251.710195034152
 31
0.0
  0
LINE
  5
5B
330
17
100
AcDbEntity
  8
通风设备
  6
ByLayer
 62
3
100
AcDbLine
 10
222.498417661576
 20
251.710195034152
 30
0.0
 11
222.498417661576
 21
251.376861700819
 31
0.0
  0
POINT
  5
5C
330
17
100
AcDbEntity
  8
通风设备
  6
ByLayer
 62
3
100
AcDbPoint
 10
223.331750994912
 20
251.710195034152
 30
0.0
  0
LINE
  5
5D
330
17
100
AcDbEntity
  8
通风设备
  6
ByLayer
 62
3
100
AcDbLine
 10
587.988700450667
 20
191.323079546935
 30
0.0
 11
585.262033784
 21
191.323079546935
 31
0.0
  0
LINE
  5
5E
330
17
100
AcDbEntity
  8
通风设备
  6
ByLayer
 62
3
100
AcDbLine
 10
587.988700450667
 20
189.656412880269
 30
0.0
 11
585.262033784
 21
189.656412880269
 31
0.0
  0
LINE
  5
5F
330
17
100
AcDbEntity
  8
通风设备
  6
ByLayer
 62
3
100
AcDbLine
 10
587.988700450667
 20
187.989746213602
 30
0.0
 11
585.262033784
 21
187.989746213602
 31
0.0
  0
LINE
  5
60
330
17
100
AcDbEntity
  8
通风设备
  6
ByLayer
 62
3
100
AcDbLine
 10
584.751042540327
 20
196.249746213602
 30
0.0
 11
581.871042540327
 21
196.249746213602
 31
0.0
  0
LINE
  5
61
330
17
100
AcDbEntity
  8
通风设备
  6
ByLayer
 62
3
100
AcDbLine
 10
581.871042540327
 20
184.729746213601
 30
0.0
 11
584.751042540327
 21
184.729746213601
 31
0.0
  0
LINE
  5
62
330
17
100
AcDbEntity
  8
通风设备
  6
ByLayer
 62
3
100
AcDbLine
 10
584.14437587366
 20
192.156412880269
 30
0.0
 11
582.477709206994
 21
193.823079546935
 31
0.0
  0
LINE
  5
63
330
17
100
AcDbEntity
  8
通风设备
  6
ByLayer
 62
3
100
AcDbLine
 10
581.871042540327
 20
196.249746213602
 30
0.0
 11
581.871042540327
 21
184.729746213601
 31
0.0
  0
LINE
  5
64
330
17
100
AcDbEntity
  8
通风设备
  6
ByLayer
 62
3
100
AcDbLine
 10
584.14437587366
 20
190.489746213602
 30
0.0
 11
582.477709206994
 21
192.156412880269
 31
0.0
  0
LINE
  5
65
330
17
100
AcDbEntity
  8
通风设备
  6
ByLayer
 62
3
100
AcDbLine
 10
584.14437587366
 20
188.823079546935
 30
0.0
 11
582.477709206994
 21
190.489746213602
 31
0.0
  0
LINE
  5
66
330
17
100
AcDbEntity
  8
通风设备
  6
ByLayer
 62
3
100
AcDbLine
 10
584.14437587366
 20
187.156412880269
 30
0.0
 11
582.477709206994
 21
188.823079546935
 31
0.0
  0
LINE
  5
67
330
17
100
AcDbEntity
  8
通风设备
  6
ByLayer
 62
3
100
AcDbLine
 10
586.095367117333
 20
187.656412880269
 30
0.0
 11
585.262033784
 21
187.989746213602
 31
0.0
  0
LINE
  5
68
330
17
100
AcDbEntity
  8
通风设备
  6
ByLayer
 62
3
100
AcDbLine
 10
586.095367117333
 20
187.989746213602
 30
0.0
 11
586.095367117333
 21
187.656412880269
 31
0.0
  0
LINE
  5
69
330
17
100
AcDbEntity
  8
通风设备
  6
ByLayer
 62
3
100
AcDbLine
 10
586.095367117333
 20
191.656412880269
 30
0.0
 11
585.262033784
 21
191.323079546935
 31
0.0
  0
LINE
  5
6A
330
17
100
AcDbEntity
  8
通风设备
  6
ByLayer
 62
3
100
AcDbLine
 10
586.095367117333
 20
191.323079546935
 30
0.0
 11
586.095367117333
 21
191.656412880269
 31
0.0
  0
LINE
  5
6B
330
17
100
AcDbEntity
  8
通风设备
  6
ByLayer
 62
3
100
AcDbLine
 10
586.095367117333
 20
189.656412880269
 30
0.0
 11
586.095367117333
 21
189.323079546935
 31
0.0
  0
LINE
  5
6C
330
17
100
AcDbEntity
  8
通风设备
  6
ByLayer
 62
3
100
AcDbLine
 10
586.095367117333
 20
189.323079546935
 30
0.0
 11
585.262033784
 21
189.656412880269
 31
0.0
  0
LINE
  5
6D
330
17
100
AcDbEntity
  8
通风设备
  6
ByLayer
 62
3
100
AcDbLine
 10
586.095367117333
 20
188.323079546935
 30
0.0
 11
585.262033784
 21
187.989746213602
 31
0.0
  0
LINE
  5
6E
330
17
100
AcDbEntity
  8
通风设备
  6
ByLayer
 62
3
100
AcDbLine
 10
586.095367117333
 20
187.989746213602
 30
0.0
 11
586.095367117333
 21
188.323079546935
 31
0.0
  0
POINT
  5
6F
330
17
100
AcDbEntity
  8
通风设备
  6
ByLayer
 62
3
100
AcDbPoint
 10
585.262033784
 20
187.989746213602
 30
0.0
 50
180.0
  0
LINE
  5
70
330
17
100
AcDbEntity
  8
通风设备
  6
ByLayer
 62
3
100
AcDbLine
 10
586.095367117333
 20
189.989746213602
 30
0.0
 11
585.262033784
 21
189.656412880269
 31
0.0
  0
LINE
  5
71
330
17
100
AcDbEntity
  8
通风设备
  6
ByLayer
 62
3
100
AcDbLine
 10
586.095367117333
 20
190.989746213602
 30
0.0
 11
585.262033784
 21
191.323079546935
 31
0.0
  0
LINE
  5
72
330
17
100
AcDbEntity
  8
通风设备
  6
ByLayer
 62
3
100
AcDbLine
 10
586.095367117333
 20
189.656412880269
 30
0.0
 11
586.095367117333
 21
189.989746213602
 31
0.0
  0
LINE
  5
73
330
17
100
AcDbEntity
  8
通风设备
  6
ByLayer
 62
3
100
AcDbLine
 10
586.095367117333
 20
191.323079546935
 30
0.0
 11
586.095367117333
 21
190.989746213602
 31
0.0
  0
POINT
  5
74
330
17
100
AcDbEntity
  8
通风设备
  6
ByLayer
 62
3
100
AcDbPoint
 10
585.262033784
 20
189.656412880269
 30
0.0
 50
180.0
  0
POINT
  5
75
330
17
100
AcDbEntity
  8
通风设备
  6
ByLayer
 62
3
100
AcDbPoint
 10
585.262033784
 20
191.323079546935
 30
0.0
 50
180.0
  0
LINE
  5
76
330
17
100
AcDbEntity
  8
通风设备
  6
ByLayer
 62
3
100
AcDbLine
 10
584.751042540327
 20
184.729746213601
 30
0.0
 11
584.751042540327
 21
196.249746213602
 31
0.0
  0
LINE
  5
77
330
17
100
AcDbEntity
  8
通风设备
  6
ByLayer
 62
3
100
AcDbLine
 10
584.14437587366
 20
185.489746213602
 30
0.0
 11
582.477709206994
 21
187.156412880269
 31
0.0
  0
LINE
  5
78
330
17
100
AcDbEntity
  8
通风设备
  6
ByLayer
 62
3
100
AcDbLine
 10
584.14437587366
 20
193.823079546935
 30
0.0
 11
582.477709206994
 21
195.489746213602
 31
0.0
  0
LINE
  5
79
330
17
100
AcDbEntity
  8
通风设备
  6
ByLayer
 62
3
100
AcDbLine
 10
587.988700450667
 20
186.323079546935
 30
0.0
 11
585.262033784
 21
186.323079546935
 31
0.0
  0
LINE
  5
7A
330
17
100
AcDbEntity
  8
通风设备
  6
ByLayer
 62
3
100
AcDbLine
 10
586.095367117333
 20
186.323079546935
 30
0.0
 11
586.095367117333
 21
185.989746213602
 31
0.0
  0
LINE
  5
7B
330
17
100
AcDbEntity
  8
通风设备
  6
ByLayer
 62
3
100
AcDbLine
 10
586.095367117333
 20
185.989746213602
 30
0.0
 11
585.262033784
 21
186.323079546935
 31
0.0
  0
LINE
  5
7C
330
17
100
AcDbEntity
  8
通风设备
  6
ByLayer
 62
3
100
AcDbLine
 10
586.095367117333
 20
186.656412880269
 30
0.0
 11
585.262033784
 21
186.323079546935
 31
0.0
  0
LINE
  5
7D
330
17
100
AcDbEntity
  8
通风设备
  6
ByLayer
 62
3
100
AcDbLine
 10
586.095367117333
 20
186.323079546935
 30
0.0
 11
586.095367117333
 21
186.656412880269
 31
0.0
  0
POINT
  5
7E
330
17
100
AcDbEntity
  8
通风设备
  6
ByLayer
 62
3
100
AcDbPoint
 10
585.262033784
 20
186.323079546935
 30
0.0
 50
180.0
  0
LINE
  5
7F
330
17
100
AcDbEntity
  8
通风设备
  6
ByLayer
 62
3
100
AcDbLine
 10
587.988700450667
 20
192.989746213602
 30
0.0
 11
585.262033784
 21
192.989746213602
 31
0.0
  0
LINE
  5
80
330
17
100
AcDbEntity
  8
通风设备
  6
ByLayer
 62
3
100
AcDbLine
 10
586.095367117333
 20
192.989746213602
 30
0.0
 11
586.095367117333
 21
192.656412880269
 31
0.0
  0
LINE
  5
81
330
17
100
AcDbEntity
  8
通风设备
  6
ByLayer
 62
3
100
AcDbLine
 10
586.095367117333
 20
192.656412880269
 30
0.0
 11
585.262033784
 21
192.989746213602
 31
0.0
  0
LINE
  5
82
330
17
100
AcDbEntity
  8
通风设备
  6
ByLayer
 62
3
100
AcDbLine
 10
586.095367117333
 20
193.323079546935
 30
0.0
 11
585.262033784
 21
192.989746213602
 31
0.0
  0
LINE
  5
83
330
17
100
AcDbEntity
  8
通风设备
  6
ByLayer
 62
3
100
AcDbLine
 10
586.095367117333
 20
192.989746213602
 30
0.0
 11
586.095367117333
 21
193.323079546935
 31
0.0
  0
POINT
  5
84
330
17
100
AcDbEntity
  8
通风设备
  6
ByLayer
 62
3
100
AcDbPoint
 10
585.262033784
 20
192.989746213602
 30
0.0
 50
180.0
  0
LINE
  5
85
330
17
100
AcDbEntity
  8
通风设备
  6
ByLayer
 62
3
100
AcDbLine
 10
587.988700450667
 20
194.656412880269
 30
0.0
 11
585.262033784
 21
194.656412880269
 31
0.0
  0
LINE
  5
86
330
17
100
AcDbEntity
  8
通风设备
  6
ByLayer
 62
3
100
AcDbLine
 10
586.095367117333
 20
194.656412880269
 30
0.0
 11
586.095367117333
 21
194.323079546935
 31
0.0
  0
LINE
  5
87
330
17
100
AcDbEntity
  8
通风设备
  6
ByLayer
 62
3
100
AcDbLine
 10
586.095367117333
 20
194.323079546935
 30
0.0
 11
585.262033784
 21
194.656412880269
 31
0.0
  0
LINE
  5
88
330
17
100
AcDbEntity
  8
通风设备
  6
ByLayer
 62
3
100
AcDbLine
 10
586.095367117333
 20
194.989746213602
 30
0.0
 11
585.262033784
 21
194.656412880269
 31
0.0
  0
LINE
  5
89
330
17
100
AcDbEntity
  8
通风设备
  6
ByLayer
 62
3
100
AcDbLine
 10
586.095367117333
 20
194.656412880269
 30
0.0
 11
586.095367117333
 21
194.989746213602
 31
0.0
  0
POINT
  5
8A
330
17
100
AcDbEntity
  8
通风设备
  6
ByLayer
 62
3
100
AcDbPoint
 10
585.262033784
 20
194.656412880269
 30
0.0
 50
180.0
  0
LINE
  5
8B
330
17
100
AcDbEntity
  8
通风设备
  6
ByLayer
 62
3
100
AcDbLine
 10
318.367515954834
 20
472.08330984085
 30
0.0
 11
318.367515954834
 21
460.356357618804
 31
0.0
  0
LINE
  5
8C
330
17
100
AcDbEntity
  8
通风设备
  6
ByLayer
 62
3
100
AcDbLine
 10
311.783035007241
 20
460.356357618804
 30
0.0
 11
311.783035007241
 21
471.791592330514
 31
0.0
  0
LINE
  5
8D
330
17
100
AcDbEntity
  8
通风设备
  6
ByLayer
 62
3
100
AcDbLine
 10
319.617733856275
 20
458.939443997171
 30
0.0
 11
319.617733856275
 21
468.290982206478
 31
0.0
  0
LINE
  5
8E
330
17
100
AcDbEntity
  8
通风设备
  6
ByLayer
 62
3
100
AcDbLine
 10
310.324447455559
 20
458.939443997171
 30
0.0
 11
310.324447455559
 21
468.290982206478
 31
0.0
  0
LINE
  5
8F
330
17
100
AcDbEntity
  8
通风设备
  6
ByLayer
 62
3
100
AcDbLine
 10
316.200471592334
 20
460.356357618804
 30
0.0
 11
316.200471592334
 21
464.73212027385
 31
0.0
  0
LINE
  5
90
330
17
100
AcDbEntity
  8
通风设备
  6
ByLayer
 62
3
100
AcDbLine
 10
313.908405439693
 20
464.73212027385
 30
0.0
 11
313.908405439693
 21
460.356357618804
 31
0.0
  0
LINE
  5
91
330
17
100
AcDbEntity
  8
通风设备
  6
ByLayer
 62
3
100
AcDbLine
 10
318.367515954834
 20
460.356357618804
 30
0.0
 11
316.200471592334
 21
460.356357618804
 31
0.0
  0
LINE
  5
92
330
17
100
AcDbEntity
  8
通风设备
  6
ByLayer
 62
3
100
AcDbLine
 10
313.908405439693
 20
460.356357618804
 30
0.0
 11
311.783035007241
 21
460.356357618804
 31
0.0
  0
LINE
  5
93
330
17
100
AcDbEntity
  8
通风设备
  6
ByLayer
 62
3
100
AcDbLine
 10
310.324447455559
 20
468.290982206478
 30
0.0
 11
319.617733856275
 21
468.290982206478
 31
0.0
  0
LINE
  5
94
330
17
100
AcDbEntity
  8
通风设备
  6
ByLayer
 62
3
100
AcDbLine
 10
316.200471592334
 20
464.73212027385
 30
0.0
 11
313.908405439693
 21
464.73212027385
 31
0.0
  0
LINE
  5
95
330
17
100
AcDbEntity
  8
通风设备
  6
ByLayer
100
AcDbLine
 10
319.576059926226
 20
475.414435106243
 30
0.0
 11
310.242726592891
 21
475.414435106243
 31
0.0
  0
LINE
  5
96
330
17
100
AcDbEntity
  8
通风设备
  6
ByLayer
100
AcDbLine
 10
310.242726592891
 20
472.08110177291
 30
0.0
 11
319.576059926226
 21
472.08110177291
 31
0.0
  0
LINE
  5
97
330
17
100
AcDbEntity
  8
通风设备
  6
ByLayer
100
AcDbLine
 10
319.576059926226
 20
472.08110177291
 30
0.0
 11
319.576059926226
 21
475.414435106243
 31
0.0
  0
LINE
  5
98
330
17
100
AcDbEntity
  8
通风设备
  6
ByLayer
100
AcDbLine
 10
310.242726592891
 20
475.414435106243
 30
0.0
 11
310.242726592891
 21
472.08110177291
 31
0.0
  0
LINE
  5
99
330
17
100
AcDbEntity
  8
通风设备
  6
ByLayer
100
AcDbLine
 10
311.783035007241
 20
471.791592330514
 30
0.0
 11
311.783035007241
 21
472.08330984085
 31
0.0
  0
LINE
  5
9A
330
17
100
AcDbEntity
  8
通风设备
  6
ByLayer
 62
3
100
AcDbLine
 10
310.324447455559
 20
458.939443997171
 30
0.0
 11
319.617733856275
 21
458.939443997171
 31
0.0
  0
INSERT
  5
9B
330
17
100
AcDbEntity
  8
0
  6
ByLayer
 62
3
100
AcDbBlockReference
  2
ms1008_k01
 10
367.951908037806
 20
463.612081878109
 30
0.0
 41
-1.0
 50
270.0
  0
INSERT
  5
9D
330
17
100
AcDbEntity
  8
05Basic
  6
ByLayer
 62
3
100
AcDbBlockReference
  2
ms0221
 10
250.255621597016
 20
463.599124170112
 30
0.0
  0
INSERT
  5
9F
330
17
100
AcDbEntity
  8
05Basic
  6
ByLayer
 62
3
100
AcDbBlockReference
  2
ms0221
 10
389.696730209098
 20
463.642587962125
 30
0.0
  0
INSERT
  5
A1
330
17
100
AcDbEntity
  8
05Basic
  6
ByLayer
 62
3
100
AcDbBlockReference
  2
ms1821
 10
406.1540320646
 20
463.642589121667
 30
0.0
 41
-1.0
  0
LINE
  5
A3
330
17
100
AcDbEntity
  8
0
  6
ByLayer
 62
3
100
AcDbLine
 10
401.1540320646
 20
468.642589121667
 30
0.0
 11
401.1540320646
 21
471.142589121667
 31
0.0
  0
CIRCLE
  5
A4
330
17
100
AcDbEntity
  8
0
  6
ByLayer
 62
3
100
AcDbCircle
 10
401.1540320646
 20
473.842589121704
 30
0.0
 40
2.7
  0
LINE
  5
A5
330
17
100
AcDbEntity
  8
0
  6
ByLayer
 62
3
100
AcDbLine
 10
402.00469156954
 20
476.085389155653
 30
0.0
 11
400.271104483456
 21
471.691633755882
 31
0.0
  0
LINE
  5
A6
330
17
100
AcDbEntity
  8
通风设备
  6
ByLayer
 62
3
100
AcDbLine
 10
220.605084328241
 20
462.73528256689
 30
0.0
 11
223.33175099491
 21
462.73528256689
 31
0.0
  0
LINE
  5
A7
330
17
100
AcDbEntity
  8
通风设备
  6
ByLayer
 62
3
100
AcDbLine
 10
220.605084328241
 20
464.401949233557
 30
0.0
 11
223.33175099491
 21
464.401949233557
 31
0.0
  0
LINE
  5
A8
330
17
100
AcDbEntity
  8
通风设备
  6
ByLayer
 62
3
100
AcDbLine
 10
220.605084328241
 20
466.068615900224
 30
0.0
 11
223.33175099491
 21
466.068615900224
 31
0.0
  0
LINE
  5
A9
330
17
100
AcDbEntity
  8
通风设备
  6
ByLayer
 62
3
100
AcDbLine
 10
223.842742238584
 20
457.808615900224
 30
0.0
 11
226.722742238582
 21
457.808615900224
 31
0.0
  0
LINE
  5
AA
330
17
100
AcDbEntity
  8
通风设备
  6
ByLayer
 62
3
100
AcDbLine
 10
226.722742238582
 20
469.328615900224
 30
0.0
 11
223.842742238584
 21
469.328615900224
 31
0.0
  0
LINE
  5
AB
330
17
100
AcDbEntity
  8
通风设备
  6
ByLayer
 62
3
100
AcDbLine
 10
224.449408905251
 20
461.901949233557
 30
0.0
 11
226.116075571915
 21
460.23528256689
 31
0.0
  0
LINE
  5
AC
330
17
100
AcDbEntity
  8
通风设备
  6
ByLayer
 62
3
100
AcDbLine
 10
226.722742238582
 20
457.808615900224
 30
0.0
 11
226.722742238582
 21
469.328615900224
 31
0.0
  0
LINE
  5
AD
330
17
100
AcDbEntity
  8
通风设备
  6
ByLayer
 62
3
100
AcDbLine
 10
224.449408905251
 20
463.568615900224
 30
0.0
 11
226.116075571915
 21
461.901949233557
 31
0.0
  0
LINE
  5
AE
330
17
100
AcDbEntity
  8
通风设备
  6
ByLayer
 62
3
100
AcDbLine
 10
224.449408905251
 20
465.23528256689
 30
0.0
 11
226.116075571915
 21
463.568615900224
 31
0.0
  0
LINE
  5
AF
330
17
100
AcDbEntity
  8
通风设备
  6
ByLayer
 62
3
100
AcDbLine
 10
224.449408905251
 20
466.901949233557
 30
0.0
 11
226.116075571915
 21
465.23528256689
 31
0.0
  0
LINE
  5
B0
330
17
100
AcDbEntity
  8
通风设备
  6
ByLayer
 62
3
100
AcDbLine
 10
222.498417661574
 20
466.401949233557
 30
0.0
 11
223.33175099491
 21
466.068615900224
 31
0.0
  0
LINE
  5
B1
330
17
100
AcDbEntity
  8
通风设备
  6
ByLayer
 62
3
100
AcDbLine
 10
222.498417661574
 20
466.068615900224
 30
0.0
 11
222.498417661574
 21
466.401949233557
 31
0.0
  0
LINE
  5
B2
330
17
100
AcDbEntity
  8
通风设备
  6
ByLayer
 62
3
100
AcDbLine
 10
222.498417661574
 20
462.401949233557
 30
0.0
 11
223.33175099491
 21
462.73528256689
 31
0.0
  0
LINE
  5
B3
330
17
100
AcDbEntity
  8
通风设备
  6
ByLayer
 62
3
100
AcDbLine
 10
222.498417661574
 20
462.73528256689
 30
0.0
 11
222.498417661574
 21
462.401949233557
 31
0.0
  0
LINE
  5
B4
330
17
100
AcDbEntity
  8
通风设备
  6
ByLayer
 62
3
100
AcDbLine
 10
222.498417661574
 20
464.401949233557
 30
0.0
 11
222.498417661574
 21
464.73528256689
 31
0.0
  0
LINE
  5
B5
330
17
100
AcDbEntity
  8
通风设备
  6
ByLayer
 62
3
100
AcDbLine
 10
222.498417661574
 20
464.73528256689
 30
0.0
 11
223.33175099491
 21
464.401949233557
 31
0.0
  0
LINE
  5
B6
330
17
100
AcDbEntity
  8
通风设备
  6
ByLayer
 62
3
100
AcDbLine
 10
222.498417661574
 20
465.73528256689
 30
0.0
 11
223.33175099491
 21
466.068615900224
 31
0.0
  0
LINE
  5
B7
330
17
100
AcDbEntity
  8
通风设备
  6
ByLayer
 62
3
100
AcDbLine
 10
222.498417661574
 20
466.068615900224
 30
0.0
 11
222.498417661574
 21
465.73528256689
 31
0.0
  0
POINT
  5
B8
330
17
100
AcDbEntity
  8
通风设备
  6
ByLayer
 62
3
100
AcDbPoint
 10
223.33175099491
 20
466.068615900224
 30
0.0
  0
LINE
  5
B9
330
17
100
AcDbEntity
  8
通风设备
  6
ByLayer
 62
3
100
AcDbLine
 10
222.498417661574
 20
464.068615900224
 30
0.0
 11
223.33175099491
 21
464.401949233557
 31
0.0
  0
LINE
  5
BA
330
17
100
AcDbEntity
  8
通风设备
  6
ByLayer
 62
3
100
AcDbLine
 10
222.498417661574
 20
463.068615900224
 30
0.0
 11
223.33175099491
 21
462.73528256689
 31
0.0
  0
LINE
  5
BB
330
17
100
AcDbEntity
  8
通风设备
  6
ByLayer
 62
3
100
AcDbLine
 10
222.498417661574
 20
464.401949233557
 30
0.0
 11
222.498417661574
 21
464.068615900224
 31
0.0
  0
LINE
  5
BC
330
17
100
AcDbEntity
  8
通风设备
  6
ByLayer
 62
3
100
AcDbLine
 10
222.498417661574
 20
462.73528256689
 30
0.0
 11
222.498417661574
 21
463.068615900224
 31
0.0
  0
POINT
  5
BD
330
17
100
AcDbEntity
  8
通风设备
  6
ByLayer
 62
3
100
AcDbPoint
 10
223.33175099491
 20
464.401949233557
 30
0.0
  0
POINT
  5
BE
330
17
100
AcDbEntity
  8
通风设备
  6
ByLayer
 62
3
100
AcDbPoint
 10
223.33175099491
 20
462.73528256689
 30
0.0
  0
LINE
  5
BF
330
17
100
AcDbEntity
  8
通风设备
  6
ByLayer
 62
3
100
AcDbLine
 10
223.842742238584
 20
469.328615900224
 30
0.0
 11
223.842742238584
 21
457.808615900224
 31
0.0
  0
LINE
  5
C0
330
17
100
AcDbEntity
  8
通风设备
  6
ByLayer
 62
3
100
AcDbLine
 10
224.449408905251
 20
468.568615900224
 30
0.0
 11
226.116075571915
 21
466.901949233557
 31
0.0
  0
LINE
  5
C1
330
17
100
AcDbEntity
  8
通风设备
  6
ByLayer
 62
3
100
AcDbLine
 10
224.449408905251
 20
460.23528256689
 30
0.0
 11
226.116075571915
 21
458.568615900224
 31
0.0
  0
LINE
  5
C2
330
17
100
AcDbEntity
  8
通风设备
  6
ByLayer
 62
3
100
AcDbLine
 10
220.605084328241
 20
467.73528256689
 30
0.0
 11
223.33175099491
 21
467.73528256689
 31
0.0
  0
LINE
  5
C3
330
17
100
AcDbEntity
  8
通风设备
  6
ByLayer
 62
3
100
AcDbLine
 10
222.498417661574
 20
467.73528256689
 30
0.0
 11
222.498417661574
 21
468.068615900224
 31
0.0
  0
LINE
  5
C4
330
17
100
AcDbEntity
  8
通风设备
  6
ByLayer
 62
3
100
AcDbLine
 10
222.498417661574
 20
468.068615900224
 30
0.0
 11
223.33175099491
 21
467.73528256689
 31
0.0
  0
LINE
  5
C5
330
17
100
AcDbEntity
  8
通风设备
  6
ByLayer
 62
3
100
AcDbLine
 10
222.498417661574
 20
467.401949233557
 30
0.0
 11
223.33175099491
 21
467.73528256689
 31
0.0
  0
LINE
  5
C6
330
17
100
AcDbEntity
  8
通风设备
  6
ByLayer
 62
3
100
AcDbLine
 10
222.498417661574
 20
467.73528256689
 30
0.0
 11
222.498417661574
 21
467.401949233557
 31
0.0
  0
POINT
  5
C7
330
17
100
AcDbEntity
  8
通风设备
  6
ByLayer
 62
3
100
AcDbPoint
 10
223.33175099491
 20
467.73528256689
 30
0.0
  0
LINE
  5
C8
330
17
100
AcDbEntity
  8
通风设备
  6
ByLayer
 62
3
100
AcDbLine
 10
220.605084328241
 20
461.068615900224
 30
0.0
 11
223.33175099491
 21
461.068615900224
 31
0.0
  0
LINE
  5
C9
330
17
100
AcDbEntity
  8
通风设备
  6
ByLayer
 62
3
100
AcDbLine
 10
222.498417661574
 20
461.068615900224
 30
0.0
 11
222.498417661574
 21
461.401949233557
 31
0.0
  0
LINE
  5
CA
330
17
100
AcDbEntity
  8
通风设备
  6
ByLayer
 62
3
100
AcDbLine
 10
222.498417661574
 20
461.401949233557
 30
0.0
 11
223.33175099491
 21
461.068615900224
 31
0.0
  0
LINE
  5
CB
330
17
100
AcDbEntity
  8
通风设备
  6
ByLayer
 62
3
100
AcDbLine
 10
222.498417661574
 20
460.73528256689
 30
0.0
 11
223.33175099491
 21
461.068615900224
 31
0.0
  0
LINE
  5
CC
330
17
100
AcDbEntity
  8
通风设备
  6
ByLayer
 62
3
100
AcDbLine
 10
222.498417661574
 20
461.068615900224
 30
0.0
 11
222.498417661574
 21
460.73528256689
 31
0.0
  0
POINT
  5
CD
330
17
100
AcDbEntity
  8
通风设备
  6
ByLayer
 62
3
100
AcDbPoint
 10
223.33175099491
 20
461.068615900224
 30
0.0
  0
LINE
  5
CE
330
17
100
AcDbEntity
  8
通风设备
  6
ByLayer
 62
3
100
AcDbLine
 10
220.605084328241
 20
459.401949233557
 30
0.0
 11
223.33175099491
 21
459.401949233557
 31
0.0
  0
LINE
  5
CF
330
17
100
AcDbEntity
  8
通风设备
  6
ByLayer
 62
3
100
AcDbLine
 10
222.498417661574
 20
459.401949233557
 30
0.0
 11
222.498417661574
 21
459.73528256689
 31
0.0
  0
LINE
  5
D0
330
17
100
AcDbEntity
  8
通风设备
  6
ByLayer
 62
3
100
AcDbLine
 10
222.498417661574
 20
459.73528256689
 30
0.0
 11
223.33175099491
 21
459.401949233557
 31
0.0
  0
LINE
  5
D1
330
17
100
AcDbEntity
  8
通风设备
  6
ByLayer
 62
3
100
AcDbLine
 10
222.498417661574
 20
459.068615900224
 30
0.0
 11
223.33175099491
 21
459.401949233557
 31
0.0
  0
LINE
  5
D2
330
17
100
AcDbEntity
  8
通风设备
  6
ByLayer
 62
3
100
AcDbLine
 10
222.498417661574
 20
459.401949233557
 30
0.0
 11
222.498417661574
 21
459.068615900224
 31
0.0
  0
POINT
  5
D3
330
17
100
AcDbEntity
  8
通风设备
  6
ByLayer
 62
3
100
AcDbPoint
 10
223.33175099491
 20
459.401949233557
 30
0.0
  0
POINT
  5
D4
330
17
100
AcDbEntity
  8
0
  6
ByLayer
 62
3
100
AcDbPoint
 10
265.464255955908
 20
457.39667272273
 30
0.0
 50
180.0
  0
POINT
  5
D5
330
17
100
AcDbEntity
  8
0
  6
ByLayer
 62
3
100
AcDbPoint
 10
266.652057115528
 20
457.39667272273
 30
0.0
 50
180.0
  0
POINT
  5
D6
330
17
100
AcDbEntity
  8
0
  6
ByLayer
 62
3
100
AcDbPoint
 10
267.839858275567
 20
457.39667272273
 30
0.0
 50
180.0
  0
POINT
  5
D7
330
17
100
AcDbEntity
  8
0
  6
ByLayer
 62
3
100
AcDbPoint
 10
269.027659435605
 20
457.39667272273
 30
0.0
 50
180.0
  0
POINT
  5
D8
330
17
100
AcDbEntity
  8
0
  6
ByLayer
 62
3
100
AcDbPoint
 10
270.21546059564
 20
457.39667272273
 30
0.0
 50
180.0
  0
POINT
  5
D9
330
17
100
AcDbEntity
  8
0
  6
ByLayer
 62
3
100
AcDbPoint
 10
271.403261755678
 20
457.39667272273
 30
0.0
 50
180.0
  0
POINT
  5
DA
330
17
100
AcDbEntity
  8
0
  6
ByLayer
 62
3
100
AcDbPoint
 10
272.591062915717
 20
457.39667272273
 30
0.0
 50
180.0
  0
POINT
  5
DB
330
17
100
AcDbEntity
  8
0
  6
ByLayer
 62
3
100
AcDbPoint
 10
273.778864075755
 20
457.39667272273
 30
0.0
 50
180.0
  0
POINT
  5
DC
330
17
100
AcDbEntity
  8
0
  6
ByLayer
 62
3
100
AcDbPoint
 10
274.96666523579
 20
457.39667272273
 30
0.0
 50
180.0
  0
POINT
  5
DD
330
17
100
AcDbEntity
  8
0
  6
ByLayer
 62
3
100
AcDbPoint
 10
276.15446639541
 20
457.39667272273
 30
0.0
 50
180.0
  0
POINT
  5
DE
330
17
100
AcDbEntity
  8
0
  6
ByLayer
 62
3
100
AcDbPoint
 10
277.342267555448
 20
457.39667272273
 30
0.0
 50
180.0
  0
POINT
  5
DF
330
17
100
AcDbEntity
  8
0
  6
ByLayer
 62
3
100
AcDbPoint
 10
288.301332840479
 20
457.396673882272
 30
0.0
 50
180.0
  0
POINT
  5
E0
330
17
100
AcDbEntity
  8
0
  6
ByLayer
 62
3
100
AcDbPoint
 10
289.489134000099
 20
457.396673882272
 30
0.0
 50
180.0
  0
POINT
  5
E1
330
17
100
AcDbEntity
  8
0
  6
ByLayer
 62
3
100
AcDbPoint
 10
290.676935160138
 20
457.396673882272
 30
0.0
 50
180.0
  0
POINT
  5
E2
330
17
100
AcDbEntity
  8
0
  6
ByLayer
 62
3
100
AcDbPoint
 10
291.864736320176
 20
457.396673882272
 30
0.0
 50
180.0
  0
POINT
  5
E3
330
17
100
AcDbEntity
  8
0
  6
ByLayer
 62
3
100
AcDbPoint
 10
293.052537480211
 20
457.396673882272
 30
0.0
 50
180.0
  0
POINT
  5
E4
330
17
100
AcDbEntity
  8
0
  6
ByLayer
 62
3
100
AcDbPoint
 10
294.240338640249
 20
457.396673882272
 30
0.0
 50
180.0
  0
POINT
  5
E5
330
17
100
AcDbEntity
  8
0
  6
ByLayer
 62
3
100
AcDbPoint
 10
295.428139800287
 20
457.396673882272
 30
0.0
 50
180.0
  0
POINT
  5
E6
330
17
100
AcDbEntity
  8
0
  6
ByLayer
 62
3
100
AcDbPoint
 10
296.615940960326
 20
457.396673882272
 30
0.0
 50
180.0
  0
POINT
  5
E7
330
17
100
AcDbEntity
  8
0
  6
ByLayer
 62
3
100
AcDbPoint
 10
297.80374212036
 20
457.396673882272
 30
0.0
 50
180.0
  0
POINT
  5
E8
330
17
100
AcDbEntity
  8
0
  6
ByLayer
 62
3
100
AcDbPoint
 10
298.99154327998
 20
457.396673882272
 30
0.0
 50
180.0
  0
POINT
  5
E9
330
17
100
AcDbEntity
  8
0
  6
ByLayer
 62
3
100
AcDbPoint
 10
300.179344440019
 20
457.396673882272
 30
0.0
 50
180.0
  0
LINE
  5
EA
330
17
100
AcDbEntity
  8
0
  6
ByLayer
 62
3
100
AcDbLine
 10
346.303270120885
 20
454.942029852864
 30
0.0
 11
348.213833174564
 21
456.214487103025
 31
0.0
  0
LINE
  5
EB
330
17
100
AcDbEntity
  8
0
  6
ByLayer
 62
3
100
AcDbLine
 10
329.730359069724
 20
454.942029074045
 30
0.0
 11
327.819795896486
 21
456.214486144694
 31
0.0
  0
LINE
  5
EC
330
17
100
AcDbEntity
  8
0
  6
ByLayer
 62
3
100
AcDbLine
 10
347.111446990236
 20
465.474198527379
 30
0.0
 11
347.111446990236
 21
461.885223848723
 31
0.0
  0
LINE
  5
ED
330
17
100
AcDbEntity
  8
0
  6
ByLayer
 62
3
100
AcDbLine
 10
348.707086520165
 20
465.474198527379
 30
0.0
 11
348.707086520165
 21
461.885223848723
 31
0.0
  0
LINE
  5
EE
330
17
100
AcDbEntity
  8
1
  6
ByLayer
 62
3
100
AcDbLine
 10
347.111446990236
 20
463.722817380425
 30
0.0
 11
345.57966437972
 21
463.722817380425
 31
0.0
  0
LINE
  5
EF
330
17
100
AcDbEntity
  8
1
  6
ByLayer
 62
3
100
AcDbLine
 10
330.334834706866
 20
463.658319294431
 30
0.0
 11
328.803052096233
 21
463.658319294431
 31
0.0
  0
LINE
  5
F0
330
17
100
AcDbEntity
  8
0
  6
ByLayer
 62
3
100
AcDbLine
 10
328.803052096233
 20
465.409700441152
 30
0.0
 11
328.803052096233
 21
461.820725762496
 31
0.0
  0
LINE
  5
F1
330
17
100
AcDbEntity
  8
0
  6
ByLayer
 62
3
100
AcDbLine
 10
327.207412566362
 20
465.409700441152
 30
0.0
 11
327.207412566362
 21
461.820725762496
 31
0.0
  0
LINE
  5
F2
330
17
100
AcDbEntity
  8
0
  6
ByLayer
 62
3
100
AcDbLine
 10
337.957249183628
 20
465.218473940367
 30
0.0
 11
340.877639167489
 21
460.263931604313
 31
0.0
  0
LINE
  5
F3
330
17
100
AcDbEntity
  8
0
  6
ByLayer
 62
3
100
AcDbLine
 10
340.877639167489
 20
460.263931604313
 30
0.0
 11
343.798029151583
 21
465.218473940367
 31
0.0
  0
LINE
  5
F4
330
17
100
AcDbEntity
  8
0
  6
ByLayer
 62
3
100
AcDbLine
 10
343.798029151583
 20
465.218473940367
 30
0.0
 11
343.798029151583
 21
476.359120077076
 31
0.0
  0
LINE
  5
F5
330
17
100
AcDbEntity
  8
0
  6
ByLayer
 62
3
100
AcDbLine
 10
346.130150479452
 20
477.312521613058
 30
0.0
 11
341.465907823598
 21
477.312521613058
 31
0.0
  0
LINE
  5
F6
330
17
100
AcDbEntity
  8
0
  6
ByLayer
 62
3
100
AcDbLine
 10
334.448590543599
 20
476.359120077076
 30
0.0
 11
329.784347887571
 21
476.359120077076
 31
0.0
  0
LINE
  5
F7
330
17
100
AcDbEntity
  8
0
  6
ByLayer
 62
3
100
AcDbLine
 10
334.448590543599
 20
477.312521613058
 30
0.0
 11
329.784347887571
 21
477.312521613058
 31
0.0
  0
LINE
  5
F8
330
17
100
AcDbEntity
  8
0
  6
ByLayer
 62
3
100
AcDbLine
 10
335.036859199534
 20
460.263931604313
 30
0.0
 11
332.116469215498
 21
465.218473940367
 31
0.0
  0
LINE
  5
F9
330
17
100
AcDbEntity
  8
0
  6
ByLayer
 62
3
100
AcDbLine
 10
337.957249183628
 20
465.218473940367
 30
0.0
 11
335.036859199534
 21
460.263931604313
 31
0.0
  0
LINE
  5
FA
330
17
100
AcDbEntity
  8
0
  6
ByLayer
 62
3
100
AcDbLine
 10
332.116469215498
 20
465.218473940367
 30
0.0
 11
332.116469215585
 21
476.359120077076
 31
0.0
  0
LINE
  5
FB
330
17
100
AcDbEntity
  8
0
  6
ByLayer
 62
3
100
AcDbLine
 10
346.130150479452
 20
476.359120077076
 30
0.0
 11
341.465907823598
 21
476.359120077076
 31
0.0
  0
LINE
  5
FC
330
17
100
AcDbEntity
  8
0
  6
DASHEDX2
 62
3
 48
0.1
100
AcDbLine
 10
332.116469215585
 20
507.700154425463
 30
0.0
 11
329.357356615275
 21
507.700154425463
 31
0.0
  0
LINE
  5
FD
330
17
100
AcDbEntity
  8
0
  6
DASHEDX2
 62
3
 48
0.1
100
AcDbLine
 10
346.557141751838
 20
507.700154425463
 30
0.0
 11
343.798029151525
 21
507.700154425463
 31
0.0
  0
LINE
  5
FE
330
17
100
AcDbEntity
  8
0
  6
DASHEDX2
 62
3
 48
0.1
100
AcDbLine
 10
351.965526171387
 20
439.755564484561
 30
0.0
 11
346.303270120885
 21
439.755564484561
 31
0.0
  0
INSERT
  5
FF
330
17
100
AcDbEntity
  8
0
  6
ByLayer
 62
3
100
AcDbBlockReference
  2
ms1008_k01
 10
495.468071538171
 20
118.640783399937
 30
0.0
 41
-1.0
 50
90.0
  0
INSERT
  5
101
330
17
100
AcDbEntity
  8
05Basic
  6
ByLayer
 62
3
100
AcDbBlockReference
  2
ms1821
 10
474.514347701735
 20
118.124810954257
 30
0.0
  0
LINE
  5
103
330
17
100
AcDbEntity
  8
0
  6
ByLayer
 62
3
100
AcDbLine
 10
479.514347701735
 20
123.124810954257
 30
0.0
 11
479.514347701735
 21
125.624810954257
 31
0.0
  0
CIRCLE
  5
104
330
17
100
AcDbEntity
  8
0
  6
ByLayer
 62
3
100
AcDbCircle
 10
479.514347701735
 20
128.324810954291
 30
0.0
 40
2.7
  0
LINE
  5
105
330
17
100
AcDbEntity
  8
0
  6
ByLayer
 62
3
100
AcDbLine
 10
480.365007206675
 20
130.56761098824
 30
0.0
 11
478.631420120587
 21
126.173855588473
 31
0.0
  0
INSERT
  5
106
330
17
100
AcDbEntity
  8
V-10_fire damper
  6
Continuous
100
AcDbBlockReference
  2
防火阀vaf
 10
1507.30648374559
 20
-1510.58080683769
 30
0.0
 50
90.0
  0
INSERT
  5
108
330
17
100
AcDbEntity
  8
0
  6
ByLayer
 62
3
100
AcDbBlockReference
  2
ms1008_k01
 10
278.762998281303
 20
416.691877439466
 30
0.0
 41
-1.0
 50
90.0
  0
INSERT
  5
10A
330
17
100
AcDbEntity
  8
05Basic
  6
ByLayer
 62
3
100
AcDbBlockReference
  2
ms1821
 10
242.694235629798
 20
416.691875005963
 30
0.0
  0
LINE
  5
10C
330
17
100
AcDbEntity
  8
0
  6
ByLayer
 62
3
100
AcDbLine
 10
247.694235629798
 20
421.691875005963
 30
0.0
 11
247.694235629798
 21
424.191875005963
 31
0.0
  0
CIRCLE
  5
10D
330
17
100
AcDbEntity
  8
0
  6
ByLayer
 62
3
100
AcDbCircle
 10
247.694235629798
 20
426.891875005963
 30
0.0
 40
2.7
  0
LINE
  5
10E
330
17
100
AcDbEntity
  8
0
  6
ByLayer
 62
3
100
AcDbLine
 10
248.544895134739
 20
429.134675039913
 30
0.0
 11
246.811308048651
 21
424.740919640145
 31
0.0
  0
INSERT
  5
10F
330
17
100
AcDbEntity
  8
0
  6
ByLayer
 62
3
100
AcDbBlockReference
  2
ms1008_k01
 10
263.665729021015
 20
521.303361222208
 30
0.0
 41
-1.0
 50
90.0
  0
INSERT
  5
111
330
17
100
AcDbEntity
  8
05Basic
  6
ByLayer
 62
3
100
AcDbBlockReference
  2
ms1821
 10
242.694235629796
 20
521.303361222205
 30
0.0
  0
LINE
  5
113
330
17
100
AcDbEntity
  8
0
  6
ByLayer
 62
3
100
AcDbLine
 10
247.694235629796
 20
526.303361222205
 30
0.0
 11
247.694235629796
 21
528.803361222205
 31
0.0
  0
CIRCLE
  5
114
330
17
100
AcDbEntity
  8
0
  6
ByLayer
 62
3
100
AcDbCircle
 10
247.694235629796
 20
531.503361222239
 30
0.0
 40
2.7
  0
LINE
  5
115
330
17
100
AcDbEntity
  8
0
  6
ByLayer
 62
3
100
AcDbLine
 10
248.544895134737
 20
533.746161256189
 30
0.0
 11
246.811308048652
 21
529.352405856421
 31
0.0
  0
LINE
  5
116
330
17
100
AcDbEntity
  8
通风设备
  6
Continuous
 62
3
100
AcDbLine
 10
242.51415293944
 20
458.56861754391
 30
0.0
 11
242.51415293944
 21
468.56861754391
 31
0.0
  0
LINE
  5
117
330
17
100
AcDbEntity
  8
通风设备
  6
Continuous
 62
3
100
AcDbLine
 10
232.51415293944
 20
468.56861754391
 30
0.0
 11
232.51415293944
 21
458.56861754391
 31
0.0
  0
LINE
  5
118
330
17
100
AcDbEntity
  8
通风设备
  6
Continuous
 62
3
100
AcDbLine
 10
232.51415293944
 20
458.56861754391
 30
0.0
 11
242.51415293944
 21
458.56861754391
 31
0.0
  0
CIRCLE
  5
119
330
17
100
AcDbEntity
  8
通风设备
  6
Continuous
 62
3
100
AcDbCircle
 10
237.51415293944
 20
463.56861754391
 30
0.0
 40
1.0
  0
CIRCLE
  5
11A
330
17
100
AcDbEntity
  8
通风设备
  6
Continuous
 62
3
100
AcDbCircle
 10
237.51415293944
 20
463.56861754391
 30
0.0
 40
0.25
  0
CIRCLE
  5
11B
330
17
100
AcDbEntity
  8
通风设备
  6
Continuous
 62
3
100
AcDbCircle
 10
237.51415293944
 20
463.56861754391
 30
0.0
 40
0.5
  0
CIRCLE
  5
11C
330
17
100
AcDbEntity
  8
通风设备
  6
Continuous
 62
3
100
AcDbCircle
 10
237.51415293944
 20
463.56861754391
 30
0.0
 40
0.75
  0
CIRCLE
  5
11D
330
17
100
AcDbEntity
  8
通风设备
  6
Continuous
 62
3
100
AcDbCircle
 10
237.51415293944
 20
463.56861754391
 30
0.0
 40
0.125
  0
CIRCLE
  5
11E
330
17
100
AcDbEntity
  8
通风设备
  6
Continuous
 62
3
100
AcDbCircle
 10
237.51415293944
 20
463.56861754391
 30
0.0
 40
0.375
  0
CIRCLE
  5
11F
330
17
100
AcDbEntity
  8
通风设备
  6
Continuous
 62
3
100
AcDbCircle
 10
237.51415293944
 20
463.56861754391
 30
0.0
 40
0.625
  0
CIRCLE
  5
120
330
17
100
AcDbEntity
  8
通风设备
  6
Continuous
 62
3
100
AcDbCircle
 10
237.51415293944
 20
463.56861754391
 30
0.0
 40
0.875
  0
CIRCLE
  5
121
330
17
100
AcDbEntity
  8
通风设备
  6
Continuous
 62
3
100
AcDbCircle
 10
237.51415293944
 20
463.56861754391
 30
0.0
 40
1.125
  0
CIRCLE
  5
122
330
17
100
AcDbEntity
  8
通风设备
  6
Continuous
 62
3
100
AcDbCircle
 10
237.51415293944
 20
463.56861754391
 30
0.0
 40
1.25
  0
LINE
  5
123
330
17
100
AcDbEntity
  8
通风设备
  6
Continuous
 62
3
100
AcDbLine
 10
242.51415293944
 20
468.56861754391
 30
0.0
 11
232.51415293944
 21
468.56861754391
 31
0.0
  0
LINE
  5
124
330
17
100
AcDbEntity
  8
通风设备
  6
ByLayer
 62
3
100
AcDbLine
 10
237.51415293944
 20
468.56861754391
 30
0.0
 11
237.51415293944
 21
472.69925077591
 31
0.0
  0
LINE
  5
125
330
17
100
AcDbEntity
  8
通风设备
  6
ByLayer
 62
3
100
AcDbLine
 10
237.51415293944
 20
472.69925077591
 30
0.0
 11
235.758511050939
 21
472.69925077591
 31
0.0
  0
LINE
  5
126
330
17
100
AcDbEntity
  8
通风设备
  6
ByLayer
 62
3
100
AcDbLine
 10
239.269794827942
 20
472.69925077591
 30
0.0
 11
237.51415293944
 21
472.69925077591
 31
0.0
  0
INSERT
  5
127
330
17
100
AcDbEntity
  8
V-10_fire damper
  6
Continuous
100
AcDbBlockReference
  2
防火阀vaf
 10
1378.84937883224
 20
-1275.5808068389
 30
0.0
 50
90.0
  0
INSERT
  5
129
330
17
100
AcDbEntity
  8
V-10_fire damper
  6
Continuous
100
AcDbBlockReference
  2
防火阀vaf
 10
1407.65672872381
 20
-1275.58080683769
 30
0.0
 50
90.0
  0
INSERT
  5
12B
330
17
100
AcDbEntity
  8
V-10_fire damper
  6
Continuous
100
AcDbBlockReference
  2
防火阀vaf
 10
-1370.75314417299
 20
-474.563555307704
 30
0.0
  0
LINE
  5
12D
330
17
100
AcDbEntity
  8
通风设备
  6
ByLayer
 62
3
100
AcDbLine
 10
434.037644672918
 20
345.355414684001
 30
0.0
 11
434.037644672918
 21
333.628462461956
 31
0.0
  0
LINE
  5
12E
330
17
100
AcDbEntity
  8
通风设备
  6
ByLayer
 62
3
100
AcDbLine
 10
427.453163725329
 20
333.628462461956
 30
0.0
 11
427.453163725329
 21
345.063697173665
 31
0.0
  0
LINE
  5
12F
330
17
100
AcDbEntity
  8
通风设备
  6
ByLayer
 62
3
100
AcDbLine
 10
435.287862574359
 20
332.211548840323
 30
0.0
 11
435.287862574359
 21
341.563087049629
 31
0.0
  0
LINE
  5
130
330
17
100
AcDbEntity
  8
通风设备
  6
ByLayer
 62
3
100
AcDbLine
 10
425.994576173643
 20
332.211548840323
 30
0.0
 11
425.994576173643
 21
341.563087049629
 31
0.0
  0
LINE
  5
131
330
17
100
AcDbEntity
  8
通风设备
  6
ByLayer
 62
3
100
AcDbLine
 10
431.870600310421
 20
333.628462461956
 30
0.0
 11
431.870600310421
 21
338.004225117002
 31
0.0
  0
LINE
  5
132
330
17
100
AcDbEntity
  8
通风设备
  6
ByLayer
 62
3
100
AcDbLine
 10
429.578534157777
 20
338.004225117002
 30
0.0
 11
429.578534157777
 21
333.628462461956
 31
0.0
  0
LINE
  5
133
330
17
100
AcDbEntity
  8
通风设备
  6
ByLayer
 62
3
100
AcDbLine
 10
434.037644672918
 20
333.628462461956
 30
0.0
 11
431.870600310421
 21
333.628462461956
 31
0.0
  0
LINE
  5
134
330
17
100
AcDbEntity
  8
通风设备
  6
ByLayer
 62
3
100
AcDbLine
 10
429.578534157777
 20
333.628462461956
 30
0.0
 11
427.453163725329
 21
333.628462461956
 31
0.0
  0
LINE
  5
135
330
17
100
AcDbEntity
  8
通风设备
  6
ByLayer
 62
3
100
AcDbLine
 10
425.994576173643
 20
341.563087049629
 30
0.0
 11
435.287862574359
 21
341.563087049629
 31
0.0
  0
LINE
  5
136
330
17
100
AcDbEntity
  8
通风设备
  6
ByLayer
 62
3
100
AcDbLine
 10
431.870600310421
 20
338.004225117002
 30
0.0
 11
429.578534157777
 21
338.004225117002
 31
0.0
  0
LINE
  5
137
330
17
100
AcDbEntity
  8
通风设备
  6
ByLayer
100
AcDbLine
 10
435.24618864431
 20
348.686539949395
 30
0.0
 11
425.912855310978
 21
348.686539949395
 31
0.0
  0
LINE
  5
138
330
17
100
AcDbEntity
  8
通风设备
  6
ByLayer
100
AcDbLine
 10
425.912855310978
 20
345.353206616061
 30
0.0
 11
435.24618864431
 21
345.353206616061
 31
0.0
  0
LINE
  5
139
330
17
100
AcDbEntity
  8
通风设备
  6
ByLayer
100
AcDbLine
 10
435.24618864431
 20
345.353206616061
 30
0.0
 11
435.24618864431
 21
348.686539949395
 31
0.0
  0
LINE
  5
13A
330
17
100
AcDbEntity
  8
通风设备
  6
ByLayer
100
AcDbLine
 10
425.912855310978
 20
348.686539949395
 30
0.0
 11
425.912855310978
 21
345.353206616061
 31
0.0
  0
LINE
  5
13B
330
17
100
AcDbEntity
  8
通风设备
  6
ByLayer
100
AcDbLine
 10
427.453163725329
 20
345.063697173665
 30
0.0
 11
427.453163725329
 21
345.355414684001
 31
0.0
  0
LINE
  5
13C
330
17
100
AcDbEntity
  8
通风设备
  6
ByLayer
 62
3
100
AcDbLine
 10
425.994576173643
 20
332.211548840323
 30
0.0
 11
435.287862574359
 21
332.211548840323
 31
0.0
  0
INSERT
  5
13D
330
17
100
AcDbEntity
  8
V-10_fire damper
  6
Continuous
100
AcDbBlockReference
  2
防火阀vaf
 10
-1214.31895337216
 20
-658.979600140801
 30
0.0
  0
INSERT
  5
13F
330
17
100
AcDbEntity
  8
0
  6
ByLayer
 62
3
100
AcDbBlockReference
  2
ms1008_k01
 10
263.665728019528
 20
558.152678600724
 30
0.0
 41
-1.0
 50
90.0
  0
INSERT
  5
141
330
17
100
AcDbEntity
  8
05Basic
  6
ByLayer
 62
3
100
AcDbBlockReference
  2
ms1821
 10
239.118795396077
 20
558.152674450176
 30
0.0
  0
LINE
  5
143
330
17
100
AcDbEntity
  8
0
  6
ByLayer
 62
3
100
AcDbLine
 10
244.118795396077
 20
563.152674450176
 30
0.0
 11
244.118795396077
 21
565.652674450176
 31
0.0
  0
CIRCLE
  5
144
330
17
100
AcDbEntity
  8
0
  6
ByLayer
 62
3
100
AcDbCircle
 10
244.118795396077
 20
568.35267445021
 30
0.0
 40
2.7
  0
LINE
  5
145
330
17
100
AcDbEntity
  8
0
  6
ByLayer
 62
3
100
AcDbLine
 10
244.969454901017
 20
570.595474484159
 30
0.0
 11
243.235867814933
 21
566.201719084392
 31
0.0
  0
LINE
  5
1AC
330
17
100
AcDbEntity
  8
AI_SEG_BBOX
  6
DASHED
 62
4
100
AcDbLine
 10
220.605084328242
 20
251.376861700819
 30
0.0
 11
223.331750994912
 21
251.376861700819
 31
0.0
  0
LINE
  5
1AD
330
17
100
AcDbEntity
  8
AI_SEG_BBOX
  6
DASHED
 62
4
100
AcDbLine
 10
223.331750994912
 20
251.376861700819
 30
0.0
 11
223.331750994912
 21
260.376861700819
 31
0.0
  0
LINE
  5
1AE
330
17
100
AcDbEntity
  8
AI_SEG_BBOX
  6
DASHED
 62
4
100
AcDbLine
 10
223.331750994912
 20
260.376861700819
 30
0.0
 11
220.605084328242
 21
260.376861700819
 31
0.0
  0
LINE
  5
1AF
330
17
100
AcDbEntity
  8
AI_SEG_BBOX
  6
DASHED
 62
4
100
AcDbLine
 10
220.605084328242
 20
260.376861700819
 30
0.0
 11
220.605084328242
 21
251.376861700819
 31
0.0
  0
TEXT
  5
1B0
330
17
100
AcDbEntity
  8
AI_SEG_BBOX
 62
4
100
AcDbText
 10
220.605084328242
 20
260.376861700819
 30
0.0
 40
2.5
  1
C1:36
100
AcDbText
  0
LINE
  5
1B1
330
17
100
AcDbEntity
  8
AI_SEG_BBOX
  6
DASHED
 62
4
100
AcDbLine
 10
223.842742238583
 20
250.116861700819
 30
0.0
 11
226.722742238584
 21
250.116861700819
 31
0.0
  0
LINE
  5
1B2
330
17
100
AcDbEntity
  8
AI_SEG_BBOX
  6
DASHED
 62
4
100
AcDbLine
 10
226.722742238584
 20
250.116861700819
 30
0.0
 11
226.722742238584
 21
261.636861700819
 31
0.0
  0
LINE
  5
1B3
330
17
100
AcDbEntity
  8
AI_SEG_BBOX
  6
DASHED
 62
4
100
AcDbLine
 10
226.722742238584
 20
261.636861700819
 30
0.0
 11
223.842742238583
 21
261.636861700819
 31
0.0
  0
LINE
  5
1B4
330
17
100
AcDbEntity
  8
AI_SEG_BBOX
  6
DASHED
 62
4
100
AcDbLine
 10
223.842742238583
 20
261.636861700819
 30
0.0
 11
223.842742238583
 21
250.116861700819
 31
0.0
  0
TEXT
  5
1B5
330
17
100
AcDbEntity
  8
AI_SEG_BBOX
 62
4
100
AcDbText
 10
223.842742238583
 20
261.636861700819
 30
0.0
 40
2.5
  1
C2:6
100
AcDbText
  0
LINE
  5
1B6
330
17
100
AcDbEntity
  8
AI_SEG_BBOX
  6
DASHED
 62
4
100
AcDbLine
 10
224.449408905249
 20
252.543528367485
 30
0.0
 11
226.116075571917
 21
252.543528367485
 31
0.0
  0
LINE
  5
1B7
330
17
100
AcDbEntity
  8
AI_SEG_BBOX
  6
DASHED
 62
4
100
AcDbLine
 10
226.116075571917
 20
252.543528367485
 30
0.0
 11
226.116075571917
 21
254.210195034152
 31
0.0
  0
LINE
  5
1B8
330
17
100
AcDbEntity
  8
AI_SEG_BBOX
  6
DASHED
 62
4
100
AcDbLine
 10
226.116075571917
 20
254.210195034152
 30
0.0
 11
224.449408905249
 21
254.210195034152
 31
0.0
  0
LINE
  5
1B9
330
17
100
AcDbEntity
  8
AI_SEG_BBOX
  6
DASHED
 62
4
100
AcDbLine
 10
224.449408905249
 20
254.210195034152
 30
0.0
 11
224.449408905249
 21
252.543528367485
 31
0.0
  0
TEXT
  5
1BA
330
17
100
AcDbEntity
  8
AI_SEG_BBOX
 62
4
100
AcDbText
 10
224.449408905249
 20
254.210195034152
 30
0.0
 40
2.5
  1
C3:1
100
AcDbText
  0
LINE
  5
1BB
330
17
100
AcDbEntity
  8
AI_SEG_BBOX
  6
DASHED
 62
4
100
AcDbLine
 10
224.449408905249
 20
254.210195034152
 30
0.0
 11
226.116075571917
 21
254.210195034152
 31
0.0
  0
LINE
  5
1BC
330
17
100
AcDbEntity
  8
AI_SEG_BBOX
  6
DASHED
 62
4
100
AcDbLine
 10
226.116075571917
 20
254.210195034152
 30
0.0
 11
226.116075571917
 21
255.876861700819
 31
0.0
  0
LINE
  5
1BD
330
17
100
AcDbEntity
  8
AI_SEG_BBOX
  6
DASHED
 62
4
100
AcDbLine
 10
226.116075571917
 20
255.876861700819
 30
0.0
 11
224.449408905249
 21
255.876861700819
 31
0.0
  0
LINE
  5
1BE
330
17
100
AcDbEntity
  8
AI_SEG_BBOX
  6
DASHED
 62
4
100
AcDbLine
 10
224.449408905249
 20
255.876861700819
 30
0.0
 11
224.449408905249
 21
254.210195034152
 31
0.0
  0
TEXT
  5
1BF
330
17
100
AcDbEntity
  8
AI_SEG_BBOX
 62
4
100
AcDbText
 10
224.449408905249
 20
255.876861700819
 30
0.0
 40
2.5
  1
C4:1
100
AcDbText
  0
LINE
  5
1C0
330
17
100
AcDbEntity
  8
AI_SEG_BBOX
  6
DASHED
 62
4
100
AcDbLine
 10
224.449408905249
 20
255.876861700819
 30
0.0
 11
226.116075571917
 21
255.876861700819
 31
0.0
  0
LINE
  5
1C1
330
17
100
AcDbEntity
  8
AI_SEG_BBOX
  6
DASHED
 62
4
100
AcDbLine
 10
226.116075571917
 20
255.876861700819
 30
0.0
 11
226.116075571917
 21
257.543528367485
 31
0.0
  0
LINE
  5
1C2
330
17
100
AcDbEntity
  8
AI_SEG_BBOX
  6
DASHED
 62
4
100
AcDbLine
 10
226.116075571917
 20
257.543528367485
 30
0.0
 11
224.449408905249
 21
257.543528367485
 31
0.0
  0
LINE
  5
1C3
330
17
100
AcDbEntity
  8
AI_SEG_BBOX
  6
DASHED
 62
4
100
AcDbLine
 10
224.449408905249
 20
257.543528367485
 30
0.0
 11
224.449408905249
 21
255.876861700819
 31
0.0
  0
TEXT
  5
1C4
330
17
100
AcDbEntity
  8
AI_SEG_BBOX
 62
4
100
AcDbText
 10
224.449408905249
 20
257.543528367485
 30
0.0
 40
2.5
  1
C5:1
100
AcDbText
  0
LINE
  5
1C5
330
17
100
AcDbEntity
  8
AI_SEG_BBOX
  6
DASHED
 62
4
100
AcDbLine
 10
224.449408905249
 20
257.543528367485
 30
0.0
 11
226.116075571917
 21
257.543528367485
 31
0.0
  0
LINE
  5
1C6
330
17
100
AcDbEntity
  8
AI_SEG_BBOX
  6
DASHED
 62
4
100
AcDbLine
 10
226.116075571917
 20
257.543528367485
 30
0.0
 11
226.116075571917
 21
259.210195034152
 31
0.0
  0
LINE
  5
1C7
330
17
100
AcDbEntity
  8
AI_SEG_BBOX
  6
DASHED
 62
4
100
AcDbLine
 10
226.116075571917
 20
259.210195034152
 30
0.0
 11
224.449408905249
 21
259.210195034152
 31
0.0
  0
LINE
  5
1C8
330
17
100
AcDbEntity
  8
AI_SEG_BBOX
  6
DASHED
 62
4
100
AcDbLine
 10
224.449408905249
 20
259.210195034152
 30
0.0
 11
224.449408905249
 21
257.543528367485
 31
0.0
  0
TEXT
  5
1C9
330
17
100
AcDbEntity
  8
AI_SEG_BBOX
 62
4
100
AcDbText
 10
224.449408905249
 20
259.210195034152
 30
0.0
 40
2.5
  1
C6:1
100
AcDbText
  0
LINE
  5
1CA
330
17
100
AcDbEntity
  8
AI_SEG_BBOX
  6
DASHED
 62
4
100
AcDbLine
 10
585.262033784
 20
185.989746213602
 30
0.0
 11
587.988700450667
 21
185.989746213602
 31
0.0
  0
LINE
  5
1CB
330
17
100
AcDbEntity
  8
AI_SEG_BBOX
  6
DASHED
 62
4
100
AcDbLine
 10
587.988700450667
 20
185.989746213602
 30
0.0
 11
587.988700450667
 21
194.989746213602
 31
0.0
  0
LINE
  5
1CC
330
17
100
AcDbEntity
  8
AI_SEG_BBOX
  6
DASHED
 62
4
100
AcDbLine
 10
587.988700450667
 20
194.989746213602
 30
0.0
 11
585.262033784
 21
194.989746213602
 31
0.0
  0
LINE
  5
1CD
330
17
100
AcDbEntity
  8
AI_SEG_BBOX
  6
DASHED
 62
4
100
AcDbLine
 10
585.262033784
 20
194.989746213602
 30
0.0
 11
585.262033784
 21
185.989746213602
 31
0.0
  0
TEXT
  5
1CE
330
17
100
AcDbEntity
  8
AI_SEG_BBOX
 62
4
100
AcDbText
 10
585.262033784
 20
194.989746213602
 30
0.0
 40
2.5
  1
C7:36
100
AcDbText
  0
LINE
  5
1CF
330
17
100
AcDbEntity
  8
AI_SEG_BBOX
  6
DASHED
 62
4
100
AcDbLine
 10
581.871042540327
 20
184.729746213601
 30
0.0
 11
584.751042540327
 21
184.729746213601
 31
0.0
  0
LINE
  5
1D0
330
17
100
AcDbEntity
  8
AI_SEG_BBOX
  6
DASHED
 62
4
100
AcDbLine
 10
584.751042540327
 20
184.729746213601
 30
0.0
 11
584.751042540327
 21
196.249746213602
 31
0.0
  0
LINE
  5
1D1
330
17
100
AcDbEntity
  8
AI_SEG_BBOX
  6
DASHED
 62
4
100
AcDbLine
 10
584.751042540327
 20
196.249746213602
 30
0.0
 11
581.871042540327
 21
196.249746213602
 31
0.0
  0
LINE
  5
1D2
330
17
100
AcDbEntity
  8
AI_SEG_BBOX
  6
DASHED
 62
4
100
AcDbLine
 10
581.871042540327
 20
196.249746213602
 30
0.0
 11
581.871042540327
 21
184.729746213601
 31
0.0
  0
TEXT
  5
1D3
330
17
100
AcDbEntity
  8
AI_SEG_BBOX
 62
4
100
AcDbText
 10
581.871042540327
 20
196.249746213602
 30
0.0
 40
2.5
  1
C8:6
100
AcDbText
  0
LINE
  5
1D4
330
17
100
AcDbEntity
  8
AI_SEG_BBOX
  6
DASHED
 62
4
100
AcDbLine
 10
582.477709206994
 20
192.156412880269
 30
0.0
 11
584.14437587366
 21
192.156412880269
 31
0.0
  0
LINE
  5
1D5
330
17
100
AcDbEntity
  8
AI_SEG_BBOX
  6
DASHED
 62
4
100
AcDbLine
 10
584.14437587366
 20
192.156412880269
 30
0.0
 11
584.14437587366
 21
193.823079546935
 31
0.0
  0
LINE
  5
1D6
330
17
100
AcDbEntity
  8
AI_SEG_BBOX
  6
DASHED
 62
4
100
AcDbLine
 10
584.14437587366
 20
193.823079546935
 30
0.0
 11
582.477709206994
 21
193.823079546935
 31
0.0
  0
LINE
  5
1D7
330
17
100
AcDbEntity
  8
AI_SEG_BBOX
  6
DASHED
 62
4
100
AcDbLine
 10
582.477709206994
 20
193.823079546935
 30
0.0
 11
582.477709206994
 21
192.156412880269
 31
0.0
  0
TEXT
  5
1D8
330
17
100
AcDbEntity
  8
AI_SEG_BBOX
 62
4
100
AcDbText
 10
582.477709206994
 20
193.823079546935
 30
0.0
 40
2.5
  1
C9:1
100
AcDbText
  0
LINE
  5
1D9
330
17
100
AcDbEntity
  8
AI_SEG_BBOX
  6
DASHED
 62
4
100
AcDbLine
 10
582.477709206994
 20
190.489746213602
 30
0.0
 11
584.14437587366
 21
190.489746213602
 31
0.0
  0
LINE
  5
1DA
330
17
100
AcDbEntity
  8
AI_SEG_BBOX
  6
DASHED
 62
4
100
AcDbLine
 10
584.14437587366
 20
190.489746213602
 30
0.0
 11
584.14437587366
 21
192.156412880269
 31
0.0
  0
LINE
  5
1DB
330
17
100
AcDbEntity
  8
AI_SEG_BBOX
  6
DASHED
 62
4
100
AcDbLine
 10
584.14437587366
 20
192.156412880269
 30
0.0
 11
582.477709206994
 21
192.156412880269
 31
0.0
  0
LINE
  5
1DC
330
17
100
AcDbEntity
  8
AI_SEG_BBOX
  6
DASHED
 62
4
100
AcDbLine
 10
582.477709206994
 20
192.156412880269
 30
0.0
 11
582.477709206994
 21
190.489746213602
 31
0.0
  0
TEXT
  5
1DD
330
17
100
AcDbEntity
  8
AI_SEG_BBOX
 62
4
100
AcDbText
 10
582.477709206994
 20
192.156412880269
 30
0.0
 40
2.5
  1
C10:1
100
AcDbText
  0
LINE
  5
1DE
330
17
100
AcDbEntity
  8
AI_SEG_BBOX
  6
DASHED
 62
4
100
AcDbLine
 10
582.477709206994
 20
188.823079546935
 30
0.0
 11
584.14437587366
 21
188.823079546935
 31
0.0
  0
LINE
  5
1DF
330
17
100
AcDbEntity
  8
AI_SEG_BBOX
  6
DASHED
 62
4
100
AcDbLine
 10
584.14437587366
 20
188.823079546935
 30
0.0
 11
584.14437587366
 21
190.489746213602
 31
0.0
  0
LINE
  5
1E0
330
17
100
AcDbEntity
  8
AI_SEG_BBOX
  6
DASHED
 62
4
100
AcDbLine
 10
584.14437587366
 20
190.489746213602
 30
0.0
 11
582.477709206994
 21
190.489746213602
 31
0.0
  0
LINE
  5
1E1
330
17
100
AcDbEntity
  8
AI_SEG_BBOX
  6
DASHED
 62
4
100
AcDbLine
 10
582.477709206994
 20
190.489746213602
 30
0.0
 11
582.477709206994
 21
188.823079546935
 31
0.0
  0
TEXT
  5
1E2
330
17
100
AcDbEntity
  8
AI_SEG_BBOX
 62
4
100
AcDbText
 10
582.477709206994
 20
190.489746213602
 30
0.0
 40
2.5
  1
C11:1
100
AcDbText
  0
LINE
  5
1E3
330
17
100
AcDbEntity
  8
AI_SEG_BBOX
  6
DASHED
 62
4
100
AcDbLine
 10
582.477709206994
 20
187.156412880269
 30
0.0
 11
584.14437587366
 21
187.156412880269
 31
0.0
  0
LINE
  5
1E4
330
17
100
AcDbEntity
  8
AI_SEG_BBOX
  6
DASHED
 62
4
100
AcDbLine
 10
584.14437587366
 20
187.156412880269
 30
0.0
 11
584.14437587366
 21
188.823079546935
 31
0.0
  0
LINE
  5
1E5
330
17
100
AcDbEntity
  8
AI_SEG_BBOX
  6
DASHED
 62
4
100
AcDbLine
 10
584.14437587366
 20
188.823079546935
 30
0.0
 11
582.477709206994
 21
188.823079546935
 31
0.0
  0
LINE
  5
1E6
330
17
100
AcDbEntity
  8
AI_SEG_BBOX
  6
DASHED
 62
4
100
AcDbLine
 10
582.477709206994
 20
188.823079546935
 30
0.0
 11
582.477709206994
 21
187.156412880269
 31
0.0
  0
TEXT
  5
1E7
330
17
100
AcDbEntity
  8
AI_SEG_BBOX
 62
4
100
AcDbText
 10
582.477709206994
 20
188.823079546935
 30
0.0
 40
2.5
  1
C12:1
100
AcDbText
  0
LINE
  5
1E8
330
17
100
AcDbEntity
  8
AI_SEG_BBOX
  6
DASHED
 62
4
100
AcDbLine
 10
311.783035007241
 20
460.356357618804
 30
0.0
 11
318.367515954834
 21
460.356357618804
 31
0.0
  0
LINE
  5
1E9
330
17
100
AcDbEntity
  8
AI_SEG_BBOX
  6
DASHED
 62
4
100
AcDbLine
 10
318.367515954834
 20
460.356357618804
 30
0.0
 11
318.367515954834
 21
472.08330984085
 31
0.0
  0
LINE
  5
1EA
330
17
100
AcDbEntity
  8
AI_SEG_BBOX
  6
DASHED
 62
4
100
AcDbLine
 10
318.367515954834
 20
472.08330984085
 30
0.0
 11
311.783035007241
 21
472.08330984085
 31
0.0
  0
LINE
  5
1EB
330
17
100
AcDbEntity
  8
AI_SEG_BBOX
  6
DASHED
 62
4
100
AcDbLine
 10
311.783035007241
 20
472.08330984085
 30
0.0
 11
311.783035007241
 21
460.356357618804
 31
0.0
  0
TEXT
  5
1EC
330
17
100
AcDbEntity
  8
AI_SEG_BBOX
 62
4
100
AcDbText
 10
311.783035007241
 20
472.08330984085
 30
0.0
 40
2.5
  1
C13:8
100
AcDbText
  0
LINE
  5
1ED
330
17
100
AcDbEntity
  8
AI_SEG_BBOX
  6
DASHED
 62
4
100
AcDbLine
 10
310.324447455559
 20
458.939443997171
 30
0.0
 11
319.617733856275
 21
458.939443997171
 31
0.0
  0
LINE
  5
1EE
330
17
100
AcDbEntity
  8
AI_SEG_BBOX
  6
DASHED
 62
4
100
AcDbLine
 10
319.617733856275
 20
458.939443997171
 30
0.0
 11
319.617733856275
 21
468.290982206478
 31
0.0
  0
LINE
  5
1EF
330
17
100
AcDbEntity
  8
AI_SEG_BBOX
  6
DASHED
 62
4
100
AcDbLine
 10
319.617733856275
 20
468.290982206478
 30
0.0
 11
310.324447455559
 21
468.290982206478
 31
0.0
  0
LINE
  5
1F0
330
17
100
AcDbEntity
  8
AI_SEG_BBOX
  6
DASHED
 62
4
100
AcDbLine
 10
310.324447455559
 20
468.290982206478
 30
0.0
 11
310.324447455559
 21
458.939443997171
 31
0.0
  0
TEXT
  5
1F1
330
17
100
AcDbEntity
  8
AI_SEG_BBOX
 62
4
100
AcDbText
 10
310.324447455559
 20
468.290982206478
 30
0.0
 40
2.5
  1
C14:4
100
AcDbText
  0
LINE
  5
1F2
330
17
100
AcDbEntity
  8
AI_SEG_BBOX
  6
DASHED
 62
4
100
AcDbLine
 10
310.242726592891
 20
472.08110177291
 30
0.0
 11
319.576059926226
 21
472.08110177291
 31
0.0
  0
LINE
  5
1F3
330
17
100
AcDbEntity
  8
AI_SEG_BBOX
  6
DASHED
 62
4
100
AcDbLine
 10
319.576059926226
 20
472.08110177291
 30
0.0
 11
319.576059926226
 21
475.414435106243
 31
0.0
  0
LINE
  5
1F4
330
17
100
AcDbEntity
  8
AI_SEG_BBOX
  6
DASHED
 62
4
100
AcDbLine
 10
319.576059926226
 20
475.414435106243
 30
0.0
 11
310.242726592891
 21
475.414435106243
 31
0.0
  0
LINE
  5
1F5
330
17
100
AcDbEntity
  8
AI_SEG_BBOX
  6
DASHED
 62
4
100
AcDbLine
 10
310.242726592891
 20
475.414435106243
 30
0.0
 11
310.242726592891
 21
472.08110177291
 31
0.0
  0
TEXT
  5
1F6
330
17
100
AcDbEntity
  8
AI_SEG_BBOX
 62
4
100
AcDbText
 10
310.242726592891
 20
475.414435106243
 30
0.0
 40
2.5
  1
C15:4
100
AcDbText
  0
LINE
  5
1F7
330
17
100
AcDbEntity
  8
AI_SEG_BBOX
  6
DASHED
 62
4
100
AcDbLine
 10
367.951908037806
 20
463.612081878109
 30
0.0
 11
367.951908037806
 21
463.612081878109
 31
0.0
  0
LINE
  5
1F8
330
17
100
AcDbEntity
  8
AI_SEG_BBOX
  6
DASHED
 62
4
100
AcDbLine
 10
367.951908037806
 20
463.612081878109
 30
0.0
 11
367.951908037806
 21
463.612081878109
 31
0.0
  0
LINE
  5
1F9
330
17
100
AcDbEntity
  8
AI_SEG_BBOX
  6
DASHED
 62
4
100
AcDbLine
 10
367.951908037806
 20
463.612081878109
 30
0.0
 11
367.951908037806
 21
463.612081878109
 31
0.0
  0
LINE
  5
1FA
330
17
100
AcDbEntity
  8
AI_SEG_BBOX
  6
DASHED
 62
4
100
AcDbLine
 10
367.951908037806
 20
463.612081878109
 30
0.0
 11
367.951908037806
 21
463.612081878109
 31
0.0
  0
TEXT
  5
1FB
330
17
100
AcDbEntity
  8
AI_SEG_BBOX
 62
4
100
AcDbText
 10
367.951908037806
 20
463.612081878109
 30
0.0
 40
2.5
  1
C16:1
100
AcDbText
  0
LINE
  5
1FC
330
17
100
AcDbEntity
  8
AI_SEG_BBOX
  6
DASHED
 62
4
100
AcDbLine
 10
250.255621597016
 20
463.599124170112
 30
0.0
 11
250.255621597016
 21
463.599124170112
 31
0.0
  0
LINE
  5
1FD
330
17
100
AcDbEntity
  8
AI_SEG_BBOX
  6
DASHED
 62
4
100
AcDbLine
 10
250.255621597016
 20
463.599124170112
 30
0.0
 11
250.255621597016
 21
463.599124170112
 31
0.0
  0
LINE
  5
1FE
330
17
100
AcDbEntity
  8
AI_SEG_BBOX
  6
DASHED
 62
4
100
AcDbLine
 10
250.255621597016
 20
463.599124170112
 30
0.0
 11
250.255621597016
 21
463.599124170112
 31
0.0
  0
LINE
  5
1FF
330
17
100
AcDbEntity
  8
AI_SEG_BBOX
  6
DASHED
 62
4
100
AcDbLine
 10
250.255621597016
 20
463.599124170112
 30
0.0
 11
250.255621597016
 21
463.599124170112
 31
0.0
  0
TEXT
  5
200
330
17
100
AcDbEntity
  8
AI_SEG_BBOX
 62
4
100
AcDbText
 10
250.255621597016
 20
463.599124170112
 30
0.0
 40
2.5
  1
C17:1
100
AcDbText
  0
LINE
  5
201
330
17
100
AcDbEntity
  8
AI_SEG_BBOX
  6
DASHED
 62
4
100
AcDbLine
 10
389.696730209098
 20
463.642587962125
 30
0.0
 11
389.696730209098
 21
463.642587962125
 31
0.0
  0
LINE
  5
202
330
17
100
AcDbEntity
  8
AI_SEG_BBOX
  6
DASHED
 62
4
100
AcDbLine
 10
389.696730209098
 20
463.642587962125
 30
0.0
 11
389.696730209098
 21
463.642587962125
 31
0.0
  0
LINE
  5
203
330
17
100
AcDbEntity
  8
AI_SEG_BBOX
  6
DASHED
 62
4
100
AcDbLine
 10
389.696730209098
 20
463.642587962125
 30
0.0
 11
389.696730209098
 21
463.642587962125
 31
0.0
  0
LINE
  5
204
330
17
100
AcDbEntity
  8
AI_SEG_BBOX
  6
DASHED
 62
4
100
AcDbLine
 10
389.696730209098
 20
463.642587962125
 30
0.0
 11
389.696730209098
 21
463.642587962125
 31
0.0
  0
TEXT
  5
205
330
17
100
AcDbEntity
  8
AI_SEG_BBOX
 62
4
100
AcDbText
 10
389.696730209098
 20
463.642587962125
 30
0.0
 40
2.5
  1
C18:1
100
AcDbText
  0
LINE
  5
206
330
17
100
AcDbEntity
  8
AI_SEG_BBOX
  6
DASHED
 62
4
100
AcDbLine
 10
406.1540320646
 20
463.642589121667
 30
0.0
 11
406.1540320646
 21
463.642589121667
 31
0.0
  0
LINE
  5
207
330
17
100
AcDbEntity
  8
AI_SEG_BBOX
  6
DASHED
 62
4
100
AcDbLine
 10
406.1540320646
 20
463.642589121667
 30
0.0
 11
406.1540320646
 21
463.642589121667
 31
0.0
  0
LINE
  5
208
330
17
100
AcDbEntity
  8
AI_SEG_BBOX
  6
DASHED
 62
4
100
AcDbLine
 10
406.1540320646
 20
463.642589121667
 30
0.0
 11
406.1540320646
 21
463.642589121667
 31
0.0
  0
LINE
  5
209
330
17
100
AcDbEntity
  8
AI_SEG_BBOX
  6
DASHED
 62
4
100
AcDbLine
 10
406.1540320646
 20
463.642589121667
 30
0.0
 11
406.1540320646
 21
463.642589121667
 31
0.0
  0
TEXT
  5
20A
330
17
100
AcDbEntity
  8
AI_SEG_BBOX
 62
4
100
AcDbText
 10
406.1540320646
 20
463.642589121667
 30
0.0
 40
2.5
  1
C19:1
100
AcDbText
  0
LINE
  5
20B
330
17
100
AcDbEntity
  8
AI_SEG_BBOX
  6
DASHED
 62
4
100
AcDbLine
 10
398.4540320646
 20
468.642589121667
 30
0.0
 11
403.8540320646
 21
468.642589121667
 31
0.0
  0
LINE
  5
20C
330
17
100
AcDbEntity
  8
AI_SEG_BBOX
  6
DASHED
 62
4
100
AcDbLine
 10
403.8540320646
 20
468.642589121667
 30
0.0
 11
403.8540320646
 21
476.542589121704
 31
0.0
  0
LINE
  5
20D
330
17
100
AcDbEntity
  8
AI_SEG_BBOX
  6
DASHED
 62
4
100
AcDbLine
 10
403.8540320646
 20
476.542589121704
 30
0.0
 11
398.4540320646
 21
476.542589121704
 31
0.0
  0
LINE
  5
20E
330
17
100
AcDbEntity
  8
AI_SEG_BBOX
  6
DASHED
 62
4
100
AcDbLine
 10
398.4540320646
 20
476.542589121704
 30
0.0
 11
398.4540320646
 21
468.642589121667
 31
0.0
  0
TEXT
  5
20F
330
17
100
AcDbEntity
  8
AI_SEG_BBOX
 62
4
100
AcDbText
 10
398.4540320646
 20
476.542589121704
 30
0.0
 40
2.5
  1
C20:3
100
AcDbText
  0
LINE
  5
210
330
17
100
AcDbEntity
  8
AI_SEG_BBOX
  6
DASHED
 62
4
100
AcDbLine
 10
220.605084328241
 20
459.068615900224
 30
0.0
 11
223.33175099491
 21
459.068615900224
 31
0.0
  0
LINE
  5
211
330
17
100
AcDbEntity
  8
AI_SEG_BBOX
  6
DASHED
 62
4
100
AcDbLine
 10
223.33175099491
 20
459.068615900224
 30
0.0
 11
223.33175099491
 21
468.068615900224
 31
0.0
  0
LINE
  5
212
330
17
100
AcDbEntity
  8
AI_SEG_BBOX
  6
DASHED
 62
4
100
AcDbLine
 10
223.33175099491
 20
468.068615900224
 30
0.0
 11
220.605084328241
 21
468.068615900224
 31
0.0
  0
LINE
  5
213
330
17
100
AcDbEntity
  8
AI_SEG_BBOX
  6
DASHED
 62
4
100
AcDbLine
 10
220.605084328241
 20
468.068615900224
 30
0.0
 11
220.605084328241
 21
459.068615900224
 31
0.0
  0
TEXT
  5
214
330
17
100
AcDbEntity
  8
AI_SEG_BBOX
 62
4
100
AcDbText
 10
220.605084328241
 20
468.068615900224
 30
0.0
 40
2.5
  1
C21:36
100
AcDbText
  0
LINE
  5
215
330
17
100
AcDbEntity
  8
AI_SEG_BBOX
  6
DASHED
 62
4
100
AcDbLine
 10
223.842742238584
 20
457.808615900224
 30
0.0
 11
226.722742238582
 21
457.808615900224
 31
0.0
  0
LINE
  5
216
330
17
100
AcDbEntity
  8
AI_SEG_BBOX
  6
DASHED
 62
4
100
AcDbLine
 10
226.722742238582
 20
457.808615900224
 30
0.0
 11
226.722742238582
 21
469.328615900224
 31
0.0
  0
LINE
  5
217
330
17
100
AcDbEntity
  8
AI_SEG_BBOX
  6
DASHED
 62
4
100
AcDbLine
 10
226.722742238582
 20
469.328615900224
 30
0.0
 11
223.842742238584
 21
469.328615900224
 31
0.0
  0
LINE
  5
218
330
17
100
AcDbEntity
  8
AI_SEG_BBOX
  6
DASHED
 62
4
100
AcDbLine
 10
223.842742238584
 20
469.328615900224
 30
0.0
 11
223.842742238584
 21
457.808615900224
 31
0.0
  0
TEXT
  5
219
330
17
100
AcDbEntity
  8
AI_SEG_BBOX
 62
4
100
AcDbText
 10
223.842742238584
 20
469.328615900224
 30
0.0
 40
2.5
  1
C22:6
100
AcDbText
  0
LINE
  5
21A
330
17
100
AcDbEntity
  8
AI_SEG_BBOX
  6
DASHED
 62
4
100
AcDbLine
 10
224.449408905251
 20
460.23528256689
 30
0.0
 11
226.116075571915
 21
460.23528256689
 31
0.0
  0
LINE
  5
21B
330
17
100
AcDbEntity
  8
AI_SEG_BBOX
  6
DASHED
 62
4
100
AcDbLine
 10
226.116075571915
 20
460.23528256689
 30
0.0
 11
226.116075571915
 21
461.901949233557
 31
0.0
  0
LINE
  5
21C
330
17
100
AcDbEntity
  8
AI_SEG_BBOX
  6
DASHED
 62
4
100
AcDbLine
 10
226.116075571915
 20
461.901949233557
 30
0.0
 11
224.449408905251
 21
461.901949233557
 31
0.0
  0
LINE
  5
21D
330
17
100
AcDbEntity
  8
AI_SEG_BBOX
  6
DASHED
 62
4
100
AcDbLine
 10
224.449408905251
 20
461.901949233557
 30
0.0
 11
224.449408905251
 21
460.23528256689
 31
0.0
  0
TEXT
  5
21E
330
17
100
AcDbEntity
  8
AI_SEG_BBOX
 62
4
100
AcDbText
 10
224.449408905251
 20
461.901949233557
 30
0.0
 40
2.5
  1
C23:1
100
AcDbText
  0
LINE
  5
21F
330
17
100
AcDbEntity
  8
AI_SEG_BBOX
  6
DASHED
 62
4
100
AcDbLine
 10
224.449408905251
 20
461.901949233557
 30
0.0
 11
226.116075571915
 21
461.901949233557
 31
0.0
  0
LINE
  5
220
330
17
100
AcDbEntity
  8
AI_SEG_BBOX
  6
DASHED
 62
4
100
AcDbLine
 10
226.116075571915
 20
461.901949233557
 30
0.0
 11
226.116075571915
 21
463.568615900224
 31
0.0
  0
LINE
  5
221
330
17
100
AcDbEntity
  8
AI_SEG_BBOX
  6
DASHED
 62
4
100
AcDbLine
 10
226.116075571915
 20
463.568615900224
 30
0.0
 11
224.449408905251
 21
463.568615900224
 31
0.0
  0
LINE
  5
222
330
17
100
AcDbEntity
  8
AI_SEG_BBOX
  6
DASHED
 62
4
100
AcDbLine
 10
224.449408905251
 20
463.568615900224
 30
0.0
 11
224.449408905251
 21
461.901949233557
 31
0.0
  0
TEXT
  5
223
330
17
100
AcDbEntity
  8
AI_SEG_BBOX
 62
4
100
AcDbText
 10
224.449408905251
 20
463.568615900224
 30
0.0
 40
2.5
  1
C24:1
100
AcDbText
  0
LINE
  5
224
330
17
100
AcDbEntity
  8
AI_SEG_BBOX
  6
DASHED
 62
4
100
AcDbLine
 10
224.449408905251
 20
463.568615900224
 30
0.0
 11
226.116075571915
 21
463.568615900224
 31
0.0
  0
LINE
  5
225
330
17
100
AcDbEntity
  8
AI_SEG_BBOX
  6
DASHED
 62
4
100
AcDbLine
 10
226.116075571915
 20
463.568615900224
 30
0.0
 11
226.116075571915
 21
465.23528256689
 31
0.0
  0
LINE
  5
226
330
17
100
AcDbEntity
  8
AI_SEG_BBOX
  6
DASHED
 62
4
100
AcDbLine
 10
226.116075571915
 20
465.23528256689
 30
0.0
 11
224.449408905251
 21
465.23528256689
 31
0.0
  0
LINE
  5
227
330
17
100
AcDbEntity
  8
AI_SEG_BBOX
  6
DASHED
 62
4
100
AcDbLine
 10
224.449408905251
 20
465.23528256689
 30
0.0
 11
224.449408905251
 21
463.568615900224
 31
0.0
  0
TEXT
  5
228
330
17
100
AcDbEntity
  8
AI_SEG_BBOX
 62
4
100
AcDbText
 10
224.449408905251
 20
465.23528256689
 30
0.0
 40
2.5
  1
C25:1
100
AcDbText
  0
LINE
  5
229
330
17
100
AcDbEntity
  8
AI_SEG_BBOX
  6
DASHED
 62
4
100
AcDbLine
 10
224.449408905251
 20
465.23528256689
 30
0.0
 11
226.116075571915
 21
465.23528256689
 31
0.0
  0
LINE
  5
22A
330
17
100
AcDbEntity
  8
AI_SEG_BBOX
  6
DASHED
 62
4
100
AcDbLine
 10
226.116075571915
 20
465.23528256689
 30
0.0
 11
226.116075571915
 21
466.901949233557
 31
0.0
  0
LINE
  5
22B
330
17
100
AcDbEntity
  8
AI_SEG_BBOX
  6
DASHED
 62
4
100
AcDbLine
 10
226.116075571915
 20
466.901949233557
 30
0.0
 11
224.449408905251
 21
466.901949233557
 31
0.0
  0
LINE
  5
22C
330
17
100
AcDbEntity
  8
AI_SEG_BBOX
  6
DASHED
 62
4
100
AcDbLine
 10
224.449408905251
 20
466.901949233557
 30
0.0
 11
224.449408905251
 21
465.23528256689
 31
0.0
  0
TEXT
  5
22D
330
17
100
AcDbEntity
  8
AI_SEG_BBOX
 62
4
100
AcDbText
 10
224.449408905251
 20
466.901949233557
 30
0.0
 40
2.5
  1
C26:1
100
AcDbText
  0
LINE
  5
22E
330
17
100
AcDbEntity
  8
AI_SEG_BBOX
  6
DASHED
 62
4
100
AcDbLine
 10
265.464255955908
 20
457.39667272273
 30
0.0
 11
265.464255955908
 21
457.39667272273
 31
0.0
  0
LINE
  5
22F
330
17
100
AcDbEntity
  8
AI_SEG_BBOX
  6
DASHED
 62
4
100
AcDbLine
 10
265.464255955908
 20
457.39667272273
 30
0.0
 11
265.464255955908
 21
457.39667272273
 31
0.0
  0
LINE
  5
230
330
17
100
AcDbEntity
  8
AI_SEG_BBOX
  6
DASHED
 62
4
100
AcDbLine
 10
265.464255955908
 20
457.39667272273
 30
0.0
 11
265.464255955908
 21
457.39667272273
 31
0.0
  0
LINE
  5
231
330
17
100
AcDbEntity
  8
AI_SEG_BBOX
  6
DASHED
 62
4
100
AcDbLine
 10
265.464255955908
 20
457.39667272273
 30
0.0
 11
265.464255955908
 21
457.39667272273
 31
0.0
  0
TEXT
  5
232
330
17
100
AcDbEntity
  8
AI_SEG_BBOX
 62
4
100
AcDbText
 10
265.464255955908
 20
457.39667272273
 30
0.0
 40
2.5
  1
C27:1
100
AcDbText
  0
LINE
  5
233
330
17
100
AcDbEntity
  8
AI_SEG_BBOX
  6
DASHED
 62
4
100
AcDbLine
 10
266.652057115528
 20
457.39667272273
 30
0.0
 11
266.652057115528
 21
457.39667272273
 31
0.0
  0
LINE
  5
234
330
17
100
AcDbEntity
  8
AI_SEG_BBOX
  6
DASHED
 62
4
100
AcDbLine
 10
266.652057115528
 20
457.39667272273
 30
0.0
 11
266.652057115528
 21
457.39667272273
 31
0.0
  0
LINE
  5
235
330
17
100
AcDbEntity
  8
AI_SEG_BBOX
  6
DASHED
 62
4
100
AcDbLine
 10
266.652057115528
 20
457.39667272273
 30
0.0
 11
266.652057115528
 21
457.39667272273
 31
0.0
  0
LINE
  5
236
330
17
100
AcDbEntity
  8
AI_SEG_BBOX
  6
DASHED
 62
4
100
AcDbLine
 10
266.652057115528
 20
457.39667272273
 30
0.0
 11
266.652057115528
 21
457.39667272273
 31
0.0
  0
TEXT
  5
237
330
17
100
AcDbEntity
  8
AI_SEG_BBOX
 62
4
100
AcDbText
 10
266.652057115528
 20
457.39667272273
 30
0.0
 40
2.5
  1
C28:1
100
AcDbText
  0
LINE
  5
238
330
17
100
AcDbEntity
  8
AI_SEG_BBOX
  6
DASHED
 62
4
100
AcDbLine
 10
267.839858275567
 20
457.39667272273
 30
0.0
 11
267.839858275567
 21
457.39667272273
 31
0.0
  0
LINE
  5
239
330
17
100
AcDbEntity
  8
AI_SEG_BBOX
  6
DASHED
 62
4
100
AcDbLine
 10
267.839858275567
 20
457.39667272273
 30
0.0
 11
267.839858275567
 21
457.39667272273
 31
0.0
  0
LINE
  5
23A
330
17
100
AcDbEntity
  8
AI_SEG_BBOX
  6
DASHED
 62
4
100
AcDbLine
 10
267.839858275567
 20
457.39667272273
 30
0.0
 11
267.839858275567
 21
457.39667272273
 31
0.0
  0
LINE
  5
23B
330
17
100
AcDbEntity
  8
AI_SEG_BBOX
  6
DASHED
 62
4
100
AcDbLine
 10
267.839858275567
 20
457.39667272273
 30
0.0
 11
267.839858275567
 21
457.39667272273
 31
0.0
  0
TEXT
  5
23C
330
17
100
AcDbEntity
  8
AI_SEG_BBOX
 62
4
100
AcDbText
 10
267.839858275567
 20
457.39667272273
 30
0.0
 40
2.5
  1
C29:1
100
AcDbText
  0
LINE
  5
23D
330
17
100
AcDbEntity
  8
AI_SEG_BBOX
  6
DASHED
 62
4
100
AcDbLine
 10
269.027659435605
 20
457.39667272273
 30
0.0
 11
269.027659435605
 21
457.39667272273
 31
0.0
  0
LINE
  5
23E
330
17
100
AcDbEntity
  8
AI_SEG_BBOX
  6
DASHED
 62
4
100
AcDbLine
 10
269.027659435605
 20
457.39667272273
 30
0.0
 11
269.027659435605
 21
457.39667272273
 31
0.0
  0
LINE
  5
23F
330
17
100
AcDbEntity
  8
AI_SEG_BBOX
  6
DASHED
 62
4
100
AcDbLine
 10
269.027659435605
 20
457.39667272273
 30
0.0
 11
269.027659435605
 21
457.39667272273
 31
0.0
  0
LINE
  5
240
330
17
100
AcDbEntity
  8
AI_SEG_BBOX
  6
DASHED
 62
4
100
AcDbLine
 10
269.027659435605
 20
457.39667272273
 30
0.0
 11
269.027659435605
 21
457.39667272273
 31
0.0
  0
TEXT
  5
241
330
17
100
AcDbEntity
  8
AI_SEG_BBOX
 62
4
100
AcDbText
 10
269.027659435605
 20
457.39667272273
 30
0.0
 40
2.5
  1
C30:1
100
AcDbText
  0
LINE
  5
242
330
17
100
AcDbEntity
  8
AI_SEG_BBOX
  6
DASHED
 62
4
100
AcDbLine
 10
270.21546059564
 20
457.39667272273
 30
0.0
 11
270.21546059564
 21
457.39667272273
 31
0.0
  0
LINE
  5
243
330
17
100
AcDbEntity
  8
AI_SEG_BBOX
  6
DASHED
 62
4
100
AcDbLine
 10
270.21546059564
 20
457.39667272273
 30
0.0
 11
270.21546059564
 21
457.39667272273
 31
0.0
  0
LINE
  5
244
330
17
100
AcDbEntity
  8
AI_SEG_BBOX
  6
DASHED
 62
4
100
AcDbLine
 10
270.21546059564
 20
457.39667272273
 30
0.0
 11
270.21546059564
 21
457.39667272273
 31
0.0
  0
LINE
  5
245
330
17
100
AcDbEntity
  8
AI_SEG_BBOX
  6
DASHED
 62
4
100
AcDbLine
 10
270.21546059564
 20
457.39667272273
 30
0.0
 11
270.21546059564
 21
457.39667272273
 31
0.0
  0
TEXT
  5
246
330
17
100
AcDbEntity
  8
AI_SEG_BBOX
 62
4
100
AcDbText
 10
270.21546059564
 20
457.39667272273
 30
0.0
 40
2.5
  1
C31:1
100
AcDbText
  0
LINE
  5
247
330
17
100
AcDbEntity
  8
AI_SEG_BBOX
  6
DASHED
 62
4
100
AcDbLine
 10
271.403261755678
 20
457.39667272273
 30
0.0
 11
271.403261755678
 21
457.39667272273
 31
0.0
  0
LINE
  5
248
330
17
100
AcDbEntity
  8
AI_SEG_BBOX
  6
DASHED
 62
4
100
AcDbLine
 10
271.403261755678
 20
457.39667272273
 30
0.0
 11
271.403261755678
 21
457.39667272273
 31
0.0
  0
LINE
  5
249
330
17
100
AcDbEntity
  8
AI_SEG_BBOX
  6
DASHED
 62
4
100
AcDbLine
 10
271.403261755678
 20
457.39667272273
 30
0.0
 11
271.403261755678
 21
457.39667272273
 31
0.0
  0
LINE
  5
24A
330
17
100
AcDbEntity
  8
AI_SEG_BBOX
  6
DASHED
 62
4
100
AcDbLine
 10
271.403261755678
 20
457.39667272273
 30
0.0
 11
271.403261755678
 21
457.39667272273
 31
0.0
  0
TEXT
  5
24B
330
17
100
AcDbEntity
  8
AI_SEG_BBOX
 62
4
100
AcDbText
 10
271.403261755678
 20
457.39667272273
 30
0.0
 40
2.5
  1
C32:1
100
AcDbText
  0
LINE
  5
24C
330
17
100
AcDbEntity
  8
AI_SEG_BBOX
  6
DASHED
 62
4
100
AcDbLine
 10
272.591062915717
 20
457.39667272273
 30
0.0
 11
272.591062915717
 21
457.39667272273
 31
0.0
  0
LINE
  5
24D
330
17
100
AcDbEntity
  8
AI_SEG_BBOX
  6
DASHED
 62
4
100
AcDbLine
 10
272.591062915717
 20
457.39667272273
 30
0.0
 11
272.591062915717
 21
457.39667272273
 31
0.0
  0
LINE
  5
24E
330
17
100
AcDbEntity
  8
AI_SEG_BBOX
  6
DASHED
 62
4
100
AcDbLine
 10
272.591062915717
 20
457.39667272273
 30
0.0
 11
272.591062915717
 21
457.39667272273
 31
0.0
  0
LINE
  5
24F
330
17
100
AcDbEntity
  8
AI_SEG_BBOX
  6
DASHED
 62
4
100
AcDbLine
 10
272.591062915717
 20
457.39667272273
 30
0.0
 11
272.591062915717
 21
457.39667272273
 31
0.0
  0
TEXT
  5
250
330
17
100
AcDbEntity
  8
AI_SEG_BBOX
 62
4
100
AcDbText
 10
272.591062915717
 20
457.39667272273
 30
0.0
 40
2.5
  1
C33:1
100
AcDbText
  0
LINE
  5
251
330
17
100
AcDbEntity
  8
AI_SEG_BBOX
  6
DASHED
 62
4
100
AcDbLine
 10
273.778864075755
 20
457.39667272273
 30
0.0
 11
273.778864075755
 21
457.39667272273
 31
0.0
  0
LINE
  5
252
330
17
100
AcDbEntity
  8
AI_SEG_BBOX
  6
DASHED
 62
4
100
AcDbLine
 10
273.778864075755
 20
457.39667272273
 30
0.0
 11
273.778864075755
 21
457.39667272273
 31
0.0
  0
LINE
  5
253
330
17
100
AcDbEntity
  8
AI_SEG_BBOX
  6
DASHED
 62
4
100
AcDbLine
 10
273.778864075755
 20
457.39667272273
 30
0.0
 11
273.778864075755
 21
457.39667272273
 31
0.0
  0
LINE
  5
254
330
17
100
AcDbEntity
  8
AI_SEG_BBOX
  6
DASHED
 62
4
100
AcDbLine
 10
273.778864075755
 20
457.39667272273
 30
0.0
 11
273.778864075755
 21
457.39667272273
 31
0.0
  0
TEXT
  5
255
330
17
100
AcDbEntity
  8
AI_SEG_BBOX
 62
4
100
AcDbText
 10
273.778864075755
 20
457.39667272273
 30
0.0
 40
2.5
  1
C34:1
100
AcDbText
  0
LINE
  5
256
330
17
100
AcDbEntity
  8
AI_SEG_BBOX
  6
DASHED
 62
4
100
AcDbLine
 10
274.96666523579
 20
457.39667272273
 30
0.0
 11
274.96666523579
 21
457.39667272273
 31
0.0
  0
LINE
  5
257
330
17
100
AcDbEntity
  8
AI_SEG_BBOX
  6
DASHED
 62
4
100
AcDbLine
 10
274.96666523579
 20
457.39667272273
 30
0.0
 11
274.96666523579
 21
457.39667272273
 31
0.0
  0
LINE
  5
258
330
17
100
AcDbEntity
  8
AI_SEG_BBOX
  6
DASHED
 62
4
100
AcDbLine
 10
274.96666523579
 20
457.39667272273
 30
0.0
 11
274.96666523579
 21
457.39667272273
 31
0.0
  0
LINE
  5
259
330
17
100
AcDbEntity
  8
AI_SEG_BBOX
  6
DASHED
 62
4
100
AcDbLine
 10
274.96666523579
 20
457.39667272273
 30
0.0
 11
274.96666523579
 21
457.39667272273
 31
0.0
  0
TEXT
  5
25A
330
17
100
AcDbEntity
  8
AI_SEG_BBOX
 62
4
100
AcDbText
 10
274.96666523579
 20
457.39667272273
 30
0.0
 40
2.5
  1
C35:1
100
AcDbText
  0
LINE
  5
25B
330
17
100
AcDbEntity
  8
AI_SEG_BBOX
  6
DASHED
 62
4
100
AcDbLine
 10
276.15446639541
 20
457.39667272273
 30
0.0
 11
276.15446639541
 21
457.39667272273
 31
0.0
  0
LINE
  5
25C
330
17
100
AcDbEntity
  8
AI_SEG_BBOX
  6
DASHED
 62
4
100
AcDbLine
 10
276.15446639541
 20
457.39667272273
 30
0.0
 11
276.15446639541
 21
457.39667272273
 31
0.0
  0
LINE
  5
25D
330
17
100
AcDbEntity
  8
AI_SEG_BBOX
  6
DASHED
 62
4
100
AcDbLine
 10
276.15446639541
 20
457.39667272273
 30
0.0
 11
276.15446639541
 21
457.39667272273
 31
0.0
  0
LINE
  5
25E
330
17
100
AcDbEntity
  8
AI_SEG_BBOX
  6
DASHED
 62
4
100
AcDbLine
 10
276.15446639541
 20
457.39667272273
 30
0.0
 11
276.15446639541
 21
457.39667272273
 31
0.0
  0
TEXT
  5
25F
330
17
100
AcDbEntity
  8
AI_SEG_BBOX
 62
4
100
AcDbText
 10
276.15446639541
 20
457.39667272273
 30
0.0
 40
2.5
  1
C36:1
100
AcDbText
  0
LINE
  5
260
330
17
100
AcDbEntity
  8
AI_SEG_BBOX
  6
DASHED
 62
4
100
AcDbLine
 10
277.342267555448
 20
457.39667272273
 30
0.0
 11
277.342267555448
 21
457.39667272273
 31
0.0
  0
LINE
  5
261
330
17
100
AcDbEntity
  8
AI_SEG_BBOX
  6
DASHED
 62
4
100
AcDbLine
 10
277.342267555448
 20
457.39667272273
 30
0.0
 11
277.342267555448
 21
457.39667272273
 31
0.0
  0
LINE
  5
262
330
17
100
AcDbEntity
  8
AI_SEG_BBOX
  6
DASHED
 62
4
100
AcDbLine
 10
277.342267555448
 20
457.39667272273
 30
0.0
 11
277.342267555448
 21
457.39667272273
 31
0.0
  0
LINE
  5
263
330
17
100
AcDbEntity
  8
AI_SEG_BBOX
  6
DASHED
 62
4
100
AcDbLine
 10
277.342267555448
 20
457.39667272273
 30
0.0
 11
277.342267555448
 21
457.39667272273
 31
0.0
  0
TEXT
  5
264
330
17
100
AcDbEntity
  8
AI_SEG_BBOX
 62
4
100
AcDbText
 10
277.342267555448
 20
457.39667272273
 30
0.0
 40
2.5
  1
C37:1
100
AcDbText
  0
LINE
  5
265
330
17
100
AcDbEntity
  8
AI_SEG_BBOX
  6
DASHED
 62
4
100
AcDbLine
 10
288.301332840479
 20
457.396673882272
 30
0.0
 11
288.301332840479
 21
457.396673882272
 31
0.0
  0
LINE
  5
266
330
17
100
AcDbEntity
  8
AI_SEG_BBOX
  6
DASHED
 62
4
100
AcDbLine
 10
288.301332840479
 20
457.396673882272
 30
0.0
 11
288.301332840479
 21
457.396673882272
 31
0.0
  0
LINE
  5
267
330
17
100
AcDbEntity
  8
AI_SEG_BBOX
  6
DASHED
 62
4
100
AcDbLine
 10
288.301332840479
 20
457.396673882272
 30
0.0
 11
288.301332840479
 21
457.396673882272
 31
0.0
  0
LINE
  5
268
330
17
100
AcDbEntity
  8
AI_SEG_BBOX
  6
DASHED
 62
4
100
AcDbLine
 10
288.301332840479
 20
457.396673882272
 30
0.0
 11
288.301332840479
 21
457.396673882272
 31
0.0
  0
TEXT
  5
269
330
17
100
AcDbEntity
  8
AI_SEG_BBOX
 62
4
100
AcDbText
 10
288.301332840479
 20
457.396673882272
 30
0.0
 40
2.5
  1
C38:1
100
AcDbText
  0
LINE
  5
26A
330
17
100
AcDbEntity
  8
AI_SEG_BBOX
  6
DASHED
 62
4
100
AcDbLine
 10
289.489134000099
 20
457.396673882272
 30
0.0
 11
289.489134000099
 21
457.396673882272
 31
0.0
  0
LINE
  5
26B
330
17
100
AcDbEntity
  8
AI_SEG_BBOX
  6
DASHED
 62
4
100
AcDbLine
 10
289.489134000099
 20
457.396673882272
 30
0.0
 11
289.489134000099
 21
457.396673882272
 31
0.0
  0
LINE
  5
26C
330
17
100
AcDbEntity
  8
AI_SEG_BBOX
  6
DASHED
 62
4
100
AcDbLine
 10
289.489134000099
 20
457.396673882272
 30
0.0
 11
289.489134000099
 21
457.396673882272
 31
0.0
  0
LINE
  5
26D
330
17
100
AcDbEntity
  8
AI_SEG_BBOX
  6
DASHED
 62
4
100
AcDbLine
 10
289.489134000099
 20
457.396673882272
 30
0.0
 11
289.489134000099
 21
457.396673882272
 31
0.0
  0
TEXT
  5
26E
330
17
100
AcDbEntity
  8
AI_SEG_BBOX
 62
4
100
AcDbText
 10
289.489134000099
 20
457.396673882272
 30
0.0
 40
2.5
  1
C39:1
100
AcDbText
  0
LINE
  5
26F
330
17
100
AcDbEntity
  8
AI_SEG_BBOX
  6
DASHED
 62
4
100
AcDbLine
 10
290.676935160138
 20
457.396673882272
 30
0.0
 11
290.676935160138
 21
457.396673882272
 31
0.0
  0
LINE
  5
270
330
17
100
AcDbEntity
  8
AI_SEG_BBOX
  6
DASHED
 62
4
100
AcDbLine
 10
290.676935160138
 20
457.396673882272
 30
0.0
 11
290.676935160138
 21
457.396673882272
 31
0.0
  0
LINE
  5
271
330
17
100
AcDbEntity
  8
AI_SEG_BBOX
  6
DASHED
 62
4
100
AcDbLine
 10
290.676935160138
 20
457.396673882272
 30
0.0
 11
290.676935160138
 21
457.396673882272
 31
0.0
  0
LINE
  5
272
330
17
100
AcDbEntity
  8
AI_SEG_BBOX
  6
DASHED
 62
4
100
AcDbLine
 10
290.676935160138
 20
457.396673882272
 30
0.0
 11
290.676935160138
 21
457.396673882272
 31
0.0
  0
TEXT
  5
273
330
17
100
AcDbEntity
  8
AI_SEG_BBOX
 62
4
100
AcDbText
 10
290.676935160138
 20
457.396673882272
 30
0.0
 40
2.5
  1
C40:1
100
AcDbText
  0
LINE
  5
274
330
17
100
AcDbEntity
  8
AI_SEG_BBOX
  6
DASHED
 62
4
100
AcDbLine
 10
291.864736320176
 20
457.396673882272
 30
0.0
 11
291.864736320176
 21
457.396673882272
 31
0.0
  0
LINE
  5
275
330
17
100
AcDbEntity
  8
AI_SEG_BBOX
  6
DASHED
 62
4
100
AcDbLine
 10
291.864736320176
 20
457.396673882272
 30
0.0
 11
291.864736320176
 21
457.396673882272
 31
0.0
  0
LINE
  5
276
330
17
100
AcDbEntity
  8
AI_SEG_BBOX
  6
DASHED
 62
4
100
AcDbLine
 10
291.864736320176
 20
457.396673882272
 30
0.0
 11
291.864736320176
 21
457.396673882272
 31
0.0
  0
LINE
  5
277
330
17
100
AcDbEntity
  8
AI_SEG_BBOX
  6
DASHED
 62
4
100
AcDbLine
 10
291.864736320176
 20
457.396673882272
 30
0.0
 11
291.864736320176
 21
457.396673882272
 31
0.0
  0
TEXT
  5
278
330
17
100
AcDbEntity
  8
AI_SEG_BBOX
 62
4
100
AcDbText
 10
291.864736320176
 20
457.396673882272
 30
0.0
 40
2.5
  1
C41:1
100
AcDbText
  0
LINE
  5
279
330
17
100
AcDbEntity
  8
AI_SEG_BBOX
  6
DASHED
 62
4
100
AcDbLine
 10
293.052537480211
 20
457.396673882272
 30
0.0
 11
293.052537480211
 21
457.396673882272
 31
0.0
  0
LINE
  5
27A
330
17
100
AcDbEntity
  8
AI_SEG_BBOX
  6
DASHED
 62
4
100
AcDbLine
 10
293.052537480211
 20
457.396673882272
 30
0.0
 11
293.052537480211
 21
457.396673882272
 31
0.0
  0
LINE
  5
27B
330
17
100
AcDbEntity
  8
AI_SEG_BBOX
  6
DASHED
 62
4
100
AcDbLine
 10
293.052537480211
 20
457.396673882272
 30
0.0
 11
293.052537480211
 21
457.396673882272
 31
0.0
  0
LINE
  5
27C
330
17
100
AcDbEntity
  8
AI_SEG_BBOX
  6
DASHED
 62
4
100
AcDbLine
 10
293.052537480211
 20
457.396673882272
 30
0.0
 11
293.052537480211
 21
457.396673882272
 31
0.0
  0
TEXT
  5
27D
330
17
100
AcDbEntity
  8
AI_SEG_BBOX
 62
4
100
AcDbText
 10
293.052537480211
 20
457.396673882272
 30
0.0
 40
2.5
  1
C42:1
100
AcDbText
  0
LINE
  5
27E
330
17
100
AcDbEntity
  8
AI_SEG_BBOX
  6
DASHED
 62
4
100
AcDbLine
 10
294.240338640249
 20
457.396673882272
 30
0.0
 11
294.240338640249
 21
457.396673882272
 31
0.0
  0
LINE
  5
27F
330
17
100
AcDbEntity
  8
AI_SEG_BBOX
  6
DASHED
 62
4
100
AcDbLine
 10
294.240338640249
 20
457.396673882272
 30
0.0
 11
294.240338640249
 21
457.396673882272
 31
0.0
  0
LINE
  5
280
330
17
100
AcDbEntity
  8
AI_SEG_BBOX
  6
DASHED
 62
4
100
AcDbLine
 10
294.240338640249
 20
457.396673882272
 30
0.0
 11
294.240338640249
 21
457.396673882272
 31
0.0
  0
LINE
  5
281
330
17
100
AcDbEntity
  8
AI_SEG_BBOX
  6
DASHED
 62
4
100
AcDbLine
 10
294.240338640249
 20
457.396673882272
 30
0.0
 11
294.240338640249
 21
457.396673882272
 31
0.0
  0
TEXT
  5
282
330
17
100
AcDbEntity
  8
AI_SEG_BBOX
 62
4
100
AcDbText
 10
294.240338640249
 20
457.396673882272
 30
0.0
 40
2.5
  1
C43:1
100
AcDbText
  0
LINE
  5
283
330
17
100
AcDbEntity
  8
AI_SEG_BBOX
  6
DASHED
 62
4
100
AcDbLine
 10
295.428139800287
 20
457.396673882272
 30
0.0
 11
295.428139800287
 21
457.396673882272
 31
0.0
  0
LINE
  5
284
330
17
100
AcDbEntity
  8
AI_SEG_BBOX
  6
DASHED
 62
4
100
AcDbLine
 10
295.428139800287
 20
457.396673882272
 30
0.0
 11
295.428139800287
 21
457.396673882272
 31
0.0
  0
LINE
  5
285
330
17
100
AcDbEntity
  8
AI_SEG_BBOX
  6
DASHED
 62
4
100
AcDbLine
 10
295.428139800287
 20
457.396673882272
 30
0.0
 11
295.428139800287
 21
457.396673882272
 31
0.0
  0
LINE
  5
286
330
17
100
AcDbEntity
  8
AI_SEG_BBOX
  6
DASHED
 62
4
100
AcDbLine
 10
295.428139800287
 20
457.396673882272
 30
0.0
 11
295.428139800287
 21
457.396673882272
 31
0.0
  0
TEXT
  5
287
330
17
100
AcDbEntity
  8
AI_SEG_BBOX
 62
4
100
AcDbText
 10
295.428139800287
 20
457.396673882272
 30
0.0
 40
2.5
  1
C44:1
100
AcDbText
  0
LINE
  5
288
330
17
100
AcDbEntity
  8
AI_SEG_BBOX
  6
DASHED
 62
4
100
AcDbLine
 10
296.615940960326
 20
457.396673882272
 30
0.0
 11
296.615940960326
 21
457.396673882272
 31
0.0
  0
LINE
  5
289
330
17
100
AcDbEntity
  8
AI_SEG_BBOX
  6
DASHED
 62
4
100
AcDbLine
 10
296.615940960326
 20
457.396673882272
 30
0.0
 11
296.615940960326
 21
457.396673882272
 31
0.0
  0
LINE
  5
28A
330
17
100
AcDbEntity
  8
AI_SEG_BBOX
  6
DASHED
 62
4
100
AcDbLine
 10
296.615940960326
 20
457.396673882272
 30
0.0
 11
296.615940960326
 21
457.396673882272
 31
0.0
  0
LINE
  5
28B
330
17
100
AcDbEntity
  8
AI_SEG_BBOX
  6
DASHED
 62
4
100
AcDbLine
 10
296.615940960326
 20
457.396673882272
 30
0.0
 11
296.615940960326
 21
457.396673882272
 31
0.0
  0
TEXT
  5
28C
330
17
100
AcDbEntity
  8
AI_SEG_BBOX
 62
4
100
AcDbText
 10
296.615940960326
 20
457.396673882272
 30
0.0
 40
2.5
  1
C45:1
100
AcDbText
  0
LINE
  5
28D
330
17
100
AcDbEntity
  8
AI_SEG_BBOX
  6
DASHED
 62
4
100
AcDbLine
 10
297.80374212036
 20
457.396673882272
 30
0.0
 11
297.80374212036
 21
457.396673882272
 31
0.0
  0
LINE
  5
28E
330
17
100
AcDbEntity
  8
AI_SEG_BBOX
  6
DASHED
 62
4
100
AcDbLine
 10
297.80374212036
 20
457.396673882272
 30
0.0
 11
297.80374212036
 21
457.396673882272
 31
0.0
  0
LINE
  5
28F
330
17
100
AcDbEntity
  8
AI_SEG_BBOX
  6
DASHED
 62
4
100
AcDbLine
 10
297.80374212036
 20
457.396673882272
 30
0.0
 11
297.80374212036
 21
457.396673882272
 31
0.0
  0
LINE
  5
290
330
17
100
AcDbEntity
  8
AI_SEG_BBOX
  6
DASHED
 62
4
100
AcDbLine
 10
297.80374212036
 20
457.396673882272
 30
0.0
 11
297.80374212036
 21
457.396673882272
 31
0.0
  0
TEXT
  5
291
330
17
100
AcDbEntity
  8
AI_SEG_BBOX
 62
4
100
AcDbText
 10
297.80374212036
 20
457.396673882272
 30
0.0
 40
2.5
  1
C46:1
100
AcDbText
  0
LINE
  5
292
330
17
100
AcDbEntity
  8
AI_SEG_BBOX
  6
DASHED
 62
4
100
AcDbLine
 10
298.99154327998
 20
457.396673882272
 30
0.0
 11
298.99154327998
 21
457.396673882272
 31
0.0
  0
LINE
  5
293
330
17
100
AcDbEntity
  8
AI_SEG_BBOX
  6
DASHED
 62
4
100
AcDbLine
 10
298.99154327998
 20
457.396673882272
 30
0.0
 11
298.99154327998
 21
457.396673882272
 31
0.0
  0
LINE
  5
294
330
17
100
AcDbEntity
  8
AI_SEG_BBOX
  6
DASHED
 62
4
100
AcDbLine
 10
298.99154327998
 20
457.396673882272
 30
0.0
 11
298.99154327998
 21
457.396673882272
 31
0.0
  0
LINE
  5
295
330
17
100
AcDbEntity
  8
AI_SEG_BBOX
  6
DASHED
 62
4
100
AcDbLine
 10
298.99154327998
 20
457.396673882272
 30
0.0
 11
298.99154327998
 21
457.396673882272
 31
0.0
  0
TEXT
  5
296
330
17
100
AcDbEntity
  8
AI_SEG_BBOX
 62
4
100
AcDbText
 10
298.99154327998
 20
457.396673882272
 30
0.0
 40
2.5
  1
C47:1
100
AcDbText
  0
LINE
  5
297
330
17
100
AcDbEntity
  8
AI_SEG_BBOX
  6
DASHED
 62
4
100
AcDbLine
 10
300.179344440019
 20
457.396673882272
 30
0.0
 11
300.179344440019
 21
457.396673882272
 31
0.0
  0
LINE
  5
298
330
17
100
AcDbEntity
  8
AI_SEG_BBOX
  6
DASHED
 62
4
100
AcDbLine
 10
300.179344440019
 20
457.396673882272
 30
0.0
 11
300.179344440019
 21
457.396673882272
 31
0.0
  0
LINE
  5
299
330
17
100
AcDbEntity
  8
AI_SEG_BBOX
  6
DASHED
 62
4
100
AcDbLine
 10
300.179344440019
 20
457.396673882272
 30
0.0
 11
300.179344440019
 21
457.396673882272
 31
0.0
  0
LINE
  5
29A
330
17
100
AcDbEntity
  8
AI_SEG_BBOX
  6
DASHED
 62
4
100
AcDbLine
 10
300.179344440019
 20
457.396673882272
 30
0.0
 11
300.179344440019
 21
457.396673882272
 31
0.0
  0
TEXT
  5
29B
330
17
100
AcDbEntity
  8
AI_SEG_BBOX
 62
4
100
AcDbText
 10
300.179344440019
 20
457.396673882272
 30
0.0
 40
2.5
  1
C48:1
100
AcDbText
  0
LINE
  5
29C
330
17
100
AcDbEntity
  8
AI_SEG_BBOX
  6
DASHED
 62
4
100
AcDbLine
 10
346.303270120885
 20
454.942029852864
 30
0.0
 11
348.213833174564
 21
454.942029852864
 31
0.0
  0
LINE
  5
29D
330
17
100
AcDbEntity
  8
AI_SEG_BBOX
  6
DASHED
 62
4
100
AcDbLine
 10
348.213833174564
 20
454.942029852864
 30
0.0
 11
348.213833174564
 21
456.214487103025
 31
0.0
  0
LINE
  5
29E
330
17
100
AcDbEntity
  8
AI_SEG_BBOX
  6
DASHED
 62
4
100
AcDbLine
 10
348.213833174564
 20
456.214487103025
 30
0.0
 11
346.303270120885
 21
456.214487103025
 31
0.0
  0
LINE
  5
29F
330
17
100
AcDbEntity
  8
AI_SEG_BBOX
  6
DASHED
 62
4
100
AcDbLine
 10
346.303270120885
 20
456.214487103025
 30
0.0
 11
346.303270120885
 21
454.942029852864
 31
0.0
  0
TEXT
  5
2A0
330
17
100
AcDbEntity
  8
AI_SEG_BBOX
 62
4
100
AcDbText
 10
346.303270120885
 20
456.214487103025
 30
0.0
 40
2.5
  1
C49:1
100
AcDbText
  0
LINE
  5
2A1
330
17
100
AcDbEntity
  8
AI_SEG_BBOX
  6
DASHED
 62
4
100
AcDbLine
 10
327.819795896486
 20
454.942029074045
 30
0.0
 11
329.730359069724
 21
454.942029074045
 31
0.0
  0
LINE
  5
2A2
330
17
100
AcDbEntity
  8
AI_SEG_BBOX
  6
DASHED
 62
4
100
AcDbLine
 10
329.730359069724
 20
454.942029074045
 30
0.0
 11
329.730359069724
 21
456.214486144694
 31
0.0
  0
LINE
  5
2A3
330
17
100
AcDbEntity
  8
AI_SEG_BBOX
  6
DASHED
 62
4
100
AcDbLine
 10
329.730359069724
 20
456.214486144694
 30
0.0
 11
327.819795896486
 21
456.214486144694
 31
0.0
  0
LINE
  5
2A4
330
17
100
AcDbEntity
  8
AI_SEG_BBOX
  6
DASHED
 62
4
100
AcDbLine
 10
327.819795896486
 20
456.214486144694
 30
0.0
 11
327.819795896486
 21
454.942029074045
 31
0.0
  0
TEXT
  5
2A5
330
17
100
AcDbEntity
  8
AI_SEG_BBOX
 62
4
100
AcDbText
 10
327.819795896486
 20
456.214486144694
 30
0.0
 40
2.5
  1
C50:1
100
AcDbText
  0
LINE
  5
2A6
330
17
100
AcDbEntity
  8
AI_SEG_BBOX
  6
DASHED
 62
4
100
AcDbLine
 10
347.111446990236
 20
461.885223848723
 30
0.0
 11
347.111446990236
 21
461.885223848723
 31
0.0
  0
LINE
  5
2A7
330
17
100
AcDbEntity
  8
AI_SEG_BBOX
  6
DASHED
 62
4
100
AcDbLine
 10
347.111446990236
 20
461.885223848723
 30
0.0
 11
347.111446990236
 21
465.474198527379
 31
0.0
  0
LINE
  5
2A8
330
17
100
AcDbEntity
  8
AI_SEG_BBOX
  6
DASHED
 62
4
100
AcDbLine
 10
347.111446990236
 20
465.474198527379
 30
0.0
 11
347.111446990236
 21
465.474198527379
 31
0.0
  0
LINE
  5
2A9
330
17
100
AcDbEntity
  8
AI_SEG_BBOX
  6
DASHED
 62
4
100
AcDbLine
 10
347.111446990236
 20
465.474198527379
 30
0.0
 11
347.111446990236
 21
461.885223848723
 31
0.0
  0
TEXT
  5
2AA
330
17
100
AcDbEntity
  8
AI_SEG_BBOX
 62
4
100
AcDbText
 10
347.111446990236
 20
465.474198527379
 30
0.0
 40
2.5
  1
C51:1
100
AcDbText
  0
LINE
  5
2AB
330
17
100
AcDbEntity
  8
AI_SEG_BBOX
  6
DASHED
 62
4
100
AcDbLine
 10
348.707086520165
 20
461.885223848723
 30
0.0
 11
348.707086520165
 21
461.885223848723
 31
0.0
  0
LINE
  5
2AC
330
17
100
AcDbEntity
  8
AI_SEG_BBOX
  6
DASHED
 62
4
100
AcDbLine
 10
348.707086520165
 20
461.885223848723
 30
0.0
 11
348.707086520165
 21
465.474198527379
 31
0.0
  0
LINE
  5
2AD
330
17
100
AcDbEntity
  8
AI_SEG_BBOX
  6
DASHED
 62
4
100
AcDbLine
 10
348.707086520165
 20
465.474198527379
 30
0.0
 11
348.707086520165
 21
465.474198527379
 31
0.0
  0
LINE
  5
2AE
330
17
100
AcDbEntity
  8
AI_SEG_BBOX
  6
DASHED
 62
4
100
AcDbLine
 10
348.707086520165
 20
465.474198527379
 30
0.0
 11
348.707086520165
 21
461.885223848723
 31
0.0
  0
TEXT
  5
2AF
330
17
100
AcDbEntity
  8
AI_SEG_BBOX
 62
4
100
AcDbText
 10
348.707086520165
 20
465.474198527379
 30
0.0
 40
2.5
  1
C52:1
100
AcDbText
  0
LINE
  5
2B0
330
17
100
AcDbEntity
  8
AI_SEG_BBOX
  6
DASHED
 62
4
100
AcDbLine
 10
345.57966437972
 20
463.722817380425
 30
0.0
 11
347.111446990236
 21
463.722817380425
 31
0.0
  0
LINE
  5
2B1
330
17
100
AcDbEntity
  8
AI_SEG_BBOX
  6
DASHED
 62
4
100
AcDbLine
 10
347.111446990236
 20
463.722817380425
 30
0.0
 11
347.111446990236
 21
463.722817380425
 31
0.0
  0
LINE
  5
2B2
330
17
100
AcDbEntity
  8
AI_SEG_BBOX
  6
DASHED
 62
4
100
AcDbLine
 10
347.111446990236
 20
463.722817380425
 30
0.0
 11
345.57966437972
 21
463.722817380425
 31
0.0
  0
LINE
  5
2B3
330
17
100
AcDbEntity
  8
AI_SEG_BBOX
  6
DASHED
 62
4
100
AcDbLine
 10
345.57966437972
 20
463.722817380425
 30
0.0
 11
345.57966437972
 21
463.722817380425
 31
0.0
  0
TEXT
  5
2B4
330
17
100
AcDbEntity
  8
AI_SEG_BBOX
 62
4
100
AcDbText
 10
345.57966437972
 20
463.722817380425
 30
0.0
 40
2.5
  1
C53:1
100
AcDbText
  0
LINE
  5
2B5
330
17
100
AcDbEntity
  8
AI_SEG_BBOX
  6
DASHED
 62
4
100
AcDbLine
 10
328.803052096233
 20
463.658319294431
 30
0.0
 11
330.334834706866
 21
463.658319294431
 31
0.0
  0
LINE
  5
2B6
330
17
100
AcDbEntity
  8
AI_SEG_BBOX
  6
DASHED
 62
4
100
AcDbLine
 10
330.334834706866
 20
463.658319294431
 30
0.0
 11
330.334834706866
 21
463.658319294431
 31
0.0
  0
LINE
  5
2B7
330
17
100
AcDbEntity
  8
AI_SEG_BBOX
  6
DASHED
 62
4
100
AcDbLine
 10
330.334834706866
 20
463.658319294431
 30
0.0
 11
328.803052096233
 21
463.658319294431
 31
0.0
  0
LINE
  5
2B8
330
17
100
AcDbEntity
  8
AI_SEG_BBOX
  6
DASHED
 62
4
100
AcDbLine
 10
328.803052096233
 20
463.658319294431
 30
0.0
 11
328.803052096233
 21
463.658319294431
 31
0.0
  0
TEXT
  5
2B9
330
17
100
AcDbEntity
  8
AI_SEG_BBOX
 62
4
100
AcDbText
 10
328.803052096233
 20
463.658319294431
 30
0.0
 40
2.5
  1
C54:1
100
AcDbText
  0
LINE
  5
2BA
330
17
100
AcDbEntity
  8
AI_SEG_BBOX
  6
DASHED
 62
4
100
AcDbLine
 10
328.803052096233
 20
461.820725762496
 30
0.0
 11
328.803052096233
 21
461.820725762496
 31
0.0
  0
LINE
  5
2BB
330
17
100
AcDbEntity
  8
AI_SEG_BBOX
  6
DASHED
 62
4
100
AcDbLine
 10
328.803052096233
 20
461.820725762496
 30
0.0
 11
328.803052096233
 21
465.409700441152
 31
0.0
  0
LINE
  5
2BC
330
17
100
AcDbEntity
  8
AI_SEG_BBOX
  6
DASHED
 62
4
100
AcDbLine
 10
328.803052096233
 20
465.409700441152
 30
0.0
 11
328.803052096233
 21
465.409700441152
 31
0.0
  0
LINE
  5
2BD
330
17
100
AcDbEntity
  8
AI_SEG_BBOX
  6
DASHED
 62
4
100
AcDbLine
 10
328.803052096233
 20
465.409700441152
 30
0.0
 11
328.803052096233
 21
461.820725762496
 31
0.0
  0
TEXT
  5
2BE
330
17
100
AcDbEntity
  8
AI_SEG_BBOX
 62
4
100
AcDbText
 10
328.803052096233
 20
465.409700441152
 30
0.0
 40
2.5
  1
C55:1
100
AcDbText
  0
LINE
  5
2BF
330
17
100
AcDbEntity
  8
AI_SEG_BBOX
  6
DASHED
 62
4
100
AcDbLine
 10
327.207412566362
 20
461.820725762496
 30
0.0
 11
327.207412566362
 21
461.820725762496
 31
0.0
  0
LINE
  5
2C0
330
17
100
AcDbEntity
  8
AI_SEG_BBOX
  6
DASHED
 62
4
100
AcDbLine
 10
327.207412566362
 20
461.820725762496
 30
0.0
 11
327.207412566362
 21
465.409700441152
 31
0.0
  0
LINE
  5
2C1
330
17
100
AcDbEntity
  8
AI_SEG_BBOX
  6
DASHED
 62
4
100
AcDbLine
 10
327.207412566362
 20
465.409700441152
 30
0.0
 11
327.207412566362
 21
465.409700441152
 31
0.0
  0
LINE
  5
2C2
330
17
100
AcDbEntity
  8
AI_SEG_BBOX
  6
DASHED
 62
4
100
AcDbLine
 10
327.207412566362
 20
465.409700441152
 30
0.0
 11
327.207412566362
 21
461.820725762496
 31
0.0
  0
TEXT
  5
2C3
330
17
100
AcDbEntity
  8
AI_SEG_BBOX
 62
4
100
AcDbText
 10
327.207412566362
 20
465.409700441152
 30
0.0
 40
2.5
  1
C56:1
100
AcDbText
  0
LINE
  5
2C4
330
17
100
AcDbEntity
  8
AI_SEG_BBOX
  6
DASHED
 62
4
100
AcDbLine
 10
332.116469215498
 20
460.263931604313
 30
0.0
 11
343.798029151583
 21
460.263931604313
 31
0.0
  0
LINE
  5
2C5
330
17
100
AcDbEntity
  8
AI_SEG_BBOX
  6
DASHED
 62
4
100
AcDbLine
 10
343.798029151583
 20
460.263931604313
 30
0.0
 11
343.798029151583
 21
476.359120077076
 31
0.0
  0
LINE
  5
2C6
330
17
100
AcDbEntity
  8
AI_SEG_BBOX
  6
DASHED
 62
4
100
AcDbLine
 10
343.798029151583
 20
476.359120077076
 30
0.0
 11
332.116469215498
 21
476.359120077076
 31
0.0
  0
LINE
  5
2C7
330
17
100
AcDbEntity
  8
AI_SEG_BBOX
  6
DASHED
 62
4
100
AcDbLine
 10
332.116469215498
 20
476.359120077076
 30
0.0
 11
332.116469215498
 21
460.263931604313
 31
0.0
  0
TEXT
  5
2C8
330
17
100
AcDbEntity
  8
AI_SEG_BBOX
 62
4
100
AcDbText
 10
332.116469215498
 20
476.359120077076
 30
0.0
 40
2.5
  1
C57:6
100
AcDbText
  0
LINE
  5
2C9
330
17
100
AcDbEntity
  8
AI_SEG_BBOX
  6
DASHED
 62
4
100
AcDbLine
 10
341.465907823598
 20
476.359120077076
 30
0.0
 11
346.130150479452
 21
476.359120077076
 31
0.0
  0
LINE
  5
2CA
330
17
100
AcDbEntity
  8
AI_SEG_BBOX
  6
DASHED
 62
4
100
AcDbLine
 10
346.130150479452
 20
476.359120077076
 30
0.0
 11
346.130150479452
 21
477.312521613058
 31
0.0
  0
LINE
  5
2CB
330
17
100
AcDbEntity
  8
AI_SEG_BBOX
  6
DASHED
 62
4
100
AcDbLine
 10
346.130150479452
 20
477.312521613058
 30
0.0
 11
341.465907823598
 21
477.312521613058
 31
0.0
  0
LINE
  5
2CC
330
17
100
AcDbEntity
  8
AI_SEG_BBOX
  6
DASHED
 62
4
100
AcDbLine
 10
341.465907823598
 20
477.312521613058
 30
0.0
 11
341.465907823598
 21
476.359120077076
 31
0.0
  0
TEXT
  5
2CD
330
17
100
AcDbEntity
  8
AI_SEG_BBOX
 62
4
100
AcDbText
 10
341.465907823598
 20
477.312521613058
 30
0.0
 40
2.5
  1
C58:2
100
AcDbText
  0
LINE
  5
2CE
330
17
100
AcDbEntity
  8
AI_SEG_BBOX
  6
DASHED
 62
4
100
AcDbLine
 10
329.784347887571
 20
476.359120077076
 30
0.0
 11
334.448590543599
 21
476.359120077076
 31
0.0
  0
LINE
  5
2CF
330
17
100
AcDbEntity
  8
AI_SEG_BBOX
  6
DASHED
 62
4
100
AcDbLine
 10
334.448590543599
 20
476.359120077076
 30
0.0
 11
334.448590543599
 21
477.312521613058
 31
0.0
  0
LINE
  5
2D0
330
17
100
AcDbEntity
  8
AI_SEG_BBOX
  6
DASHED
 62
4
100
AcDbLine
 10
334.448590543599
 20
477.312521613058
 30
0.0
 11
329.784347887571
 21
477.312521613058
 31
0.0
  0
LINE
  5
2D1
330
17
100
AcDbEntity
  8
AI_SEG_BBOX
  6
DASHED
 62
4
100
AcDbLine
 10
329.784347887571
 20
477.312521613058
 30
0.0
 11
329.784347887571
 21
476.359120077076
 31
0.0
  0
TEXT
  5
2D2
330
17
100
AcDbEntity
  8
AI_SEG_BBOX
 62
4
100
AcDbText
 10
329.784347887571
 20
477.312521613058
 30
0.0
 40
2.5
  1
C59:2
100
AcDbText
  0
LINE
  5
2D3
330
17
100
AcDbEntity
  8
AI_SEG_BBOX
  6
DASHED
 62
4
100
AcDbLine
 10
329.357356615275
 20
507.700154425463
 30
0.0
 11
332.116469215585
 21
507.700154425463
 31
0.0
  0
LINE
  5
2D4
330
17
100
AcDbEntity
  8
AI_SEG_BBOX
  6
DASHED
 62
4
100
AcDbLine
 10
332.116469215585
 20
507.700154425463
 30
0.0
 11
332.116469215585
 21
507.700154425463
 31
0.0
  0
LINE
  5
2D5
330
17
100
AcDbEntity
  8
AI_SEG_BBOX
  6
DASHED
 62
4
100
AcDbLine
 10
332.116469215585
 20
507.700154425463
 30
0.0
 11
329.357356615275
 21
507.700154425463
 31
0.0
  0
LINE
  5
2D6
330
17
100
AcDbEntity
  8
AI_SEG_BBOX
  6
DASHED
 62
4
100
AcDbLine
 10
329.357356615275
 20
507.700154425463
 30
0.0
 11
329.357356615275
 21
507.700154425463
 31
0.0
  0
TEXT
  5
2D7
330
17
100
AcDbEntity
  8
AI_SEG_BBOX
 62
4
100
AcDbText
 10
329.357356615275
 20
507.700154425463
 30
0.0
 40
2.5
  1
C60:1
100
AcDbText
  0
LINE
  5
2D8
330
17
100
AcDbEntity
  8
AI_SEG_BBOX
  6
DASHED
 62
4
100
AcDbLine
 10
343.798029151525
 20
507.700154425463
 30
0.0
 11
346.557141751838
 21
507.700154425463
 31
0.0
  0
LINE
  5
2D9
330
17
100
AcDbEntity
  8
AI_SEG_BBOX
  6
DASHED
 62
4
100
AcDbLine
 10
346.557141751838
 20
507.700154425463
 30
0.0
 11
346.557141751838
 21
507.700154425463
 31
0.0
  0
LINE
  5
2DA
330
17
100
AcDbEntity
  8
AI_SEG_BBOX
  6
DASHED
 62
4
100
AcDbLine
 10
346.557141751838
 20
507.700154425463
 30
0.0
 11
343.798029151525
 21
507.700154425463
 31
0.0
  0
LINE
  5
2DB
330
17
100
AcDbEntity
  8
AI_SEG_BBOX
  6
DASHED
 62
4
100
AcDbLine
 10
343.798029151525
 20
507.700154425463
 30
0.0
 11
343.798029151525
 21
507.700154425463
 31
0.0
  0
TEXT
  5
2DC
330
17
100
AcDbEntity
  8
AI_SEG_BBOX
 62
4
100
AcDbText
 10
343.798029151525
 20
507.700154425463
 30
0.0
 40
2.5
  1
C61:1
100
AcDbText
  0
LINE
  5
2DD
330
17
100
AcDbEntity
  8
AI_SEG_BBOX
  6
DASHED
 62
4
100
AcDbLine
 10
346.303270120885
 20
439.755564484561
 30
0.0
 11
351.965526171387
 21
439.755564484561
 31
0.0
  0
LINE
  5
2DE
330
17
100
AcDbEntity
  8
AI_SEG_BBOX
  6
DASHED
 62
4
100
AcDbLine
 10
351.965526171387
 20
439.755564484561
 30
0.0
 11
351.965526171387
 21
439.755564484561
 31
0.0
  0
LINE
  5
2DF
330
17
100
AcDbEntity
  8
AI_SEG_BBOX
  6
DASHED
 62
4
100
AcDbLine
 10
351.965526171387
 20
439.755564484561
 30
0.0
 11
346.303270120885
 21
439.755564484561
 31
0.0
  0
LINE
  5
2E0
330
17
100
AcDbEntity
  8
AI_SEG_BBOX
  6
DASHED
 62
4
100
AcDbLine
 10
346.303270120885
 20
439.755564484561
 30
0.0
 11
346.303270120885
 21
439.755564484561
 31
0.0
  0
TEXT
  5
2E1
330
17
100
AcDbEntity
  8
AI_SEG_BBOX
 62
4
100
AcDbText
 10
346.303270120885
 20
439.755564484561
 30
0.0
 40
2.5
  1
C62:1
100
AcDbText
  0
LINE
  5
2E2
330
17
100
AcDbEntity
  8
AI_SEG_BBOX
  6
DASHED
 62
4
100
AcDbLine
 10
495.468071538171
 20
118.640783399937
 30
0.0
 11
495.468071538171
 21
118.640783399937
 31
0.0
  0
LINE
  5
2E3
330
17
100
AcDbEntity
  8
AI_SEG_BBOX
  6
DASHED
 62
4
100
AcDbLine
 10
495.468071538171
 20
118.640783399937
 30
0.0
 11
495.468071538171
 21
118.640783399937
 31
0.0
  0
LINE
  5
2E4
330
17
100
AcDbEntity
  8
AI_SEG_BBOX
  6
DASHED
 62
4
100
AcDbLine
 10
495.468071538171
 20
118.640783399937
 30
0.0
 11
495.468071538171
 21
118.640783399937
 31
0.0
  0
LINE
  5
2E5
330
17
100
AcDbEntity
  8
AI_SEG_BBOX
  6
DASHED
 62
4
100
AcDbLine
 10
495.468071538171
 20
118.640783399937
 30
0.0
 11
495.468071538171
 21
118.640783399937
 31
0.0
  0
TEXT
  5
2E6
330
17
100
AcDbEntity
  8
AI_SEG_BBOX
 62
4
100
AcDbText
 10
495.468071538171
 20
118.640783399937
 30
0.0
 40
2.5
  1
C63:1
100
AcDbText
  0
LINE
  5
2E7
330
17
100
AcDbEntity
  8
AI_SEG_BBOX
  6
DASHED
 62
4
100
AcDbLine
 10
474.514347701735
 20
118.124810954257
 30
0.0
 11
474.514347701735
 21
118.124810954257
 31
0.0
  0
LINE
  5
2E8
330
17
100
AcDbEntity
  8
AI_SEG_BBOX
  6
DASHED
 62
4
100
AcDbLine
 10
474.514347701735
 20
118.124810954257
 30
0.0
 11
474.514347701735
 21
118.124810954257
 31
0.0
  0
LINE
  5
2E9
330
17
100
AcDbEntity
  8
AI_SEG_BBOX
  6
DASHED
 62
4
100
AcDbLine
 10
474.514347701735
 20
118.124810954257
 30
0.0
 11
474.514347701735
 21
118.124810954257
 31
0.0
  0
LINE
  5
2EA
330
17
100
AcDbEntity
  8
AI_SEG_BBOX
  6
DASHED
 62
4
100
AcDbLine
 10
474.514347701735
 20
118.124810954257
 30
0.0
 11
474.514347701735
 21
118.124810954257
 31
0.0
  0
TEXT
  5
2EB
330
17
100
AcDbEntity
  8
AI_SEG_BBOX
 62
4
100
AcDbText
 10
474.514347701735
 20
118.124810954257
 30
0.0
 40
2.5
  1
C64:1
100
AcDbText
  0
LINE
  5
2EC
330
17
100
AcDbEntity
  8
AI_SEG_BBOX
  6
DASHED
 62
4
100
AcDbLine
 10
476.814347701735
 20
123.124810954257
 30
0.0
 11
482.214347701735
 21
123.124810954257
 31
0.0
  0
LINE
  5
2ED
330
17
100
AcDbEntity
  8
AI_SEG_BBOX
  6
DASHED
 62
4
100
AcDbLine
 10
482.214347701735
 20
123.124810954257
 30
0.0
 11
482.214347701735
 21
131.02481095429098
 31
0.0
  0
LINE
  5
2EE
330
17
100
AcDbEntity
  8
AI_SEG_BBOX
  6
DASHED
 62
4
100
AcDbLine
 10
482.214347701735
 20
131.02481095429098
 30
0.0
 11
476.814347701735
 21
131.02481095429098
 31
0.0
  0
LINE
  5
2EF
330
17
100
AcDbEntity
  8
AI_SEG_BBOX
  6
DASHED
 62
4
100
AcDbLine
 10
476.814347701735
 20
131.02481095429098
 30
0.0
 11
476.814347701735
 21
123.124810954257
 31
0.0
  0
TEXT
  5
2F0
330
17
100
AcDbEntity
  8
AI_SEG_BBOX
 62
4
100
AcDbText
 10
476.814347701735
 20
131.02481095429098
 30
0.0
 40
2.5
  1
C65:3
100
AcDbText
  0
LINE
  5
2F1
330
17
100
AcDbEntity
  8
AI_SEG_BBOX
  6
DASHED
 62
4
100
AcDbLine
 10
1507.30648374559
 20
-1510.58080683769
 30
0.0
 11
1507.30648374559
 21
-1510.58080683769
 31
0.0
  0
LINE
  5
2F2
330
17
100
AcDbEntity
  8
AI_SEG_BBOX
  6
DASHED
 62
4
100
AcDbLine
 10
1507.30648374559
 20
-1510.58080683769
 30
0.0
 11
1507.30648374559
 21
-1510.58080683769
 31
0.0
  0
LINE
  5
2F3
330
17
100
AcDbEntity
  8
AI_SEG_BBOX
  6
DASHED
 62
4
100
AcDbLine
 10
1507.30648374559
 20
-1510.58080683769
 30
0.0
 11
1507.30648374559
 21
-1510.58080683769
 31
0.0
  0
LINE
  5
2F4
330
17
100
AcDbEntity
  8
AI_SEG_BBOX
  6
DASHED
 62
4
100
AcDbLine
 10
1507.30648374559
 20
-1510.58080683769
 30
0.0
 11
1507.30648374559
 21
-1510.58080683769
 31
0.0
  0
TEXT
  5
2F5
330
17
100
AcDbEntity
  8
AI_SEG_BBOX
 62
4
100
AcDbText
 10
1507.30648374559
 20
-1510.58080683769
 30
0.0
 40
2.5
  1
C66:1
100
AcDbText
  0
LINE
  5
2F6
330
17
100
AcDbEntity
  8
AI_SEG_BBOX
  6
DASHED
 62
4
100
AcDbLine
 10
278.762998281303
 20
416.691877439466
 30
0.0
 11
278.762998281303
 21
416.691877439466
 31
0.0
  0
LINE
  5
2F7
330
17
100
AcDbEntity
  8
AI_SEG_BBOX
  6
DASHED
 62
4
100
AcDbLine
 10
278.762998281303
 20
416.691877439466
 30
0.0
 11
278.762998281303
 21
416.691877439466
 31
0.0
  0
LINE
  5
2F8
330
17
100
AcDbEntity
  8
AI_SEG_BBOX
  6
DASHED
 62
4
100
AcDbLine
 10
278.762998281303
 20
416.691877439466
 30
0.0
 11
278.762998281303
 21
416.691877439466
 31
0.0
  0
LINE
  5
2F9
330
17
100
AcDbEntity
  8
AI_SEG_BBOX
  6
DASHED
 62
4
100
AcDbLine
 10
278.762998281303
 20
416.691877439466
 30
0.0
 11
278.762998281303
 21
416.691877439466
 31
0.0
  0
TEXT
  5
2FA
330
17
100
AcDbEntity
  8
AI_SEG_BBOX
 62
4
100
AcDbText
 10
278.762998281303
 20
416.691877439466
 30
0.0
 40
2.5
  1
C67:1
100
AcDbText
  0
LINE
  5
2FB
330
17
100
AcDbEntity
  8
AI_SEG_BBOX
  6
DASHED
 62
4
100
AcDbLine
 10
242.694235629798
 20
416.691875005963
 30
0.0
 11
242.694235629798
 21
416.691875005963
 31
0.0
  0
LINE
  5
2FC
330
17
100
AcDbEntity
  8
AI_SEG_BBOX
  6
DASHED
 62
4
100
AcDbLine
 10
242.694235629798
 20
416.691875005963
 30
0.0
 11
242.694235629798
 21
416.691875005963
 31
0.0
  0
LINE
  5
2FD
330
17
100
AcDbEntity
  8
AI_SEG_BBOX
  6
DASHED
 62
4
100
AcDbLine
 10
242.694235629798
 20
416.691875005963
 30
0.0
 11
242.694235629798
 21
416.691875005963
 31
0.0
  0
LINE
  5
2FE
330
17
100
AcDbEntity
  8
AI_SEG_BBOX
  6
DASHED
 62
4
100
AcDbLine
 10
242.694235629798
 20
416.691875005963
 30
0.0
 11
242.694235629798
 21
416.691875005963
 31
0.0
  0
TEXT
  5
2FF
330
17
100
AcDbEntity
  8
AI_SEG_BBOX
 62
4
100
AcDbText
 10
242.694235629798
 20
416.691875005963
 30
0.0
 40
2.5
  1
C68:1
100
AcDbText
  0
LINE
  5
300
330
17
100
AcDbEntity
  8
AI_SEG_BBOX
  6
DASHED
 62
4
100
AcDbLine
 10
244.994235629798
 20
421.691875005963
 30
0.0
 11
250.39423562979798
 21
421.691875005963
 31
0.0
  0
LINE
  5
301
330
17
100
AcDbEntity
  8
AI_SEG_BBOX
  6
DASHED
 62
4
100
AcDbLine
 10
250.39423562979798
 20
421.691875005963
 30
0.0
 11
250.39423562979798
 21
429.591875005963
 31
0.0
  0
LINE
  5
302
330
17
100
AcDbEntity
  8
AI_SEG_BBOX
  6
DASHED
 62
4
100
AcDbLine
 10
250.39423562979798
 20
429.591875005963
 30
0.0
 11
244.994235629798
 21
429.591875005963
 31
0.0
  0
LINE
  5
303
330
17
100
AcDbEntity
  8
AI_SEG_BBOX
  6
DASHED
 62
4
100
AcDbLine
 10
244.994235629798
 20
429.591875005963
 30
0.0
 11
244.994235629798
 21
421.691875005963
 31
0.0
  0
TEXT
  5
304
330
17
100
AcDbEntity
  8
AI_SEG_BBOX
 62
4
100
AcDbText
 10
244.994235629798
 20
429.591875005963
 30
0.0
 40
2.5
  1
C69:3
100
AcDbText
  0
LINE
  5
305
330
17
100
AcDbEntity
  8
AI_SEG_BBOX
  6
DASHED
 62
4
100
AcDbLine
 10
263.665729021015
 20
521.303361222208
 30
0.0
 11
263.665729021015
 21
521.303361222208
 31
0.0
  0
LINE
  5
306
330
17
100
AcDbEntity
  8
AI_SEG_BBOX
  6
DASHED
 62
4
100
AcDbLine
 10
263.665729021015
 20
521.303361222208
 30
0.0
 11
263.665729021015
 21
521.303361222208
 31
0.0
  0
LINE
  5
307
330
17
100
AcDbEntity
  8
AI_SEG_BBOX
  6
DASHED
 62
4
100
AcDbLine
 10
263.665729021015
 20
521.303361222208
 30
0.0
 11
263.665729021015
 21
521.303361222208
 31
0.0
  0
LINE
  5
308
330
17
100
AcDbEntity
  8
AI_SEG_BBOX
  6
DASHED
 62
4
100
AcDbLine
 10
263.665729021015
 20
521.303361222208
 30
0.0
 11
263.665729021015
 21
521.303361222208
 31
0.0
  0
TEXT
  5
309
330
17
100
AcDbEntity
  8
AI_SEG_BBOX
 62
4
100
AcDbText
 10
263.665729021015
 20
521.303361222208
 30
0.0
 40
2.5
  1
C70:1
100
AcDbText
  0
LINE
  5
30A
330
17
100
AcDbEntity
  8
AI_SEG_BBOX
  6
DASHED
 62
4
100
AcDbLine
 10
242.694235629796
 20
521.303361222205
 30
0.0
 11
242.694235629796
 21
521.303361222205
 31
0.0
  0
LINE
  5
30B
330
17
100
AcDbEntity
  8
AI_SEG_BBOX
  6
DASHED
 62
4
100
AcDbLine
 10
242.694235629796
 20
521.303361222205
 30
0.0
 11
242.694235629796
 21
521.303361222205
 31
0.0
  0
LINE
  5
30C
330
17
100
AcDbEntity
  8
AI_SEG_BBOX
  6
DASHED
 62
4
100
AcDbLine
 10
242.694235629796
 20
521.303361222205
 30
0.0
 11
242.694235629796
 21
521.303361222205
 31
0.0
  0
LINE
  5
30D
330
17
100
AcDbEntity
  8
AI_SEG_BBOX
  6
DASHED
 62
4
100
AcDbLine
 10
242.694235629796
 20
521.303361222205
 30
0.0
 11
242.694235629796
 21
521.303361222205
 31
0.0
  0
TEXT
  5
30E
330
17
100
AcDbEntity
  8
AI_SEG_BBOX
 62
4
100
AcDbText
 10
242.694235629796
 20
521.303361222205
 30
0.0
 40
2.5
  1
C71:1
100
AcDbText
  0
LINE
  5
30F
330
17
100
AcDbEntity
  8
AI_SEG_BBOX
  6
DASHED
 62
4
100
AcDbLine
 10
244.994235629796
 20
526.303361222205
 30
0.0
 11
250.394235629796
 21
526.303361222205
 31
0.0
  0
LINE
  5
310
330
17
100
AcDbEntity
  8
AI_SEG_BBOX
  6
DASHED
 62
4
100
AcDbLine
 10
250.394235629796
 20
526.303361222205
 30
0.0
 11
250.394235629796
 21
534.2033612222391
 31
0.0
  0
LINE
  5
311
330
17
100
AcDbEntity
  8
AI_SEG_BBOX
  6
DASHED
 62
4
100
AcDbLine
 10
250.394235629796
 20
534.2033612222391
 30
0.0
 11
244.994235629796
 21
534.2033612222391
 31
0.0
  0
LINE
  5
312
330
17
100
AcDbEntity
  8
AI_SEG_BBOX
  6
DASHED
 62
4
100
AcDbLine
 10
244.994235629796
 20
534.2033612222391
 30
0.0
 11
244.994235629796
 21
526.303361222205
 31
0.0
  0
TEXT
  5
313
330
17
100
AcDbEntity
  8
AI_SEG_BBOX
 62
4
100
AcDbText
 10
244.994235629796
 20
534.2033612222391
 30
0.0
 40
2.5
  1
C72:3
100
AcDbText
  0
LINE
  5
314
330
17
100
AcDbEntity
  8
AI_SEG_BBOX
  6
DASHED
 62
4
100
AcDbLine
 10
232.51415293944
 20
458.56861754391
 30
0.0
 11
242.51415293944
 21
458.56861754391
 31
0.0
  0
LINE
  5
315
330
17
100
AcDbEntity
  8
AI_SEG_BBOX
  6
DASHED
 62
4
100
AcDbLine
 10
242.51415293944
 20
458.56861754391
 30
0.0
 11
242.51415293944
 21
468.56861754391
 31
0.0
  0
LINE
  5
316
330
17
100
AcDbEntity
  8
AI_SEG_BBOX
  6
DASHED
 62
4
100
AcDbLine
 10
242.51415293944
 20
468.56861754391
 30
0.0
 11
232.51415293944
 21
468.56861754391
 31
0.0
  0
LINE
  5
317
330
17
100
AcDbEntity
  8
AI_SEG_BBOX
  6
DASHED
 62
4
100
AcDbLine
 10
232.51415293944
 20
468.56861754391
 30
0.0
 11
232.51415293944
 21
458.56861754391
 31
0.0
  0
TEXT
  5
318
330
17
100
AcDbEntity
  8
AI_SEG_BBOX
 62
4
100
AcDbText
 10
232.51415293944
 20
468.56861754391
 30
0.0
 40
2.5
  1
C73:4
100
AcDbText
  0
LINE
  5
319
330
17
100
AcDbEntity
  8
AI_SEG_BBOX
  6
DASHED
 62
4
100
AcDbLine
 10
236.26415293944
 20
462.31861754391
 30
0.0
 11
238.76415293944
 21
462.31861754391
 31
0.0
  0
LINE
  5
31A
330
17
100
AcDbEntity
  8
AI_SEG_BBOX
  6
DASHED
 62
4
100
AcDbLine
 10
238.76415293944
 20
462.31861754391
 30
0.0
 11
238.76415293944
 21
464.81861754391
 31
0.0
  0
LINE
  5
31B
330
17
100
AcDbEntity
  8
AI_SEG_BBOX
  6
DASHED
 62
4
100
AcDbLine
 10
238.76415293944
 20
464.81861754391
 30
0.0
 11
236.26415293944
 21
464.81861754391
 31
0.0
  0
LINE
  5
31C
330
17
100
AcDbEntity
  8
AI_SEG_BBOX
  6
DASHED
 62
4
100
AcDbLine
 10
236.26415293944
 20
464.81861754391
 30
0.0
 11
236.26415293944
 21
462.31861754391
 31
0.0
  0
TEXT
  5
31D
330
17
100
AcDbEntity
  8
AI_SEG_BBOX
 62
4
100
AcDbText
 10
236.26415293944
 20
464.81861754391
 30
0.0
 40
2.5
  1
C74:10
100
AcDbText
  0
LINE
  5
31E
330
17
100
AcDbEntity
  8
AI_SEG_BBOX
  6
DASHED
 62
4
100
AcDbLine
 10
235.758511050939
 20
468.56861754391
 30
0.0
 11
239.269794827942
 21
468.56861754391
 31
0.0
  0
LINE
  5
31F
330
17
100
AcDbEntity
  8
AI_SEG_BBOX
  6
DASHED
 62
4
100
AcDbLine
 10
239.269794827942
 20
468.56861754391
 30
0.0
 11
239.269794827942
 21
472.69925077591
 31
0.0
  0
LINE
  5
320
330
17
100
AcDbEntity
  8
AI_SEG_BBOX
  6
DASHED
 62
4
100
AcDbLine
 10
239.269794827942
 20
472.69925077591
 30
0.0
 11
235.758511050939
 21
472.69925077591
 31
0.0
  0
LINE
  5
321
330
17
100
AcDbEntity
  8
AI_SEG_BBOX
  6
DASHED
 62
4
100
AcDbLine
 10
235.758511050939
 20
472.69925077591
 30
0.0
 11
235.758511050939
 21
468.56861754391
 31
0.0
  0
TEXT
  5
322
330
17
100
AcDbEntity
  8
AI_SEG_BBOX
 62
4
100
AcDbText
 10
235.758511050939
 20
472.69925077591
 30
0.0
 40
2.5
  1
C75:3
100
AcDbText
  0
LINE
  5
323
330
17
100
AcDbEntity
  8
AI_SEG_BBOX
  6
DASHED
 62
4
100
AcDbLine
 10
1378.84937883224
 20
-1275.5808068389
 30
0.0
 11
1378.84937883224
 21
-1275.5808068389
 31
0.0
  0
LINE
  5
324
330
17
100
AcDbEntity
  8
AI_SEG_BBOX
  6
DASHED
 62
4
100
AcDbLine
 10
1378.84937883224
 20
-1275.5808068389
 30
0.0
 11
1378.84937883224
 21
-1275.5808068389
 31
0.0
  0
LINE
  5
325
330
17
100
AcDbEntity
  8
AI_SEG_BBOX
  6
DASHED
 62
4
100
AcDbLine
 10
1378.84937883224
 20
-1275.5808068389
 30
0.0
 11
1378.84937883224
 21
-1275.5808068389
 31
0.0
  0
LINE
  5
326
330
17
100
AcDbEntity
  8
AI_SEG_BBOX
  6
DASHED
 62
4
100
AcDbLine
 10
1378.84937883224
 20
-1275.5808068389
 30
0.0
 11
1378.84937883224
 21
-1275.5808068389
 31
0.0
  0
TEXT
  5
327
330
17
100
AcDbEntity
  8
AI_SEG_BBOX
 62
4
100
AcDbText
 10
1378.84937883224
 20
-1275.5808068389
 30
0.0
 40
2.5
  1
C76:1
100
AcDbText
  0
LINE
  5
328
330
17
100
AcDbEntity
  8
AI_SEG_BBOX
  6
DASHED
 62
4
100
AcDbLine
 10
1407.65672872381
 20
-1275.58080683769
 30
0.0
 11
1407.65672872381
 21
-1275.58080683769
 31
0.0
  0
LINE
  5
329
330
17
100
AcDbEntity
  8
AI_SEG_BBOX
  6
DASHED
 62
4
100
AcDbLine
 10
1407.65672872381
 20
-1275.58080683769
 30
0.0
 11
1407.65672872381
 21
-1275.58080683769
 31
0.0
  0
LINE
  5
32A
330
17
100
AcDbEntity
  8
AI_SEG_BBOX
  6
DASHED
 62
4
100
AcDbLine
 10
1407.65672872381
 20
-1275.58080683769
 30
0.0
 11
1407.65672872381
 21
-1275.58080683769
 31
0.0
  0
LINE
  5
32B
330
17
100
AcDbEntity
  8
AI_SEG_BBOX
  6
DASHED
 62
4
100
AcDbLine
 10
1407.65672872381
 20
-1275.58080683769
 30
0.0
 11
1407.65672872381
 21
-1275.58080683769
 31
0.0
  0
TEXT
  5
32C
330
17
100
AcDbEntity
  8
AI_SEG_BBOX
 62
4
100
AcDbText
 10
1407.65672872381
 20
-1275.58080683769
 30
0.0
 40
2.5
  1
C77:1
100
AcDbText
  0
LINE
  5
32D
330
17
100
AcDbEntity
  8
AI_SEG_BBOX
  6
DASHED
 62
4
100
AcDbLine
 10
-1370.75314417299
 20
-474.563555307704
 30
0.0
 11
-1370.75314417299
 21
-474.563555307704
 31
0.0
  0
LINE
  5
32E
330
17
100
AcDbEntity
  8
AI_SEG_BBOX
  6
DASHED
 62
4
100
AcDbLine
 10
-1370.75314417299
 20
-474.563555307704
 30
0.0
 11
-1370.75314417299
 21
-474.563555307704
 31
0.0
  0
LINE
  5
32F
330
17
100
AcDbEntity
  8
AI_SEG_BBOX
  6
DASHED
 62
4
100
AcDbLine
 10
-1370.75314417299
 20
-474.563555307704
 30
0.0
 11
-1370.75314417299
 21
-474.563555307704
 31
0.0
  0
LINE
  5
330
330
17
100
AcDbEntity
  8
AI_SEG_BBOX
  6
DASHED
 62
4
100
AcDbLine
 10
-1370.75314417299
 20
-474.563555307704
 30
0.0
 11
-1370.75314417299
 21
-474.563555307704
 31
0.0
  0
TEXT
  5
331
330
17
100
AcDbEntity
  8
AI_SEG_BBOX
 62
4
100
AcDbText
 10
-1370.75314417299
 20
-474.563555307704
 30
0.0
 40
2.5
  1
C78:1
100
AcDbText
  0
LINE
  5
332
330
17
100
AcDbEntity
  8
AI_SEG_BBOX
  6
DASHED
 62
4
100
AcDbLine
 10
427.453163725329
 20
333.628462461956
 30
0.0
 11
434.037644672918
 21
333.628462461956
 31
0.0
  0
LINE
  5
333
330
17
100
AcDbEntity
  8
AI_SEG_BBOX
  6
DASHED
 62
4
100
AcDbLine
 10
434.037644672918
 20
333.628462461956
 30
0.0
 11
434.037644672918
 21
345.355414684001
 31
0.0
  0
LINE
  5
334
330
17
100
AcDbEntity
  8
AI_SEG_BBOX
  6
DASHED
 62
4
100
AcDbLine
 10
434.037644672918
 20
345.355414684001
 30
0.0
 11
427.453163725329
 21
345.355414684001
 31
0.0
  0
LINE
  5
335
330
17
100
AcDbEntity
  8
AI_SEG_BBOX
  6
DASHED
 62
4
100
AcDbLine
 10
427.453163725329
 20
345.355414684001
 30
0.0
 11
427.453163725329
 21
333.628462461956
 31
0.0
  0
TEXT
  5
336
330
17
100
AcDbEntity
  8
AI_SEG_BBOX
 62
4
100
AcDbText
 10
427.453163725329
 20
345.355414684001
 30
0.0
 40
2.5
  1
C79:8
100
AcDbText
  0
LINE
  5
337
330
17
100
AcDbEntity
  8
AI_SEG_BBOX
  6
DASHED
 62
4
100
AcDbLine
 10
425.994576173643
 20
332.211548840323
 30
0.0
 11
435.287862574359
 21
332.211548840323
 31
0.0
  0
LINE
  5
338
330
17
100
AcDbEntity
  8
AI_SEG_BBOX
  6
DASHED
 62
4
100
AcDbLine
 10
435.287862574359
 20
332.211548840323
 30
0.0
 11
435.287862574359
 21
341.563087049629
 31
0.0
  0
LINE
  5
339
330
17
100
AcDbEntity
  8
AI_SEG_BBOX
  6
DASHED
 62
4
100
AcDbLine
 10
435.287862574359
 20
341.563087049629
 30
0.0
 11
425.994576173643
 21
341.563087049629
 31
0.0
  0
LINE
  5
33A
330
17
100
AcDbEntity
  8
AI_SEG_BBOX
  6
DASHED
 62
4
100
AcDbLine
 10
425.994576173643
 20
341.563087049629
 30
0.0
 11
425.994576173643
 21
332.211548840323
 31
0.0
  0
TEXT
  5
33B
330
17
100
AcDbEntity
  8
AI_SEG_BBOX
 62
4
100
AcDbText
 10
425.994576173643
 20
341.563087049629
 30
0.0
 40
2.5
  1
C80:4
100
AcDbText
  0
LINE
  5
33C
330
17
100
AcDbEntity
  8
AI_SEG_BBOX
  6
DASHED
 62
4
100
AcDbLine
 10
425.912855310978
 20
345.353206616061
 30
0.0
 11
435.24618864431
 21
345.353206616061
 31
0.0
  0
LINE
  5
33D
330
17
100
AcDbEntity
  8
AI_SEG_BBOX
  6
DASHED
 62
4
100
AcDbLine
 10
435.24618864431
 20
345.353206616061
 30
0.0
 11
435.24618864431
 21
348.686539949395
 31
0.0
  0
LINE
  5
33E
330
17
100
AcDbEntity
  8
AI_SEG_BBOX
  6
DASHED
 62
4
100
AcDbLine
 10
435.24618864431
 20
348.686539949395
 30
0.0
 11
425.912855310978
 21
348.686539949395
 31
0.0
  0
LINE
  5
33F
330
17
100
AcDbEntity
  8
AI_SEG_BBOX
  6
DASHED
 62
4
100
AcDbLine
 10
425.912855310978
 20
348.686539949395
 30
0.0
 11
425.912855310978
 21
345.353206616061
 31
0.0
  0
TEXT
  5
340
330
17
100
AcDbEntity
  8
AI_SEG_BBOX
 62
4
100
AcDbText
 10
425.912855310978
 20
348.686539949395
 30
0.0
 40
2.5
  1
C81:4
100
AcDbText
  0
LINE
  5
341
330
17
100
AcDbEntity
  8
AI_SEG_BBOX
  6
DASHED
 62
4
100
AcDbLine
 10
-1214.31895337216
 20
-658.979600140801
 30
0.0
 11
-1214.31895337216
 21
-658.979600140801
 31
0.0
  0
LINE
  5
342
330
17
100
AcDbEntity
  8
AI_SEG_BBOX
  6
DASHED
 62
4
100
AcDbLine
 10
-1214.31895337216
 20
-658.979600140801
 30
0.0
 11
-1214.31895337216
 21
-658.979600140801
 31
0.0
  0
LINE
  5
343
330
17
100
AcDbEntity
  8
AI_SEG_BBOX
  6
DASHED
 62
4
100
AcDbLine
 10
-1214.31895337216
 20
-658.979600140801
 30
0.0
 11
-1214.31895337216
 21
-658.979600140801
 31
0.0
  0
LINE
  5
344
330
17
100
AcDbEntity
  8
AI_SEG_BBOX
  6
DASHED
 62
4
100
AcDbLine
 10
-1214.31895337216
 20
-658.979600140801
 30
0.0
 11
-1214.31895337216
 21
-658.979600140801
 31
0.0
  0
TEXT
  5
345
330
17
100
AcDbEntity
  8
AI_SEG_BBOX
 62
4
100
AcDbText
 10
-1214.31895337216
 20
-658.979600140801
 30
0.0
 40
2.5
  1
C82:1
100
AcDbText
  0
LINE
  5
346
330
17
100
AcDbEntity
  8
AI_SEG_BBOX
  6
DASHED
 62
4
100
AcDbLine
 10
263.665728019528
 20
558.152678600724
 30
0.0
 11
263.665728019528
 21
558.152678600724
 31
0.0
  0
LINE
  5
347
330
17
100
AcDbEntity
  8
AI_SEG_BBOX
  6
DASHED
 62
4
100
AcDbLine
 10
263.665728019528
 20
558.152678600724
 30
0.0
 11
263.665728019528
 21
558.152678600724
 31
0.0
  0
LINE
  5
348
330
17
100
AcDbEntity
  8
AI_SEG_BBOX
  6
DASHED
 62
4
100
AcDbLine
 10
263.665728019528
 20
558.152678600724
 30
0.0
 11
263.665728019528
 21
558.152678600724
 31
0.0
  0
LINE
  5
349
330
17
100
AcDbEntity
  8
AI_SEG_BBOX
  6
DASHED
 62
4
100
AcDbLine
 10
263.665728019528
 20
558.152678600724
 30
0.0
 11
263.665728019528
 21
558.152678600724
 31
0.0
  0
TEXT
  5
34A
330
17
100
AcDbEntity
  8
AI_SEG_BBOX
 62
4
100
AcDbText
 10
263.665728019528
 20
558.152678600724
 30
0.0
 40
2.5
  1
C83:1
100
AcDbText
  0
LINE
  5
34B
330
17
100
AcDbEntity
  8
AI_SEG_BBOX
  6
DASHED
 62
4
100
AcDbLine
 10
239.118795396077
 20
558.152674450176
 30
0.0
 11
239.118795396077
 21
558.152674450176
 31
0.0
  0
LINE
  5
34C
330
17
100
AcDbEntity
  8
AI_SEG_BBOX
  6
DASHED
 62
4
100
AcDbLine
 10
239.118795396077
 20
558.152674450176
 30
0.0
 11
239.118795396077
 21
558.152674450176
 31
0.0
  0
LINE
  5
34D
330
17
100
AcDbEntity
  8
AI_SEG_BBOX
  6
DASHED
 62
4
100
AcDbLine
 10
239.118795396077
 20
558.152674450176
 30
0.0
 11
239.118795396077
 21
558.152674450176
 31
0.0
  0
LINE
  5
34E
330
17
100
AcDbEntity
  8
AI_SEG_BBOX
  6
DASHED
 62
4
100
AcDbLine
 10
239.118795396077
 20
558.152674450176
 30
0.0
 11
239.118795396077
 21
558.152674450176
 31
0.0
  0
TEXT
  5
34F
330
17
100
AcDbEntity
  8
AI_SEG_BBOX
 62
4
100
AcDbText
 10
239.118795396077
 20
558.152674450176
 30
0.0
 40
2.5
  1
C84:1
100
AcDbText
  0
LINE
  5
350
330
17
100
AcDbEntity
  8
AI_SEG_BBOX
  6
DASHED
 62
4
100
AcDbLine
 10
241.418795396077
 20
563.152674450176
 30
0.0
 11
246.81879539607698
 21
563.152674450176
 31
0.0
  0
LINE
  5
351
330
17
100
AcDbEntity
  8
AI_SEG_BBOX
  6
DASHED
 62
4
100
AcDbLine
 10
246.81879539607698
 20
563.152674450176
 30
0.0
 11
246.81879539607698
 21
571.05267445021
 31
0.0
  0
LINE
  5
352
330
17
100
AcDbEntity
  8
AI_SEG_BBOX
  6
DASHED
 62
4
100
AcDbLine
 10
246.81879539607698
 20
571.05267445021
 30
0.0
 11
241.418795396077
 21
571.05267445021
 31
0.0
  0
LINE
  5
353
330
17
100
AcDbEntity
  8
AI_SEG_BBOX
  6
DASHED
 62
4
100
AcDbLine
 10
241.418795396077
 20
571.05267445021
 30
0.0
 11
241.418795396077
 21
563.152674450176
 31
0.0
  0
TEXT
  5
354
330
17
100
AcDbEntity
  8
AI_SEG_BBOX
 62
4
100
AcDbText
 10
241.418795396077
 20
571.05267445021
 30
0.0
 40
2.5
  1
C85:3
100
AcDbText
  0
LINE
  5
356
330
17
100
AcDbEntity
  8
AI_BBOX
  6
DASHED
 62
1
100
AcDbLine
 10
347.111446990236
 20
461.885223848723
 30
0.0
 11
347.111446990236
 21
461.885223848723
 31
0.0
  0
LINE
  5
357
330
17
100
AcDbEntity
  8
AI_BBOX
  6
DASHED
 62
1
100
AcDbLine
 10
347.111446990236
 20
461.885223848723
 30
0.0
 11
347.111446990236
 21
465.474198527379
 31
0.0
  0
LINE
  5
358
330
17
100
AcDbEntity
  8
AI_BBOX
  6
DASHED
 62
1
100
AcDbLine
 10
347.111446990236
 20
465.474198527379
 30
0.0
 11
347.111446990236
 21
465.474198527379
 31
0.0
  0
LINE
  5
359
330
17
100
AcDbEntity
  8
AI_BBOX
  6
DASHED
 62
1
100
AcDbLine
 10
347.111446990236
 20
465.474198527379
 30
0.0
 11
347.111446990236
 21
461.885223848723
 31
0.0
  0
LINE
  5
35A
330
17
100
AcDbEntity
  8
AI_BBOX
  6
DASHED
 62
1
100
AcDbLine
 10
348.707086520165
 20
461.885223848723
 30
0.0
 11
348.707086520165
 21
461.885223848723
 31
0.0
  0
LINE
  5
35B
330
17
100
AcDbEntity
  8
AI_BBOX
  6
DASHED
 62
1
100
AcDbLine
 10
348.707086520165
 20
461.885223848723
 30
0.0
 11
348.707086520165
 21
465.474198527379
 31
0.0
  0
LINE
  5
35C
330
17
100
AcDbEntity
  8
AI_BBOX
  6
DASHED
 62
1
100
AcDbLine
 10
348.707086520165
 20
465.474198527379
 30
0.0
 11
348.707086520165
 21
465.474198527379
 31
0.0
  0
LINE
  5
35D
330
17
100
AcDbEntity
  8
AI_BBOX
  6
DASHED
 62
1
100
AcDbLine
 10
348.707086520165
 20
465.474198527379
 30
0.0
 11
348.707086520165
 21
461.885223848723
 31
0.0
  0
LINE
  5
35E
330
17
100
AcDbEntity
  8
AI_BBOX
  6
DASHED
 62
1
100
AcDbLine
 10
345.57966437972
 20
463.722817380425
 30
0.0
 11
347.111446990236
 21
463.722817380425
 31
0.0
  0
LINE
  5
35F
330
17
100
AcDbEntity
  8
AI_BBOX
  6
DASHED
 62
1
100
AcDbLine
 10
347.111446990236
 20
463.722817380425
 30
0.0
 11
347.111446990236
 21
463.722817380425
 31
0.0
  0
LINE
  5
360
330
17
100
AcDbEntity
  8
AI_BBOX
  6
DASHED
 62
1
100
AcDbLine
 10
347.111446990236
 20
463.722817380425
 30
0.0
 11
345.57966437972
 21
463.722817380425
 31
0.0
  0
LINE
  5
361
330
17
100
AcDbEntity
  8
AI_BBOX
  6
DASHED
 62
1
100
AcDbLine
 10
345.57966437972
 20
463.722817380425
 30
0.0
 11
345.57966437972
 21
463.722817380425
 31
0.0
  0
LINE
  5
362
330
17
100
AcDbEntity
  8
AI_BBOX
  6
DASHED
 62
1
100
AcDbLine
 10
328.803052096233
 20
463.658319294431
 30
0.0
 11
330.334834706866
 21
463.658319294431
 31
0.0
  0
LINE
  5
363
330
17
100
AcDbEntity
  8
AI_BBOX
  6
DASHED
 62
1
100
AcDbLine
 10
330.334834706866
 20
463.658319294431
 30
0.0
 11
330.334834706866
 21
463.658319294431
 31
0.0
  0
LINE
  5
364
330
17
100
AcDbEntity
  8
AI_BBOX
  6
DASHED
 62
1
100
AcDbLine
 10
330.334834706866
 20
463.658319294431
 30
0.0
 11
328.803052096233
 21
463.658319294431
 31
0.0
  0
LINE
  5
365
330
17
100
AcDbEntity
  8
AI_BBOX
  6
DASHED
 62
1
100
AcDbLine
 10
328.803052096233
 20
463.658319294431
 30
0.0
 11
328.803052096233
 21
463.658319294431
 31
0.0
  0
LINE
  5
366
330
17
100
AcDbEntity
  8
AI_BBOX
  6
DASHED
 62
1
100
AcDbLine
 10
328.803052096233
 20
461.820725762496
 30
0.0
 11
328.803052096233
 21
461.820725762496
 31
0.0
  0
LINE
  5
367
330
17
100
AcDbEntity
  8
AI_BBOX
  6
DASHED
 62
1
100
AcDbLine
 10
328.803052096233
 20
461.820725762496
 30
0.0
 11
328.803052096233
 21
465.409700441152
 31
0.0
  0
LINE
  5
368
330
17
100
AcDbEntity
  8
AI_BBOX
  6
DASHED
 62
1
100
AcDbLine
 10
328.803052096233
 20
465.409700441152
 30
0.0
 11
328.803052096233
 21
465.409700441152
 31
0.0
  0
LINE
  5
369
330
17
100
AcDbEntity
  8
AI_BBOX
  6
DASHED
 62
1
100
AcDbLine
 10
328.803052096233
 20
465.409700441152
 30
0.0
 11
328.803052096233
 21
461.820725762496
 31
0.0
  0
LINE
  5
36A
330
17
100
AcDbEntity
  8
AI_BBOX
  6
DASHED
 62
1
100
AcDbLine
 10
327.207412566362
 20
461.820725762496
 30
0.0
 11
327.207412566362
 21
461.820725762496
 31
0.0
  0
LINE
  5
36B
330
17
100
AcDbEntity
  8
AI_BBOX
  6
DASHED
 62
1
100
AcDbLine
 10
327.207412566362
 20
461.820725762496
 30
0.0
 11
327.207412566362
 21
465.409700441152
 31
0.0
  0
LINE
  5
36C
330
17
100
AcDbEntity
  8
AI_BBOX
  6
DASHED
 62
1
100
AcDbLine
 10
327.207412566362
 20
465.409700441152
 30
0.0
 11
327.207412566362
 21
465.409700441152
 31
0.0
  0
LINE
  5
36D
330
17
100
AcDbEntity
  8
AI_BBOX
  6
DASHED
 62
1
100
AcDbLine
 10
327.207412566362
 20
465.409700441152
 30
0.0
 11
327.207412566362
 21
461.820725762496
 31
0.0
  0
LINE
  5
36E
330
17
100
AcDbEntity
  8
AI_BBOX
  6
DASHED
 62
1
100
AcDbLine
 10
329.357356615275
 20
507.700154425463
 30
0.0
 11
332.116469215585
 21
507.700154425463
 31
0.0
  0
LINE
  5
36F
330
17
100
AcDbEntity
  8
AI_BBOX
  6
DASHED
 62
1
100
AcDbLine
 10
332.116469215585
 20
507.700154425463
 30
0.0
 11
332.116469215585
 21
507.700154425463
 31
0.0
  0
LINE
  5
370
330
17
100
AcDbEntity
  8
AI_BBOX
  6
DASHED
 62
1
100
AcDbLine
 10
332.116469215585
 20
507.700154425463
 30
0.0
 11
329.357356615275
 21
507.700154425463
 31
0.0
  0
LINE
  5
371
330
17
100
AcDbEntity
  8
AI_BBOX
  6
DASHED
 62
1
100
AcDbLine
 10
329.357356615275
 20
507.700154425463
 30
0.0
 11
329.357356615275
 21
507.700154425463
 31
0.0
  0
LINE
  5
372
330
17
100
AcDbEntity
  8
AI_BBOX
  6
DASHED
 62
1
100
AcDbLine
 10
343.798029151525
 20
507.700154425463
 30
0.0
 11
346.557141751838
 21
507.700154425463
 31
0.0
  0
LINE
  5
373
330
17
100
AcDbEntity
  8
AI_BBOX
  6
DASHED
 62
1
100
AcDbLine
 10
346.557141751838
 20
507.700154425463
 30
0.0
 11
346.557141751838
 21
507.700154425463
 31
0.0
  0
LINE
  5
374
330
17
100
AcDbEntity
  8
AI_BBOX
  6
DASHED
 62
1
100
AcDbLine
 10
346.557141751838
 20
507.700154425463
 30
0.0
 11
343.798029151525
 21
507.700154425463
 31
0.0
  0
LINE
  5
375
330
17
100
AcDbEntity
  8
AI_BBOX
  6
DASHED
 62
1
100
AcDbLine
 10
343.798029151525
 20
507.700154425463
 30
0.0
 11
343.798029151525
 21
507.700154425463
 31
0.0
  0
LINE
  5
376
330
17
100
AcDbEntity
  8
AI_BBOX
  6
DASHED
 62
1
100
AcDbLine
 10
346.303270120885
 20
439.755564484561
 30
0.0
 11
351.965526171387
 21
439.755564484561
 31
0.0
  0
LINE
  5
377
330
17
100
AcDbEntity
  8
AI_BBOX
  6
DASHED
 62
1
100
AcDbLine
 10
351.965526171387
 20
439.755564484561
 30
0.0
 11
351.965526171387
 21
439.755564484561
 31
0.0
  0
LINE
  5
378
330
17
100
AcDbEntity
  8
AI_BBOX
  6
DASHED
 62
1
100
AcDbLine
 10
351.965526171387
 20
439.755564484561
 30
0.0
 11
346.303270120885
 21
439.755564484561
 31
0.0
  0
LINE
  5
379
330
17
100
AcDbEntity
  8
AI_BBOX
  6
DASHED
 62
1
100
AcDbLine
 10
346.303270120885
 20
439.755564484561
 30
0.0
 11
346.303270120885
 21
439.755564484561
 31
0.0
  0
ENDSEC
  0
SECTION
  2
OBJECTS
  0
DICTIONARY
  5
A
330
0
100
AcDbDictionary
280
0
281
1
  3
ACAD_COLOR
350
B
  3
ACAD_GROUP
350
C
  3
ACAD_LAYOUT
350
D
  3
ACAD_MATERIAL
350
E
  3
ACAD_MLEADERSTYLE
350
F
  3
ACAD_MLINESTYLE
350
10
  3
ACAD_PLOTSETTINGS
350
11
  3
ACAD_PLOTSTYLENAME
350
12
  3
ACAD_SCALELIST
350
14
  3
ACAD_TABLESTYLE
350
15
  3
ACAD_VISUALSTYLE
350
16
  3
EZDXF_META
350
2D
  0
DICTIONARY
  5
B
330
A
100
AcDbDictionary
280
0
281
1
  0
DICTIONARY
  5
C
330
A
100
AcDbDictionary
280
0
281
1
  0
DICTIONARY
  5
D
330
A
100
AcDbDictionary
280
0
281
1
  3
Model
350
1A
  3
Layout1
350
1E
  0
DICTIONARY
  5
E
330
A
100
AcDbDictionary
280
0
281
1
  3
ByBlock
350
1F
  3
ByLayer
350
20
  3
Global
350
21
  0
DICTIONARY
  5
F
330
A
100
AcDbDictionary
280
0
281
1
  3
Standard
350
2C
  0
DICTIONARY
  5
10
330
A
100
AcDbDictionary
280
0
281
1
  3
Standard
350
22
  0
DICTIONARY
  5
11
330
A
100
AcDbDictionary
280
0
281
1
  0
ACDBDICTIONARYWDFLT
  5
12
330
A
100
AcDbDictionary
280
0
281
1
  3
Normal
350
13
100
AcDbDictionaryWithDefault
340
13
  0
ACDBPLACEHOLDER
  5
13
330
12
  0
DICTIONARY
  5
14
330
A
100
AcDbDictionary
280
0
281
1
  0
DICTIONARY
  5
15
330
A
100
AcDbDictionary
280
0
281
1
  0
DICTIONARY
  5
16
330
A
100
AcDbDictionary
280
0
281
1
  0
LAYOUT
  5
1A
330
D
100
AcDbPlotSettings
  1

  4
A3
  6

 40
7.5
 41
20.0
 42
7.5
 43
20.0
 44
420.0
 45
297.0
 46
0.0
 47
0.0
 48
0.0
 49
0.0
140
0.0
141
0.0
142
1.0
143
1.0
 70
1024
 72
1
 73
0
 74
5
  7

 75
16
 76
0
 77
2
 78
300
147
1.0
148
0.0
149
0.0
100
AcDbLayout
  1
Model
 70
1
 71
0
 10
0.0
 20
0.0
 11
420.0
 21
297.0
 12
0.0
 22
0.0
 32
0.0
 14
1e+20
 24
1e+20
 34
1e+20
 15
-1e+20
 25
-1e+20
 35
-1e+20
146
0.0
 13
0.0
 23
0.0
 33
0.0
 16
1.0
 26
0.0
 36
0.0
 17
0.0
 27
1.0
 37
0.0
 76
1
330
17
  0
LAYOUT
  5
1E
330
D
100
AcDbPlotSettings
  1

  4
A3
  6

 40
7.5
 41
20.0
 42
7.5
 43
20.0
 44
420.0
 45
297.0
 46
0.0
 47
0.0
 48
0.0
 49
0.0
140
0.0
141
0.0
142
1.0
143
1.0
 70
0
 72
1
 73
0
 74
5
  7

 75
16
 76
0
 77
2
 78
300
147
1.0
148
0.0
149
0.0
100
AcDbLayout
  1
Layout1
 70
1
 71
1
 10
0.0
 20
0.0
 11
420.0
 21
297.0
 12
0.0
 22
0.0
 32
0.0
 14
1e+20
 24
1e+20
 34
1e+20
 15
-1e+20
 25
-1e+20
 35
-1e+20
146
0.0
 13
0.0
 23
0.0
 33
0.0
 16
1.0
 26
0.0
 36
0.0
 17
0.0
 27
1.0
 37
0.0
 76
1
330
1B
  0
MATERIAL
  5
1F
102
{ACAD_REACTORS
330
E
102
}
330
E
100
AcDbMaterial
  1
ByBlock
  2

 70
0
 40
1.0
 71
1
 41
1.0
 91
-1023410177
 42
1.0
 72
1
  3

 73
1
 74
1
 75
1
 44
0.5
 73
0
 45
1.0
 46
1.0
 77
1
  4

 78
1
 79
1
170
1
 48
1.0
171
1
  6

172
1
173
1
174
1
140
1.0
141
1.0
175
1
  7

176
1
177
1
178
1
143
1.0
179
1
  8

270
1
271
1
272
1
145
1.0
146
1.0
273
1
  9

274
1
275
1
276
1
 42
1.0
 72
1
  3

 73
1
 74
1
 75
1
 94
63
  0
MATERIAL
  5
20
102
{ACAD_REACTORS
330
E
102
}
330
E
100
AcDbMaterial
  1
ByLayer
  2

 70
0
 40
1.0
 71
1
 41
1.0
 91
-1023410177
 42
1.0
 72
1
  3

 73
1
 74
1
 75
1
 44
0.5
 73
0
 45
1.0
 46
1.0
 77
1
  4

 78
1
 79
1
170
1
 48
1.0
171
1
  6

172
1
173
1
174
1
140
1.0
141
1.0
175
1
  7

176
1
177
1
178
1
143
1.0
179
1
  8

270
1
271
1
272
1
145
1.0
146
1.0
273
1
  9

274
1
275
1
276
1
 42
1.0
 72
1
  3

 73
1
 74
1
 75
1
 94
63
  0
MATERIAL
  5
21
102
{ACAD_REACTORS
330
E
102
}
330
E
100
AcDbMaterial
  1
Global
  2

 70
0
 40
1.0
 71
1
 41
1.0
 91
-1023410177
 42
1.0
 72
1
  3

 73
1
 74
1
 75
1
 44
0.5
 73
0
 45
1.0
 46
1.0
 77
1
  4

 78
1
 79
1
170
1
 48
1.0
171
1
  6

172
1
173
1
174
1
140
1.0
141
1.0
175
1
  7

176
1
177
1
178
1
143
1.0
179
1
  8

270
1
271
1
272
1
145
1.0
146
1.0
273
1
  9

274
1
275
1
276
1
 42
1.0
 72
1
  3

 73
1
 74
1
 75
1
 94
63
  0
MLINESTYLE
  5
22
102
{ACAD_REACTORS
330
10
102
}
330
10
100
AcDbMlineStyle
  2
Standard
 70
0
  3

 62
256
 51
90.0
 52
90.0
 71
2
 49
0.5
 62
256
  6
BYLAYER
 49
-0.5
 62
256
  6
BYLAYER
  0
MLEADERSTYLE
  5
2C
102
{ACAD_REACTORS
330
F
102
}
330
F
100
AcDbMLeaderStyle
179
2
170
2
171
1
172
0
 90
2
 40
0.0
 41
0.0
173
1
 91
-1056964608
 92
-2
290
1
 42
2.0
291
1
 43
8.0
  3
Standard
 44
4.0
300

342
29
174
1
175
1
176
0
178
1
 93
-1056964608
 45
4.0
292
0
297
0
 46
4.0
 94
-1056964608
 47
1.0
 49
1.0
140
1.0
294
1
141
0.0
177
0
142
1.0
295
0
296
0
143
3.75
271
0
272
9
273
9
  0
DICTIONARY
  5
2D
330
A
100
AcDbDictionary
281
1
  3
CREATED_BY_EZDXF
350
2E
  3
WRITTEN_BY_EZDXF
350
37C
  0
DICTIONARYVAR
  5
2E
330
2D
100
DictionaryVariables
280
0
  1
1.3.4 @ 2025-12-14T06:57:13.103481+00:00
  0
DICTIONARYVAR
  5
37C
330
2D
100
DictionaryVariables
280
0
  1
1.3.4 @ 2025-12-14T06:57:13.468619+00:00
  0
ENDSEC
  0
EOF
